<svg width="101" height="194" viewBox="0 0 101 194" fill="none" xmlns="http://www.w3.org/2000/svg">
<path d="M50.7001 2.09961C69.2001 2.09961 91.3 5.29961 91.3 26.2996C91.3 48.1996 91.3 157.3 91.3 168.5C91.3 179.7 86.2001 191.8 71.3001 191.8C48.5001 191.8 44.3 191.8 29.8 191.8C15.3 191.8 8.30005 181.5 8.30005 168.9C8.30005 150.3 8.30005 43.4996 8.30005 26.6996C8.30005 6.29961 27.9001 2.09961 50.7001 2.09961Z" fill="#8A7128" stroke="black" stroke-width="0.5"/>
<path d="M79.6001 12.7998C80.9001 13.6998 81.9001 14.5998 82.7001 15.6998Z" fill="#888888"/>
<path d="M82.8001 17.0998C82.4001 17.0998 81.9001 16.8998 81.6001 16.4998C80.8001 15.5998 79.9001 14.6998 78.8001 13.8998C78.1001 13.3998 77.9001 12.4998 78.4001 11.7998C78.9001 11.0998 79.8001 10.8998 80.5001 11.3998C81.8001 12.2998 83.0001 13.3998 83.9001 14.4998C84.4001 15.0998 84.3001 16.0998 83.7001 16.5998C83.4001 16.9998 83.1001 17.0998 82.8001 17.0998Z" fill="#FFE700"/>
<path d="M17.2001 16.5998C18.1001 15.1998 19.4001 13.8998 20.9001 12.7998Z" fill="#888888"/>
<path d="M17.2 18.1C16.9 18.1 16.6 18 16.4 17.9C15.7 17.4 15.5 16.5 16 15.8C17 14.2 18.4 12.8 20.1 11.6C20.8 11.1 21.7 11.3 22.2 12C22.7 12.7 22.5 13.6 21.8 14.1C20.4 15.1 19.3 16.2 18.5 17.5C18.1 17.9 17.7 18.1 17.2 18.1Z" fill="#FFE700"/>
<path d="M49.8999 46.5996C43.3999 46.5996 26.6999 48.0996 15.7999 53.9996C19.4999 74.4996 20.6999 84.5996 20.6999 84.5996C20.6999 84.5996 27.0999 82.0996 49.8999 82.0996C72.6999 82.0996 79.1999 84.5996 79.1999 84.5996C79.1999 84.5996 79.1999 74.4996 82.9999 53.9996C72.0999 48.0996 57.2999 46.5996 49.8999 46.5996Z" fill="black" stroke="black" stroke-width="0.5" stroke-miterlimit="10"/>
<path d="M19.2 125.1L13.7 122.8V69.5996H14.9L18.7 90.7996L19.2 125.1Z" fill="black" stroke="black" stroke-width="0.5" stroke-miterlimit="10"/>
<path d="M19.2 128.3L13.7 126.8V169.6L19.2 157.6V128.3Z" fill="black" stroke="black" stroke-width="0.5" stroke-miterlimit="10"/>
<path d="M50.4 187.9C65.5 187.6 78.6999 183.2 78.6999 183.2C78.6999 183.2 76.2999 177.4 74.1999 172.2C68.2999 174.8 57.4 175.7 49.7 175.7C40.6 175.7 31.9 174.6 25.1 172C23.8 174.8 20.7 183.1 20.7 183.1C20.7 183.1 33.9 187.5 49 187.8C49.2 187.8 49.4 187.8 49.7 187.8C50 187.9 50.2 187.9 50.4 187.9Z" fill="black" stroke="black" stroke-width="0.5" stroke-miterlimit="10"/>
<path d="M80.3999 125.1L85.8999 122.8V69.5996H84.5999L80.8999 90.7996L80.3999 125.1Z" fill="black" stroke="black" stroke-width="0.5" stroke-miterlimit="10"/>
<path d="M80.3999 128.3L85.8999 126.8V169.6L80.3999 157.6V128.3Z" fill="black" stroke="black" stroke-width="0.5" stroke-miterlimit="10"/>
<path d="M14.1 185.6C14.1 185.6 19.7 176.4 24 169.5C27.5 171.1 34.9 173.6 47.3 173.9C47.3 173.9 51.6 173.9 52.5 173.9C64.8 173.5 72.2 171 75.6 169.4C81.3 179.9 85.5 186.2 85.5 186.2" stroke="black" stroke-width="0.5" stroke-miterlimit="10"/>
<path d="M28.7 190.5C21.5 189.3 18 187.6 16.2 186.2C16.6 184.9 17.4 183.3 17.4 183.3C17.4 183.3 17.3999 183.3 17.2999 183.2C17.2999 183.2 19 185.8 29.1 187.5L28.7 190.5Z" fill="url(#paint0_radial_1_1004)"/>
<path d="M62.1 190.1C58.5 190.5 54.9 190.7 49.9 190.9H48.3C43.2 190.8 39.7 190.6 36.1 190.3" stroke="black" stroke-width="3" stroke-miterlimit="10"/>
<path d="M70.2999 190.3L69.7999 187.3C79.5999 185.5 81.4999 183 81.4999 182.9C81.4999 182.9 82.4999 184.5 82.8999 185.6C81.2999 187 77.7999 188.9 70.2999 190.3Z" fill="url(#paint1_radial_1_1004)"/>
<path d="M30.7999 6.39981L30.2 3.4998C35.8 2.3998 42.4999 1.7998 50.5999 1.7998C57.6999 1.7998 63.5999 2.2998 68.6999 3.1998L68.0999 6.0998C63.1999 5.1998 57.4999 4.6998 50.5999 4.6998C42.6999 4.7998 36.1999 5.29981 30.7999 6.39981Z" fill="black"/>
<path d="M31 15.5996L30 27.0996C30 27.0996 27 39.0996 21.5 42.5996" stroke="black" stroke-miterlimit="10"/>
<path d="M67.5 15.5996L68.5 27.0996C68.5 27.0996 71.5 39.0996 77 42.5996" stroke="black" stroke-miterlimit="10"/>
<path d="M13.7 67.3L13.5 64.5C13.5 64.5 11.7 61.5 7.5 61.5C3.3 61.5 1.2 65.1 1 67.1C2.2 67.3 9.5 66.6 9.5 66.6C9.5 66.6 9.7 63.6 11 65.1C12.2 66.6 13.7 67.3 13.7 67.3Z" fill="#8A7128" stroke="black" stroke-width="0.5"/>
<path d="M85.7 67.3L85.9 64.5C85.9 64.5 87.7 61.5 91.9 61.5C96.1 61.5 98.1 65 98.4 67C97.2 67.2 89.9 66.5 89.9 66.5C89.9 66.5 89.7 63.5 88.4 65C87.2 66.6 85.7 67.3 85.7 67.3Z" fill="#8A7128" stroke="black" stroke-width="0.5"/>
<path d="M69 8.59961C73.7 9.59961 77.2 11.0996 79.6 12.7996Z" fill="#888888"/>
<path d="M79.6 14.2997C79.3 14.2997 79 14.1997 78.7 13.9997C76.2 12.2997 72.9 10.9997 68.6 10.0997C68.7 9.59971 69.1 7.79971 69.2 7.19971C73.8 8.19971 77.6 9.69971 80.3 11.5997C81 12.0997 81.2 12.9997 80.7 13.6997C80.6 13.9997 80.1 14.2997 79.6 14.2997Z" fill="white"/>
<path d="M20.9 12.8999C23.4 11.0999 26.7 9.7999 31 8.8999Z" fill="#888888"/>
<path d="M20.9 14.3999C20.4 14.3999 20 14.1999 19.7 13.7999C19.2 13.0999 19.4 12.1999 20.1 11.6999C22.8 9.8999 26.2 8.4999 30.7 7.3999C30.9 8.0999 31.2 9.5999 31.4 10.2999C27.3 11.1999 24.2 12.4999 21.8 14.0999C21.5 14.2999 21.2 14.3999 20.9 14.3999Z" fill="white"/>
<defs>
<radialGradient id="paint0_radial_1_1004" cx="0" cy="0" r="1" gradientUnits="userSpaceOnUse" gradientTransform="translate(22.7317 186.891) scale(5.2557 5.2557)">
<stop stop-color="#FF0A30"/>
<stop offset="1" stop-color="#C70200"/>
</radialGradient>
<radialGradient id="paint1_radial_1_1004" cx="0" cy="0" r="1" gradientUnits="userSpaceOnUse" gradientTransform="translate(76.3074 186.61) rotate(179.295) scale(5.30407 5.30408)">
<stop stop-color="#FF0A30"/>
<stop offset="1" stop-color="#C70200"/>
</radialGradient>
</defs>
</svg>
