<svg width="101" height="194" viewBox="0 0 101 194" fill="none" xmlns="http://www.w3.org/2000/svg">
<path d="M51.2001 2.09961C69.7001 2.09961 91.8 5.29961 91.8 26.2996C91.8 48.1996 91.8 157.3 91.8 168.5C91.8 179.7 86.7001 191.8 71.8001 191.8C49.0001 191.8 44.8 191.8 30.3 191.8C15.8 191.8 8.80005 181.5 8.80005 168.9C8.80005 150.3 8.80005 43.4996 8.80005 26.6996C8.80005 6.29961 28.4001 2.09961 51.2001 2.09961Z" fill="#6FF03A" stroke="black" stroke-width="0.5"/>
<path d="M80.1001 12.7998C81.4001 13.6998 82.4001 14.5998 83.2001 15.6998Z" fill="#888888"/>
<path d="M83.3001 17.0998C82.9001 17.0998 82.4001 16.8998 82.1001 16.4998C81.3001 15.5998 80.4001 14.6998 79.3001 13.8998C78.6001 13.3998 78.4001 12.4998 78.9001 11.7998C79.4001 11.0998 80.3001 10.8998 81.0001 11.3998C82.3001 12.2998 83.5001 13.3998 84.4001 14.4998C84.9001 15.0998 84.8001 16.0998 84.2001 16.5998C83.9001 16.9998 83.6001 17.0998 83.3001 17.0998Z" fill="#FFE700"/>
<path d="M17.7001 16.5998C18.6001 15.1998 19.9001 13.8998 21.4001 12.7998Z" fill="#888888"/>
<path d="M17.7 18.1C17.4 18.1 17.1 18 16.9 17.9C16.2 17.4 16 16.5 16.5 15.8C17.5 14.2 18.9 12.8 20.6 11.6C21.3 11.1 22.2 11.3 22.7 12C23.2 12.7 23 13.6 22.3 14.1C20.9 15.1 19.8 16.2 19 17.5C18.6 17.9 18.2 18.1 17.7 18.1Z" fill="#FFE700"/>
<path d="M50.3999 46.5996C43.8999 46.5996 27.1999 48.0996 16.2999 53.9996C19.9999 74.4996 21.1999 84.5996 21.1999 84.5996C21.1999 84.5996 27.5999 82.0996 50.3999 82.0996C73.1999 82.0996 79.6999 84.5996 79.6999 84.5996C79.6999 84.5996 79.6999 74.4996 83.4999 53.9996C72.5999 48.0996 57.7999 46.5996 50.3999 46.5996Z" fill="black" stroke="black" stroke-width="0.5" stroke-miterlimit="10"/>
<path d="M19.7 125.1L14.2 122.8V69.5996H15.4L19.2 90.7996L19.7 125.1Z" fill="black" stroke="black" stroke-width="0.5" stroke-miterlimit="10"/>
<path d="M19.7 128.3L14.2 126.8V169.6L19.7 157.6V128.3Z" fill="black" stroke="black" stroke-width="0.5" stroke-miterlimit="10"/>
<path d="M50.9 187.9C66 187.6 79.1999 183.2 79.1999 183.2C79.1999 183.2 76.7999 177.4 74.6999 172.2C68.7999 174.8 57.9 175.7 50.2 175.7C41.1 175.7 32.4 174.6 25.6 172C24.3 174.8 21.2 183.1 21.2 183.1C21.2 183.1 34.4 187.5 49.5 187.8C49.7 187.8 49.9 187.8 50.2 187.8C50.5 187.9 50.7 187.9 50.9 187.9Z" fill="black" stroke="black" stroke-width="0.5" stroke-miterlimit="10"/>
<path d="M80.8999 125.1L86.3999 122.8V69.5996H85.0999L81.3999 90.7996L80.8999 125.1Z" fill="black" stroke="black" stroke-width="0.5" stroke-miterlimit="10"/>
<path d="M80.8999 128.3L86.3999 126.8V169.6L80.8999 157.6V128.3Z" fill="black" stroke="black" stroke-width="0.5" stroke-miterlimit="10"/>
<path d="M14.6 185.6C14.6 185.6 20.2 176.4 24.5 169.5C28 171.1 35.4 173.6 47.8 173.9C47.8 173.9 52.1 173.9 53 173.9C65.3 173.5 72.7 171 76.1 169.4C81.8 179.9 86 186.2 86 186.2" stroke="black" stroke-width="0.5" stroke-miterlimit="10"/>
<path d="M29.2 190.5C22 189.3 18.5 187.6 16.7 186.2C17.1 184.9 17.9 183.3 17.9 183.3C17.9 183.3 17.8999 183.3 17.7999 183.2C17.7999 183.2 19.5 185.8 29.6 187.5L29.2 190.5Z" fill="url(#paint0_radial_1_1176)"/>
<path d="M62.6 190.1C59 190.5 55.4 190.7 50.4 190.9H48.8C43.7 190.8 40.2 190.6 36.6 190.3" stroke="black" stroke-width="3" stroke-miterlimit="10"/>
<path d="M70.7999 190.3L70.2999 187.3C79.9999 185.5 81.9999 183 81.9999 183C81.9999 183 82.9999 184.6 83.3999 185.7C81.7999 187 78.2999 188.9 70.7999 190.3Z" fill="url(#paint1_radial_1_1176)"/>
<path d="M31.2999 6.39981L30.7 3.4998C36.3 2.2998 43 1.7998 51.2 1.7998C58.3 1.7998 64.2 2.2998 69.3 3.1998L68.6999 6.0998C63.7999 5.1998 58.1 4.6998 51.2 4.6998C43.2 4.7998 36.6999 5.29981 31.2999 6.39981Z" fill="black"/>
<path d="M31.5 15.5996L30.5 27.0996C30.5 27.0996 27.5 39.0996 22 42.5996" stroke="black" stroke-miterlimit="10"/>
<path d="M68 15.5996L69 27.0996C69 27.0996 72 39.0996 77.5 42.5996" stroke="black" stroke-miterlimit="10"/>
<path d="M14.2 67.2996L14 64.5996C14 64.5996 12.2 61.5996 8 61.5996C3.8 61.5996 1.8 65.0996 1.5 67.0996C2.7 67.2996 10 66.5996 10 66.5996C10 66.5996 10.2 63.5996 11.5 65.0996C12.7 66.5996 14.2 67.2996 14.2 67.2996Z" fill="#6FF03A" stroke="black" stroke-width="0.5"/>
<path d="M86.2 67.3L86.4 64.5C86.4 64.5 88.2 61.5 92.4 61.5C96.6 61.5 98.6 65 98.9 67C97.7 67.2 90.4 66.5 90.4 66.5C90.4 66.5 90.2 63.5 88.9 65C87.7 66.6 86.2 67.3 86.2 67.3Z" fill="#6FF03A" stroke="black" stroke-width="0.5"/>
<path d="M69.5 8.59961C74.2 9.59961 77.7 11.0996 80.1 12.7996Z" fill="#888888"/>
<path d="M80.1 14.2997C79.8 14.2997 79.5 14.1997 79.2 13.9997C76.7 12.2997 73.4 10.9997 69.1 10.0997C69.2 9.59971 69.6 7.79971 69.7 7.19971C74.3 8.19971 78.1 9.69971 80.8 11.5997C81.5 12.0997 81.7 12.9997 81.2 13.6997C81.1 13.9997 80.6 14.2997 80.1 14.2997Z" fill="white"/>
<path d="M21.4 12.8999C23.9 11.0999 27.2 9.7999 31.5 8.8999Z" fill="#888888"/>
<path d="M21.4 14.3999C20.9 14.3999 20.5 14.1999 20.2 13.7999C19.7 13.0999 19.9 12.1999 20.6 11.6999C23.3 9.8999 26.7 8.4999 31.2 7.3999C31.4 8.0999 31.7 9.5999 31.9 10.2999C27.8 11.1999 24.7 12.4999 22.3 14.0999C22 14.2999 21.7 14.3999 21.4 14.3999Z" fill="white"/>
<defs>
<radialGradient id="paint0_radial_1_1176" cx="0" cy="0" r="1" gradientUnits="userSpaceOnUse" gradientTransform="translate(23.2256 186.892) scale(5.2557 5.2557)">
<stop stop-color="#FF0A30"/>
<stop offset="1" stop-color="#C70200"/>
</radialGradient>
<radialGradient id="paint1_radial_1_1176" cx="0" cy="0" r="1" gradientUnits="userSpaceOnUse" gradientTransform="translate(76.7958 186.61) rotate(179.295) scale(5.30407 5.30407)">
<stop stop-color="#FF0A30"/>
<stop offset="1" stop-color="#C70200"/>
</radialGradient>
</defs>
</svg>
