<svg width="101" height="194" viewBox="0 0 101 194" fill="none" xmlns="http://www.w3.org/2000/svg">
<path d="M51.3 2.6001C69.8 2.6001 91.9 5.8001 91.9 26.8001C91.9 48.7001 91.9 157.8 91.9 169C91.9 180.2 86.8 192.3 71.9 192.3C49.1 192.3 44.9 192.3 30.4 192.3C15.9 192.3 8.90002 182 8.90002 169.4C8.90002 150.8 8.90002 44.0001 8.90002 27.2001C8.90002 6.8001 28.5 2.6001 51.3 2.6001Z" fill="#238FA0" stroke="black" stroke-width="0.5"/>
<path d="M80.2001 13.3C81.5001 14.2 82.5001 15.1 83.3001 16.2Z" fill="#888888"/>
<path d="M83.4 17.6001C83 17.6001 82.5 17.4001 82.2 17.0001C81.4 16.1001 80.5 15.2001 79.4 14.4001C78.7 13.9001 78.5 13.0001 79 12.3001C79.5 11.6001 80.4 11.4001 81.1 11.9001C82.4 12.8001 83.6 13.9001 84.5 15.0001C85 15.6001 84.9 16.6001 84.3 17.1001C84 17.5001 83.7 17.6001 83.4 17.6001Z" fill="#FFC600"/>
<path d="M17.8 17.1C18.7 15.7 20 14.4 21.5 13.3Z" fill="#888888"/>
<path d="M17.8 18.6C17.5 18.6 17.2 18.5 17 18.4C16.3 17.9 16.1 17 16.6 16.3C17.6 14.7 19 13.3 20.7 12.1C21.4 11.6 22.3 11.8 22.8 12.5C23.3 13.2 23.1 14.1 22.4 14.6C21 15.6 19.9 16.7 19.1 18C18.7 18.4 18.2 18.6 17.8 18.6Z" fill="#FFC600"/>
<path d="M50.5 47.1001C44 47.1001 27.3 48.6001 16.4 54.5001C20.1 75.0001 21.3 85.1001 21.3 85.1001C21.3 85.1001 27.7 82.6001 50.5 82.6001C73.3 82.6001 79.8 85.1001 79.8 85.1001C79.8 85.1001 79.8 75.0001 83.6 54.5001C72.7 48.6001 57.9 47.1001 50.5 47.1001Z" fill="black" stroke="black" stroke-width="0.5" stroke-miterlimit="10"/>
<path d="M19.8 125.6L14.3 123.3V70.1001H15.5L19.3 91.3001L19.8 125.6Z" fill="black" stroke="black" stroke-width="0.5" stroke-miterlimit="10"/>
<path d="M19.8 128.8L14.3 127.3V170.1L19.8 158.1V128.8Z" fill="black" stroke="black" stroke-width="0.5" stroke-miterlimit="10"/>
<path d="M51 188.4C66.1 188.1 79.3001 183.7 79.3001 183.7C79.3001 183.7 76.9001 177.9 74.8001 172.7C68.9001 175.3 58 176.2 50.3 176.2C41.2 176.2 32.5001 175.1 25.7001 172.5C24.4001 175.3 21.3 183.6 21.3 183.6C21.3 183.6 34.5 188 49.6 188.3C49.8 188.3 50 188.3 50.3 188.3C50.6 188.4 50.8 188.4 51 188.4Z" fill="black" stroke="black" stroke-width="0.5" stroke-miterlimit="10"/>
<path d="M80.9 125.6L86.4 123.3V70.1001H85.2L81.4 91.3001L80.9 125.6Z" fill="black" stroke="black" stroke-width="0.5" stroke-miterlimit="10"/>
<path d="M80.9 128.8L86.4 127.3V170.1L80.9 158.1V128.8Z" fill="black" stroke="black" stroke-width="0.5" stroke-miterlimit="10"/>
<path d="M14.7 186.1C14.7 186.1 20.3 176.9 24.6 170C28.1 171.6 35.5 174.1 47.9 174.4C47.9 174.4 52.1999 174.4 53.0999 174.4C65.3999 174 72.7999 171.5 76.1999 169.9C81.8999 180.4 86.1 186.7 86.1 186.7" stroke="black" stroke-width="0.5" stroke-miterlimit="10"/>
<path d="M29.3 191C22.1 189.8 18.6 188.1 16.8 186.7C17.2 185.4 18 183.8 18 183.8C18 183.8 18 183.8 17.9 183.7C17.9 183.7 19.6 186.3 29.7001 188L29.3 191Z" fill="url(#paint0_radial_1_1115)"/>
<path d="M62.7001 190.6C59.1001 191 55.5001 191.2 50.5001 191.4H48.9001C43.8001 191.3 40.3001 191.1 36.7001 190.8" stroke="black" stroke-width="3" stroke-miterlimit="10"/>
<path d="M70.9 190.8L70.4 187.8C80.2 186 82.1 183.5 82.1 183.4C82.1 183.4 83.1 185 83.5 186.1C81.9 187.5 78.4 189.4 70.9 190.8Z" fill="url(#paint1_radial_1_1115)"/>
<path d="M31.4 6.90005L30.8 4.00005C36.4 2.90005 43.1 2.30005 51.2001 2.30005C58.3001 2.30005 64.2001 2.80005 69.3001 3.70005L68.7 6.60005C63.8 5.70005 58.1001 5.20005 51.2001 5.20005C43.3001 5.30005 36.8 5.80005 31.4 6.90005Z" fill="black"/>
<path d="M31.6 16.1001L30.6 27.6001C30.6 27.6001 27.6 39.6001 22.1 43.1001" stroke="black" stroke-miterlimit="10"/>
<path d="M68.1 16.1001L69.1 27.6001C69.1 27.6001 72.1 39.6001 77.6 43.1001" stroke="black" stroke-miterlimit="10"/>
<path d="M14.3 67.8001L14 65.1001C14 65.1001 12.2 62.1001 8 62.1001C3.8 62.1001 1.8 65.6001 1.5 67.6001C2.7 67.8001 10 67.1001 10 67.1001C10 67.1001 10.2 64.1001 11.5 65.6001C12.8 67.1001 14.3 67.8001 14.3 67.8001Z" fill="#238FA0" stroke="black" stroke-width="0.5"/>
<path d="M86.3 67.8L86.5 65C86.5 65 88.3 62 92.5 62C96.7 62 98.7 65.5 99 67.5C97.8 67.7 90.5 67 90.5 67C90.5 67 90.3 64 89 65.5C87.7 67 86.3 67.8 86.3 67.8Z" fill="#238FA0" stroke="black" stroke-width="0.5"/>
<path d="M69.6 9.09985C74.3 10.0999 77.8 11.5999 80.2 13.2999Z" fill="#888888"/>
<path d="M80.2 14.8C79.9 14.8 79.6 14.7 79.3 14.5C76.8 12.8 73.5 11.5 69.2 10.6C69.3 10.1 69.7 8.29995 69.8 7.69995C74.4 8.69995 78.2 10.2 80.9 12.1C81.6 12.6 81.8 13.5 81.3 14.2C81.2 14.5 80.7 14.8 80.2 14.8Z" fill="white"/>
<path d="M21.5 13.4001C24 11.6001 27.3 10.3001 31.6 9.40015Z" fill="#888888"/>
<path d="M21.5 14.9001C21 14.9001 20.6 14.7001 20.3 14.3001C19.8 13.6001 20 12.7001 20.7 12.2001C23.4 10.4001 26.8 9.00015 31.3 7.90015C31.5 8.60015 31.8 10.1001 32 10.8001C27.9 11.7001 24.8 13.0001 22.4 14.6001C22.1 14.8001 21.8 14.9001 21.5 14.9001Z" fill="white"/>
<defs>
<radialGradient id="paint0_radial_1_1115" cx="0" cy="0" r="1" gradientUnits="userSpaceOnUse" gradientTransform="translate(23.3195 187.392) scale(5.2557 5.2557)">
<stop stop-color="#FF0A30"/>
<stop offset="1" stop-color="#C70200"/>
</radialGradient>
<radialGradient id="paint1_radial_1_1115" cx="0" cy="0" r="1" gradientUnits="userSpaceOnUse" gradientTransform="translate(76.8545 187.11) rotate(179.295) scale(5.30407 5.30408)">
<stop stop-color="#FF0A30"/>
<stop offset="1" stop-color="#C70200"/>
</radialGradient>
</defs>
</svg>
