<svg width="101" height="194" viewBox="0 0 101 194" fill="none" xmlns="http://www.w3.org/2000/svg">
<path d="M51.1001 2.59961C69.6001 2.59961 91.7001 5.79961 91.7001 26.7996C91.7001 48.6996 91.7001 157.8 91.7001 169C91.7001 180.2 86.6001 192.3 71.7001 192.3C48.9001 192.3 44.7001 192.3 30.2001 192.3C15.7001 192.3 8.70007 182 8.70007 169.4C8.70007 150.8 8.70007 43.9996 8.70007 27.1996C8.70007 6.79961 28.3001 2.59961 51.1001 2.59961Z" fill="#CD1EB1" stroke="black" stroke-width="0.5"/>
<path d="M80.1 13.2998C81.4 14.1998 82.4 15.0998 83.2 16.1998Z" fill="#888888"/>
<path d="M83.2 17.5998C82.8 17.5998 82.3 17.3998 82 16.9998C81.2 16.0998 80.3 15.1998 79.2 14.3998C78.5 13.8998 78.3 12.9998 78.8 12.2998C79.3 11.5998 80.2 11.3998 80.9 11.8998C82.2 12.7998 83.4 13.8998 84.3 14.9998C84.8 15.5998 84.7 16.5998 84.1 17.0998C83.9 17.4998 83.5 17.5998 83.2 17.5998Z" fill="#FFC600"/>
<path d="M17.6001 17.0998C18.5001 15.6998 19.8001 14.3998 21.3001 13.2998Z" fill="#888888"/>
<path d="M17.6001 18.6C17.3001 18.6 17.0001 18.5 16.8001 18.4C16.1001 17.9 15.9001 17 16.4001 16.3C17.4001 14.7 18.8001 13.3 20.5001 12.1C21.2001 11.6 22.1001 11.8 22.6001 12.5C23.1001 13.2 22.9001 14.1 22.2001 14.6C20.8001 15.6 19.7001 16.7 18.9001 18C18.6001 18.4 18.1001 18.6 17.6001 18.6Z" fill="#FFC600"/>
<path d="M50.2999 47.0996C43.7999 47.0996 27.1 48.5996 16.2 54.4996C20 74.9996 21.2 85.0996 21.2 85.0996C21.2 85.0996 27.6 82.5996 50.4 82.5996C73.2 82.5996 79.6999 85.0996 79.6999 85.0996C79.6999 85.0996 79.7 74.9996 83.5 54.4996C72.5 48.5996 57.6999 47.0996 50.2999 47.0996Z" fill="black" stroke="black" stroke-width="0.5" stroke-miterlimit="10"/>
<path d="M19.6 125.6L14.1 123.3V70.0996H15.4L19.1 91.2996L19.6 125.6Z" fill="black" stroke="black" stroke-width="0.5" stroke-miterlimit="10"/>
<path d="M19.6 128.8L14.1 127.3V170.1L19.6 158.1V128.8Z" fill="black" stroke="black" stroke-width="0.5" stroke-miterlimit="10"/>
<path d="M50.9 188.4C66 188.1 79.1999 183.7 79.1999 183.7C79.1999 183.7 76.7999 177.9 74.6999 172.7C68.7999 175.3 57.9 176.2 50.2 176.2C41.1 176.2 32.4 175.1 25.6 172.5C24.3 175.3 21.2 183.6 21.2 183.6C21.2 183.6 34.4 188 49.5 188.3C49.7 188.3 49.9 188.3 50.2 188.3C50.4 188.4 50.6 188.4 50.9 188.4Z" fill="black" stroke="black" stroke-width="0.5" stroke-miterlimit="10"/>
<path d="M80.7999 125.6L86.2999 123.3V70.0996H84.9999L81.2999 91.2996L80.7999 125.6Z" fill="black" stroke="black" stroke-width="0.5" stroke-miterlimit="10"/>
<path d="M80.7999 128.8L86.2999 127.3V170.1L80.7999 158.1V128.8Z" fill="black" stroke="black" stroke-width="0.5" stroke-miterlimit="10"/>
<path d="M14.6 186.1C14.6 186.1 20.2 176.9 24.5 170C28 171.6 35.4 174.1 47.8 174.4C47.8 174.4 52.1 174.4 53 174.4C65.3 174 72.7 171.5 76.1 169.9C81.8 180.4 86 186.7 86 186.7" stroke="black" stroke-width="0.5" stroke-miterlimit="10"/>
<path d="M29.1 191C21.9 189.8 18.4 188.1 16.6 186.7C17 185.4 17.8 183.8 17.8 183.8C17.8 183.8 17.8 183.8 17.7 183.7C17.7 183.7 19.4 186.3 29.5 188L29.1 191Z" fill="url(#paint0_radial_1_967)"/>
<path d="M62.5 190.6C58.9 191 55.3 191.2 50.3 191.4H48.7C43.6 191.3 40.1 191.1 36.5 190.8" stroke="black" stroke-width="3" stroke-miterlimit="10"/>
<path d="M70.7 190.8L70.2 187.8C80 186 81.9 183.5 81.9 183.4C81.9 183.4 82.9 185 83.3 186.1C81.7 187.5 78.2 189.4 70.7 190.8Z" fill="url(#paint1_radial_1_967)"/>
<path d="M31.3001 6.89981L30.7001 3.9998C36.3001 2.8998 43.0001 2.2998 51.1001 2.2998C58.2001 2.2998 64.1001 2.7998 69.2001 3.6998L68.6001 6.5998C63.8001 5.7998 58.0001 5.2998 51.1001 5.2998C43.1001 5.2998 36.6001 5.79981 31.3001 6.89981Z" fill="black"/>
<path d="M31.5 16.0996L30.5 27.5996C30.5 27.5996 27.5 39.5996 22 43.0996" stroke="black" stroke-miterlimit="10" stroke-linecap="round"/>
<path d="M67.9 16.0996L68.9 27.5996C68.9 27.5996 71.9 39.5996 77.4 43.0996" stroke="black" stroke-miterlimit="10" stroke-linecap="round"/>
<path d="M14.1 67.8L13.9 65C13.9 65 12.1 62 7.90002 62C3.70002 62 1.70002 65.5 1.40002 67.5C2.60002 67.7 9.90002 67 9.90002 67C9.90002 67 10.1 64 11.4 65.5C12.7 67 14.1 67.8 14.1 67.8Z" fill="#CD1EB1" stroke="black" stroke-width="0.5"/>
<path d="M86.1 67.8L86.3 65C86.3 65 88.1 62 92.3 62C96.5 62 98.5 65.5 98.8 67.5C97.6 67.7 90.3 67 90.3 67C90.3 67 90.1 64 88.8 65.5C87.5 67 86.1 67.8 86.1 67.8Z" fill="#CD1EB1" stroke="black" stroke-width="0.5"/>
<path d="M69.5 9.09961C74.2 10.0996 77.7 11.5996 80.1 13.2996Z" fill="#888888"/>
<path d="M80.1 14.7997C79.8 14.7997 79.5 14.6997 79.2 14.4997C76.7 12.7997 73.4 11.4997 69.1 10.5997C69.2 10.0997 69.6 8.29971 69.7 7.69971C74.3 8.69971 78.1 10.1997 80.8 12.0997C81.5 12.5997 81.7 13.4997 81.2 14.1997C81 14.4997 80.5 14.7997 80.1 14.7997Z" fill="white"/>
<path d="M21.3 13.3999C23.8 11.5999 27.1 10.2999 31.4 9.3999Z" fill="#888888"/>
<path d="M21.3 14.8999C20.8 14.8999 20.4 14.6999 20.1 14.2999C19.6 13.5999 19.8 12.6999 20.5 12.1999C23.2 10.3999 26.6 8.9999 31.1 7.8999C31.3 8.5999 31.6 10.0999 31.8 10.7999C27.7 11.6999 24.6 12.9999 22.2 14.5999C21.9 14.7999 21.6 14.8999 21.3 14.8999Z" fill="white"/>
<defs>
<radialGradient id="paint0_radial_1_967" cx="0" cy="0" r="1" gradientUnits="userSpaceOnUse" gradientTransform="translate(23.1583 187.391) scale(5.2557 5.2557)">
<stop stop-color="#FF0A30"/>
<stop offset="1" stop-color="#C70200"/>
</radialGradient>
<radialGradient id="paint1_radial_1_967" cx="0" cy="0" r="1" gradientUnits="userSpaceOnUse" gradientTransform="translate(76.7389 187.11) rotate(179.295) scale(5.30407 5.30408)">
<stop stop-color="#FF0A30"/>
<stop offset="1" stop-color="#C70200"/>
</radialGradient>
</defs>
</svg>
