<svg width="101" height="194" viewBox="0 0 101 194" fill="none" xmlns="http://www.w3.org/2000/svg">
<path d="M51.2001 2.59961C69.7001 2.59961 91.8 5.79961 91.8 26.7996C91.8 48.6996 91.8 157.8 91.8 169C91.8 180.2 86.7001 192.3 71.8001 192.3C49.0001 192.3 44.8 192.3 30.3 192.3C15.8 192.3 8.80005 182 8.80005 169.4C8.80005 150.8 8.80005 43.9996 8.80005 27.1996C8.80005 6.79961 28.4001 2.59961 51.2001 2.59961Z" fill="#CD643A" stroke="black" stroke-width="0.5"/>
<path d="M80.2001 13.2998C81.5001 14.1998 82.5001 15.0998 83.3001 16.1998Z" fill="#888888"/>
<path d="M83.3001 17.5998C82.9001 17.5998 82.4001 17.3998 82.1001 16.9998C81.3001 16.0998 80.4001 15.1998 79.3001 14.3998C78.6001 13.8998 78.4001 12.9998 78.9001 12.2998C79.4001 11.5998 80.3001 11.3998 81.0001 11.8998C82.3001 12.7998 83.5001 13.8998 84.4001 14.9998C84.9001 15.5998 84.8001 16.5998 84.2001 17.0998C83.9001 17.4998 83.6001 17.5998 83.3001 17.5998Z" fill="#FFC600"/>
<path d="M17.7001 17.0998C18.6001 15.6998 19.9001 14.3998 21.4001 13.2998Z" fill="#888888"/>
<path d="M17.7 18.6C17.4 18.6 17.1 18.5 16.9 18.4C16.2 17.9 16 17 16.5 16.3C17.5 14.7 18.9 13.3 20.6 12.1C21.3 11.6 22.2 11.8 22.7 12.5C23.2 13.2 23 14.1 22.3 14.6C20.9 15.6 19.8 16.7 19 18C18.7 18.4 18.2 18.6 17.7 18.6Z" fill="#FFC600"/>
<path d="M50.3999 47.0996C43.8999 47.0996 27.1999 48.5996 16.2999 54.4996C19.9999 74.9996 21.1999 85.0996 21.1999 85.0996C21.1999 85.0996 27.5999 82.5996 50.3999 82.5996C73.1999 82.5996 79.6999 85.0996 79.6999 85.0996C79.6999 85.0996 79.6999 74.9996 83.4999 54.4996C72.5999 48.5996 57.7999 47.0996 50.3999 47.0996Z" fill="black" stroke="black" stroke-width="0.5" stroke-miterlimit="10"/>
<path d="M19.7 125.6L14.2 123.3V70.0996H15.5L19.2 91.2996L19.7 125.6Z" fill="black" stroke="black" stroke-width="0.5" stroke-miterlimit="10"/>
<path d="M19.7 128.8L14.2 127.3V170.1L19.7 158.1V128.8Z" fill="black" stroke="black" stroke-width="0.5" stroke-miterlimit="10"/>
<path d="M50.9999 188.4C66.0999 188.1 79.2999 183.7 79.2999 183.7C79.2999 183.7 76.8999 177.9 74.7999 172.7C68.8999 175.3 57.9999 176.2 50.2999 176.2C41.1999 176.2 32.4999 175.1 25.6999 172.5C24.3999 175.3 21.2999 183.6 21.2999 183.6C21.2999 183.6 34.4999 188 49.5999 188.3C49.7999 188.3 49.9999 188.3 50.2999 188.3C50.4999 188.4 50.6999 188.4 50.9999 188.4Z" fill="black" stroke="black" stroke-width="0.5" stroke-miterlimit="10"/>
<path d="M80.8999 125.6L86.3999 123.3V70.0996H85.0999L81.3999 91.2996L80.8999 125.6Z" fill="black" stroke="black" stroke-width="0.5" stroke-miterlimit="10"/>
<path d="M80.8999 128.8L86.3999 127.3V170.1L80.8999 158.1V128.8Z" fill="black" stroke="black" stroke-width="0.5" stroke-miterlimit="10"/>
<path d="M14.6 186.1C14.6 186.1 20.2 176.9 24.5 170C28 171.6 35.4 174.1 47.8 174.4C47.8 174.4 52.1 174.4 53 174.4C65.3 174 72.7 171.5 76.1 169.9C81.8 180.4 86 186.7 86 186.7" stroke="black" stroke-width="0.5" stroke-miterlimit="10"/>
<path d="M29.2 191C22 189.8 18.5 188.1 16.7 186.7C17.1 185.4 17.9 183.8 17.9 183.8C17.9 183.8 17.8999 183.8 17.7999 183.7C17.7999 183.7 19.5 186.3 29.6 188L29.2 191Z" fill="url(#paint0_radial_1_1237)"/>
<path d="M62.6 190.6C59 191 55.4 191.2 50.4 191.4H48.8C43.7 191.3 40.2 191.1 36.6 190.8" stroke="black" stroke-width="3" stroke-miterlimit="10"/>
<path d="M70.7999 190.8L70.2999 187.8C80.0999 186 81.9999 183.5 81.9999 183.4C81.9999 183.4 82.9999 185 83.3999 186.1C81.7999 187.5 78.2999 189.4 70.7999 190.8Z" fill="url(#paint1_radial_1_1237)"/>
<path d="M31.4 6.89981L30.8 3.9998C36.3 2.7998 43.0001 2.2998 51.2001 2.2998C58.3001 2.2998 64.2001 2.7998 69.3001 3.6998L68.7 6.5998C63.8 5.6998 58.1001 5.1998 51.2001 5.1998C43.2001 5.2998 36.7 5.79981 31.4 6.89981Z" fill="black"/>
<path d="M31.6 16.0996L30.6 27.5996C30.6 27.5996 27.6 39.5996 22.1 43.0996" stroke="black" stroke-miterlimit="10"/>
<path d="M68 16.0996L69 27.5996C69 27.5996 72 39.5996 77.5 43.0996" stroke="black" stroke-miterlimit="10"/>
<path d="M14.2 67.7996L14 65.0996C14 65.0996 12.2 62.0996 8 62.0996C3.8 62.0996 1.8 65.5996 1.5 67.5996C2.7 67.7996 10 67.0996 10 67.0996C10 67.0996 10.2 64.0996 11.5 65.5996C12.8 67.0996 14.2 67.7996 14.2 67.7996Z" fill="#CD643A" stroke="black" stroke-width="0.5"/>
<path d="M86.2 67.8L86.4 65C86.4 65 88.2 62 92.4 62C96.6 62 98.6 65.5 98.9 67.5C97.7 67.7 90.4 67 90.4 67C90.4 67 90.2 64 88.9 65.5C87.6 67 86.2 67.8 86.2 67.8Z" fill="#CD643A" stroke="black" stroke-width="0.5"/>
<path d="M69.5 9.09961C74.2 10.0996 77.7 11.5996 80.1 13.2996Z" fill="#888888"/>
<path d="M80.2 14.7997C79.9 14.7997 79.6 14.6997 79.3 14.4997C76.8 12.7997 73.5 11.4997 69.2 10.5997C69.3 10.0997 69.7 8.29971 69.8 7.69971C74.4 8.69971 78.2 10.1997 80.9 12.0997C81.6 12.5997 81.8 13.4997 81.3 14.1997C81.1 14.4997 80.6 14.7997 80.2 14.7997Z" fill="white"/>
<path d="M21.4 13.3999C23.9 11.5999 27.2 10.2999 31.5 9.3999Z" fill="#888888"/>
<path d="M21.4 14.8999C20.9 14.8999 20.5 14.6999 20.2 14.2999C19.7 13.5999 19.9 12.6999 20.6 12.1999C23.3 10.3999 26.7 8.9999 31.2 7.8999C31.4 8.5999 31.7 10.0999 31.9 10.7999C27.8 11.6999 24.7 12.9999 22.3 14.5999C22 14.7999 21.7 14.8999 21.4 14.8999Z" fill="white"/>
<defs>
<radialGradient id="paint0_radial_1_1237" cx="0" cy="0" r="1" gradientUnits="userSpaceOnUse" gradientTransform="translate(23.2459 187.391) scale(5.2557 5.2557)">
<stop stop-color="#FF0A30"/>
<stop offset="1" stop-color="#C70200"/>
</radialGradient>
<radialGradient id="paint1_radial_1_1237" cx="0" cy="0" r="1" gradientUnits="userSpaceOnUse" gradientTransform="translate(76.8061 187.11) rotate(179.295) scale(5.30407 5.30408)">
<stop stop-color="#FF0A30"/>
<stop offset="1" stop-color="#C70200"/>
</radialGradient>
</defs>
</svg>
