<svg width="101" height="194" viewBox="0 0 101 194" fill="none" xmlns="http://www.w3.org/2000/svg">
<path d="M51.1001 2.6001C69.6001 2.6001 91.7001 5.8001 91.7001 26.8001C91.7001 48.7001 91.7001 157.8 91.7001 169C91.7001 180.2 86.6001 192.3 71.7001 192.3C48.9001 192.3 44.7001 192.3 30.2001 192.3C15.7001 192.3 8.70007 182 8.70007 169.4C8.70007 150.8 8.70007 44.0001 8.70007 27.2001C8.70007 6.8001 28.2001 2.6001 51.1001 2.6001Z" fill="#822BFA" stroke="black" stroke-width="0.5"/>
<path d="M80 13.3C81.3 14.2 82.3 15.1 83.1 16.2Z" fill="#888888"/>
<path d="M83.1 17.6001C82.7 17.6001 82.2 17.4001 81.9 17.0001C81.1 16.1001 80.2 15.2001 79.1 14.4001C78.4 13.9001 78.2 13.0001 78.7 12.3001C79.2 11.6001 80.1 11.4001 80.8 11.9001C82.1 12.8001 83.3 13.9001 84.2 15.0001C84.7 15.6001 84.6 16.6001 84 17.1001C83.8 17.5001 83.5 17.6001 83.1 17.6001Z" fill="#FFC600"/>
<path d="M17.5 17.1C18.4 15.7 19.7 14.4 21.2 13.3Z" fill="#888888"/>
<path d="M17.5 18.6C17.2 18.6 16.9 18.5 16.7 18.4C16 17.9 15.8 17 16.3 16.3C17.3 14.7 18.7 13.3 20.4 12.1C21.1 11.6 22 11.8 22.5 12.5C23 13.2 22.8 14.1 22.1 14.6C20.7 15.6 19.6 16.7 18.8 18C18.5 18.4 18 18.6 17.5 18.6Z" fill="#FFC600"/>
<path d="M50.2999 47.1001C43.7999 47.1001 27.1 48.6001 16.2 54.5001C19.9 75.0001 21.1 85.1001 21.1 85.1001C21.1 85.1001 27.5 82.6001 50.2999 82.6001C73.0999 82.6001 79.5999 85.1001 79.5999 85.1001C79.5999 85.1001 79.5999 75.0001 83.3999 54.5001C72.4999 48.6001 57.5999 47.1001 50.2999 47.1001Z" fill="black" stroke="black" stroke-width="0.5" stroke-miterlimit="10"/>
<path d="M19.6 125.6L14.1 123.3V70.1001H15.3L19.1 91.3001L19.6 125.6Z" fill="black" stroke="black" stroke-width="0.5" stroke-miterlimit="10"/>
<path d="M19.6 128.8L14.1 127.3V170.1L19.6 158.1V128.8Z" fill="black" stroke="black" stroke-width="0.5" stroke-miterlimit="10"/>
<path d="M50.8 188.4C65.9 188.1 79.1 183.7 79.1 183.7C79.1 183.7 76.7 177.9 74.6 172.7C68.7 175.3 57.8 176.2 50.1 176.2C41 176.2 32.3 175.1 25.5 172.5C24.2 175.3 21.1 183.6 21.1 183.6C21.1 183.6 34.3 188 49.4 188.3C49.6 188.3 49.8 188.3 50.1 188.3C50.4 188.4 50.6 188.4 50.8 188.4Z" fill="black" stroke="black" stroke-width="0.5" stroke-miterlimit="10"/>
<path d="M80.7 125.6L86.2 123.3V70.1001H85L81.2 91.3001L80.7 125.6Z" fill="black" stroke="black" stroke-width="0.5" stroke-miterlimit="10"/>
<path d="M80.7 128.8L86.2 127.3V170.1L80.7 158.1V128.8Z" fill="black" stroke="black" stroke-width="0.5" stroke-miterlimit="10"/>
<path d="M14.5 186.1C14.5 186.1 20.1 176.9 24.4 170C27.9 171.6 35.3 174.1 47.7 174.4C47.7 174.4 52 174.4 52.9 174.4C65.2 174 72.6 171.5 76 169.9C81.7 180.4 85.9 186.7 85.9 186.7" stroke="black" stroke-width="0.5" stroke-miterlimit="10"/>
<path d="M29.1 191C21.9 189.8 18.4 188.1 16.6 186.7C17 185.4 17.8 183.8 17.8 183.8C17.8 183.8 17.8 183.8 17.7 183.7C17.7 183.7 19.4 186.3 29.5 188L29.1 191Z" fill="url(#paint0_radial_1_1078)"/>
<path d="M62.5 190.6C58.9 191 55.3 191.2 50.3 191.4H48.7C43.6 191.3 40.1 191.1 36.5 190.8" stroke="black" stroke-width="3" stroke-miterlimit="10"/>
<path d="M70.7 190.8L70.2 187.8C80 186 81.9 183.5 81.9 183.4C81.9 183.4 82.9 185 83.3 186.1C81.7 187.5 78.2 189.4 70.7 190.8Z" fill="url(#paint1_radial_1_1078)"/>
<path d="M31.2 6.90005L30.6 4.00005C36.2 2.90005 42.9 2.30005 51 2.30005C58.1 2.30005 64 2.80005 69.1 3.70005L68.5 6.60005C63.7 5.80005 58 5.30005 51.1 5.30005C43.1 5.30005 36.6 5.80005 31.2 6.90005Z" fill="black"/>
<path d="M31.4 16.1001L30.4 27.6001C30.4 27.6001 27.4 39.6001 21.9 43.1001" stroke="black" stroke-miterlimit="10"/>
<path d="M67.9 16.1001L68.9 27.6001C68.9 27.6001 71.9 39.6001 77.4 43.1001" stroke="black" stroke-miterlimit="10"/>
<path d="M14.1 67.8L13.9 65C13.9 65 12.1 62 7.90002 62C3.70002 62 1.70002 65.5 1.40002 67.5C2.60002 67.7 9.90002 67 9.90002 67C9.90002 67 10.1 64 11.4 65.5C12.7 67 14.1 67.8 14.1 67.8Z" fill="#822BFA" stroke="black" stroke-width="0.5"/>
<path d="M86.1 67.8L86.3 65C86.3 65 88.1 62 92.3 62C96.5 62 98.5 65.5 98.8 67.5C97.6 67.7 90.3 67 90.3 67C90.3 67 90.1 64 88.8 65.5C87.5 67 86.1 67.8 86.1 67.8Z" fill="#822BFA" stroke="black" stroke-width="0.5"/>
<path d="M69.4 9.09985C74.1 10.0999 77.6 11.5999 80 13.2999Z" fill="#888888"/>
<path d="M80 14.8C79.7 14.8 79.4 14.7 79.1 14.5C76.6 12.8 73.3 11.5 69 10.6C69.1 10.1 69.5 8.29995 69.6 7.69995C74.2 8.69995 78 10.2 80.7 12.1C81.4 12.6 81.6 13.5 81.1 14.2C81 14.5 80.5 14.8 80 14.8Z" fill="white"/>
<path d="M21.3 13.4001C23.8 11.6001 27.1 10.3001 31.4 9.40015Z" fill="#888888"/>
<path d="M21.3 14.9001C20.8 14.9001 20.4 14.7001 20.1 14.3001C19.6 13.6001 19.8 12.7001 20.5 12.2001C23.2 10.4001 26.6 9.00015 31.1 7.90015C31.3 8.60015 31.6 10.1001 31.8 10.8001C27.7 11.7001 24.6 13.0001 22.2 14.6001C21.9 14.8001 21.6 14.9001 21.3 14.9001Z" fill="white"/>
<defs>
<radialGradient id="paint0_radial_1_1078" cx="0" cy="0" r="1" gradientUnits="userSpaceOnUse" gradientTransform="translate(23.1009 187.392) scale(5.2557 5.2557)">
<stop stop-color="#FF0A30"/>
<stop offset="1" stop-color="#C70200"/>
</radialGradient>
<radialGradient id="paint1_radial_1_1078" cx="0" cy="0" r="1" gradientUnits="userSpaceOnUse" gradientTransform="translate(76.6311 187.11) rotate(179.295) scale(5.30407 5.30408)">
<stop stop-color="#FF0A30"/>
<stop offset="1" stop-color="#C70200"/>
</radialGradient>
</defs>
</svg>
