<svg width="101" height="194" viewBox="0 0 101 194" fill="none" xmlns="http://www.w3.org/2000/svg">
<path d="M51.5 2.59961C70 2.59961 92 5.69961 92 26.7996C92 48.6996 92 157.8 92 169C92 180.2 86.9 192.3 72 192.3C49.2 192.3 45 192.3 30.5 192.3C16 192.3 9.09998 182 9.09998 169.4C9.09998 150.8 9.09998 43.9996 9.09998 27.1996C9.09998 6.79961 28.6 2.59961 51.5 2.59961Z" fill="#FFAC42" stroke="black" stroke-width="0.5"/>
<path d="M80.4 13.2998C81.7 14.1998 82.7 15.0998 83.5 16.1998Z" fill="#888888"/>
<path d="M83.5 17.5998C83.1 17.5998 82.6 17.3998 82.3 16.9998C81.5 16.0998 80.6 15.1998 79.5 14.3998C78.8 13.8998 78.6 12.9998 79.1 12.2998C79.6 11.5998 80.5 11.3998 81.2 11.8998C82.5 12.7998 83.7 13.8998 84.6 14.9998C85.1 15.5998 85 16.5998 84.4 17.0998C84.2 17.4998 83.9 17.5998 83.5 17.5998Z" fill="#FFC600"/>
<path d="M17.9 17.0998C18.8 15.6998 20.1 14.3998 21.6 13.2998Z" fill="#888888"/>
<path d="M17.9 18.6C17.6 18.6 17.3 18.5 17.1 18.4C16.4 17.9 16.2 17 16.7 16.3C17.7 14.7 19.1 13.3 20.8 12.1C21.5 11.6 22.4 11.8 22.9 12.5C23.4 13.2 23.2 14.1 22.5 14.6C21.1 15.6 20 16.7 19.2 18C18.9 18.4 18.4 18.6 17.9 18.6Z" fill="#FFC600"/>
<path d="M50.7 47.0996C44.2 47.0996 27.5 48.5996 16.6 54.4996C20.3 74.9996 21.5 85.0996 21.5 85.0996C21.5 85.0996 27.9 82.5996 50.7 82.5996C73.5 82.5996 80 85.0996 80 85.0996C80 85.0996 80 74.9996 83.8 54.4996C72.9 48.5996 58 47.0996 50.7 47.0996Z" fill="black" stroke="black" stroke-width="0.5" stroke-miterlimit="10"/>
<path d="M20 125.6L14.5 123.3V70.0996H15.7L19.5 91.2996L20 125.6Z" fill="black" stroke="black" stroke-width="0.5" stroke-miterlimit="10"/>
<path d="M20 128.8L14.5 127.3V170.1L20 158.1V128.8Z" fill="black" stroke="black" stroke-width="0.5" stroke-miterlimit="10"/>
<path d="M51.2 188.4C66.3 188.1 79.5 183.7 79.5 183.7C79.5 183.7 77.1 177.9 75 172.7C69.1 175.3 58.2 176.2 50.5 176.2C41.4 176.2 32.7 175.1 25.9 172.5C24.6 175.3 21.5 183.6 21.5 183.6C21.5 183.6 34.7 188 49.8 188.3C50 188.3 50.2 188.3 50.5 188.3C50.8 188.4 51 188.4 51.2 188.4Z" fill="black" stroke="black" stroke-width="0.5" stroke-miterlimit="10"/>
<path d="M81.1 125.6L86.6 123.3V70.0996H85.4L81.6 91.2996L81.1 125.6Z" fill="black" stroke="black" stroke-width="0.5" stroke-miterlimit="10"/>
<path d="M81.1 128.8L86.6 127.3V170.1L81.1 158.1V128.8Z" fill="black" stroke="black" stroke-width="0.5" stroke-miterlimit="10"/>
<path d="M14.8999 186.1C14.8999 186.1 20.4999 176.9 24.7999 170C28.2999 171.6 35.6999 174.1 48.0999 174.4C48.0999 174.4 52.3999 174.4 53.2999 174.4C65.5999 174 72.9999 171.5 76.3999 169.9C82.0999 180.4 86.2999 186.7 86.2999 186.7" stroke="black" stroke-width="0.5" stroke-miterlimit="10"/>
<path d="M29.5 191C22.3 189.8 18.8 188.1 17 186.7C17.4 185.4 18.2 183.8 18.2 183.8C18.2 183.8 18.2 183.8 18.1 183.7C18.1 183.7 19.8 186.3 29.9 188L29.5 191Z" fill="url(#paint0_radial_1_930)"/>
<path d="M62.9 190.6C59.3 191 55.7 191.2 50.7 191.4H49.1C44 191.3 40.5 191.1 36.9 190.8" stroke="black" stroke-width="3" stroke-miterlimit="10"/>
<path d="M71.1 190.8L70.6 187.8C80.4 186 82.3 183.5 82.3 183.4C82.3 183.4 83.3 185 83.7 186.1C82.1 187.5 78.6 189.4 71.1 190.8Z" fill="url(#paint1_radial_1_930)"/>
<path d="M31.6 6.89981L31 3.9998C36.6 2.8998 43.3 2.2998 51.4 2.2998C58.5 2.2998 64.4 2.7998 69.5 3.6998L69 6.6998C64.1 5.7998 58.4 5.2998 51.5 5.2998C43.5 5.2998 37 5.79981 31.6 6.89981Z" fill="black"/>
<path d="M31.7999 16.0996L30.7999 27.5996C30.7999 27.5996 27.7999 39.5996 22.2999 43.0996" stroke="black" stroke-miterlimit="10" stroke-linecap="round"/>
<path d="M68.2999 16.0996L69.2999 27.5996C69.2999 27.5996 72.2999 39.5996 77.7999 43.0996" stroke="black" stroke-miterlimit="10" stroke-linecap="round"/>
<path d="M14.5 67.8L14.3 65C14.3 65 12.5 62 8.29995 62C4.09995 62 1.99995 65.6 1.69995 67.6C2.89995 67.8 10.2 67.1 10.2 67.1C10.2 67.1 10.4 64.1 11.7 65.6C13 67.1 14.5 67.8 14.5 67.8Z" fill="#FFAC42" stroke="black" stroke-width="0.5"/>
<path d="M86.5 67.8L86.7 65C86.7 65 88.5 62 92.7 62C96.9 62 98.9 65.5 99.2 67.5C98 67.7 90.7 67 90.7 67C90.7 67 90.5 64 89.2 65.5C87.9 67 86.5 67.8 86.5 67.8Z" fill="#FFAC42" stroke="black" stroke-width="0.5"/>
<path d="M69.7999 9.09961C74.4999 10.0996 77.9999 11.5996 80.3999 13.2996Z" fill="#888888"/>
<path d="M80.3999 14.7997C80.0999 14.7997 79.7999 14.6997 79.4999 14.4997C76.9999 12.7997 73.6999 11.4997 69.3999 10.5997C69.4999 10.0997 69.8999 8.29971 69.9999 7.69971C74.5999 8.69971 78.3999 10.1997 81.0999 12.0997C81.7999 12.5997 81.9999 13.4997 81.4999 14.1997C81.2999 14.4997 80.8999 14.7997 80.3999 14.7997Z" fill="white"/>
<path d="M21.7 13.3999C24.2 11.5999 27.4999 10.2999 31.7999 9.3999Z" fill="#888888"/>
<path d="M21.6999 14.8999C21.1999 14.8999 20.7999 14.6999 20.4999 14.2999C19.9999 13.5999 20.1999 12.6999 20.8999 12.1999C23.5999 10.3999 26.9999 8.9999 31.4999 7.8999C31.6999 8.5999 31.9999 10.0999 32.1999 10.7999C28.0999 11.6999 24.9999 12.9999 22.5999 14.5999C22.2999 14.7999 21.9999 14.8999 21.6999 14.8999Z" fill="white"/>
<defs>
<radialGradient id="paint0_radial_1_930" cx="0" cy="0" r="1" gradientUnits="userSpaceOnUse" gradientTransform="translate(23.4917 187.391) scale(5.2557 5.2557)">
<stop stop-color="#FF0A30"/>
<stop offset="1" stop-color="#C70200"/>
</radialGradient>
<radialGradient id="paint1_radial_1_930" cx="0" cy="0" r="1" gradientUnits="userSpaceOnUse" gradientTransform="translate(77.0776 187.11) rotate(179.295) scale(5.30407 5.30408)">
<stop stop-color="#FF0A30"/>
<stop offset="1" stop-color="#C70200"/>
</radialGradient>
</defs>
</svg>
