<svg width="101" height="194" viewBox="0 0 101 194" fill="none" xmlns="http://www.w3.org/2000/svg">
<path d="M50.7 2.59961C69.2 2.59961 91.3 5.79961 91.3 26.7996C91.3 48.6996 91.3 157.8 91.3 169C91.3 180.2 86.2 192.3 71.3 192.3C48.5 192.3 44.2999 192.3 29.7999 192.3C15.2999 192.3 8.19995 182 8.19995 169.4C8.19995 150.8 8.19995 43.9996 8.19995 27.1996C8.19995 6.79961 27.8 2.59961 50.7 2.59961Z" fill="#888888" stroke="black" stroke-width="0.5"/>
<path d="M79.6 13.2998C80.9 14.1998 81.9 15.0998 82.7 16.1998Z" fill="#888888"/>
<path d="M82.7 17.5998C82.3 17.5998 81.8 17.3998 81.5 16.9998C80.7 16.0998 79.8 15.1998 78.7 14.3998C78 13.8998 77.8 12.9998 78.3 12.2998C78.8 11.5998 79.7 11.3998 80.4 11.8998C81.7 12.7998 82.9 13.8998 83.8 14.9998C84.3 15.5998 84.2 16.5998 83.6 17.0998C83.4 17.4998 83 17.5998 82.7 17.5998Z" fill="#FFC600"/>
<path d="M17.1001 17.0998C18.0001 15.6998 19.3001 14.3998 20.8001 13.2998Z" fill="#888888"/>
<path d="M17.1001 18.6C16.8001 18.6 16.5001 18.5 16.3001 18.4C15.6001 17.9 15.4001 17 15.9001 16.3C16.9001 14.7 18.3001 13.3 20.0001 12.1C20.7001 11.6 21.6001 11.8 22.1001 12.5C22.6001 13.2 22.4001 14.1 21.7001 14.6C20.3001 15.6 19.2001 16.7 18.4001 18C18.1001 18.4 17.6001 18.6 17.1001 18.6Z" fill="#FFC600"/>
<path d="M49.8999 47.0996C43.3999 47.0996 26.6999 48.5996 15.7999 54.4996C19.4999 74.9996 20.6999 85.0996 20.6999 85.0996C20.6999 85.0996 27.0999 82.5996 49.8999 82.5996C72.6999 82.5996 79.1999 85.0996 79.1999 85.0996C79.1999 85.0996 79.1999 74.9996 82.9999 54.4996C71.9999 48.5996 57.1999 47.0996 49.8999 47.0996Z" fill="black" stroke="black" stroke-width="0.5" stroke-miterlimit="10"/>
<path d="M19.1 125.6L13.6 123.3V70.0996H14.9L18.6 91.2996L19.1 125.6Z" fill="black" stroke="black" stroke-width="0.5" stroke-miterlimit="10"/>
<path d="M19.1 128.8L13.6 127.3V170.1L19.1 158.1V128.8Z" fill="black" stroke="black" stroke-width="0.5" stroke-miterlimit="10"/>
<path d="M50.4 188.4C65.5 188.1 78.6999 183.7 78.6999 183.7C78.6999 183.7 76.2999 177.9 74.1999 172.7C68.2999 175.3 57.4 176.2 49.7 176.2C40.6 176.2 31.9 175.1 25.1 172.5C23.8 175.3 20.7 183.6 20.7 183.6C20.7 183.6 33.9 188 49 188.3C49.2 188.3 49.4 188.3 49.7 188.3C49.9 188.4 50.2 188.4 50.4 188.4Z" fill="black" stroke="black" stroke-width="0.5" stroke-miterlimit="10"/>
<path d="M80.2999 125.6L85.7999 123.3V70.0996H84.5999L80.7999 91.2996L80.2999 125.6Z" fill="black" stroke="black" stroke-width="0.5" stroke-miterlimit="10"/>
<path d="M80.2999 128.8L85.7999 127.3V170.1L80.2999 158.1V128.8Z" fill="black" stroke="black" stroke-width="0.5" stroke-miterlimit="10"/>
<path d="M14.1 186.1C14.1 186.1 19.7 176.9 24 170C27.5 171.6 34.9 174.1 47.3 174.4C47.3 174.4 51.6 174.4 52.5 174.4C64.8 174 72.2 171.5 75.6 169.9C81.3 180.4 85.5 186.7 85.5 186.7" stroke="black" stroke-width="0.5" stroke-miterlimit="10"/>
<path d="M28.7 191C21.5 189.8 18 188.1 16.2 186.7C16.6 185.4 17.4 183.8 17.4 183.8C17.4 183.8 17.3999 183.8 17.2999 183.7C17.2999 183.7 19 186.3 29.1 188L28.7 191Z" fill="url(#paint0_radial_1_1274)"/>
<path d="M62.1 190.6C58.5 191 54.9 191.2 49.9 191.4H48.3C43.2 191.3 39.7 191.1 36.1 190.8" stroke="black" stroke-width="3" stroke-miterlimit="10"/>
<path d="M70.2 190.8L69.7 187.8C79.5 186 81.4 183.5 81.4 183.4C81.4 183.4 82.4 185 82.8 186.1C81.2 187.5 77.7 189.4 70.2 190.8Z" fill="url(#paint1_radial_1_1274)"/>
<path d="M30.7999 6.89981L30.2 3.9998C35.8 2.8998 42.4999 2.2998 50.5999 2.2998C57.6999 2.2998 63.5999 2.7998 68.6999 3.6998L68.0999 6.5998C63.1999 5.6998 57.4999 5.1998 50.5999 5.1998C42.5999 5.2998 36.1999 5.79981 30.7999 6.89981Z" fill="black"/>
<path d="M31 16.0996L30 27.5996C30 27.5996 27 39.5996 21.5 43.0996" stroke="black" stroke-miterlimit="10"/>
<path d="M67.4 16.0996L68.4 27.5996C68.4 27.5996 71.4 39.5996 76.9 43.0996" stroke="black" stroke-miterlimit="10"/>
<path d="M13.7 67.8L13.5 65C13.5 65 11.7 62 7.5 62C3.3 62 1.3 65.5 1 67.5C2.2 67.7 9.5 67 9.5 67C9.5 67 9.7 64 11 65.5C12.3 67 13.7 67.8 13.7 67.8Z" fill="#888888" stroke="black" stroke-width="0.5"/>
<path d="M85.7 67.8L85.9 65C85.9 65 87.7 62 91.9 62C96.1 62 98.1 65.5 98.4 67.5C97.2 67.7 89.9 67 89.9 67C89.9 67 89.7 64 88.4 65.5C87.1 67 85.7 67.8 85.7 67.8Z" fill="#888888" stroke="black" stroke-width="0.5"/>
<path d="M69 9.09961C73.7 10.0996 77.2 11.5996 79.6 13.2996Z" fill="#888888"/>
<path d="M79.6 14.7997C79.3 14.7997 79 14.6997 78.7 14.4997C76.2 12.7997 72.9 11.4997 68.6 10.5997C68.7 10.0997 69.1 8.29971 69.2 7.69971C73.8 8.69971 77.6 10.1997 80.3 12.0997C81 12.5997 81.2 13.4997 80.7 14.1997C80.5 14.4997 80.1 14.7997 79.6 14.7997Z" fill="white"/>
<path d="M20.9 13.3999C23.4 11.5999 26.7 10.2999 31 9.3999Z" fill="#888888"/>
<path d="M20.9 14.8999C20.4 14.8999 20 14.6999 19.7 14.2999C19.2 13.5999 19.4 12.6999 20.1 12.1999C22.8 10.3999 26.2 8.9999 30.7 7.8999C30.9 8.5999 31.2 10.0999 31.4 10.7999C27.3 11.6999 24.2 12.9999 21.8 14.5999C21.5 14.7999 21.2 14.8999 20.9 14.8999Z" fill="white"/>
<defs>
<radialGradient id="paint0_radial_1_1274" cx="0" cy="0" r="1" gradientUnits="userSpaceOnUse" gradientTransform="translate(22.6745 187.391) scale(5.2557 5.2557)">
<stop stop-color="#FF0A30"/>
<stop offset="1" stop-color="#C70200"/>
</radialGradient>
<radialGradient id="paint1_radial_1_1274" cx="0" cy="0" r="1" gradientUnits="userSpaceOnUse" gradientTransform="translate(76.225 187.109) rotate(179.295) scale(5.30407 5.30408)">
<stop stop-color="#FF0A30"/>
<stop offset="1" stop-color="#C70200"/>
</radialGradient>
</defs>
</svg>
