<svg width="101" height="195" viewBox="0 0 101 195" fill="none" xmlns="http://www.w3.org/2000/svg">
<path d="M51.1001 2C69.6001 2 91.7001 5.2 91.7001 26.2C91.7001 48.1 91.7001 157.2 91.7001 168.4C91.7001 179.6 86.6001 191.7 71.7001 191.7C48.9001 191.7 44.7001 191.7 30.2001 191.7C15.7001 191.7 8.70007 181.4 8.70007 168.9C8.70007 150.3 8.70007 43.5 8.70007 26.7C8.70007 6.2 28.3001 2 51.1001 2Z" fill="#E4856E" stroke="black" stroke-miterlimit="10"/>
<path d="M80.1 12.7002C81.4 13.6002 82.4 14.5002 83.2 15.6002Z" fill="#888888"/>
<path d="M83.2 17.0002C82.8 17.0002 82.3 16.8002 82 16.4002C81.2 15.5002 80.3 14.6002 79.2 13.8002C78.5 13.3002 78.3 12.4002 78.8 11.7002C79.3 11.0002 80.2 10.8002 80.9 11.3002C82.2 12.2002 83.4 13.3002 84.3 14.4002C84.8 15.0002 84.7 16.0002 84.1 16.5002C83.9 16.9002 83.5 17.0002 83.2 17.0002Z" fill="#FFC600"/>
<path d="M17.6001 16.5998C18.5001 15.1998 19.8001 13.8998 21.3001 12.7998Z" fill="#888888"/>
<path d="M17.6001 18.1C17.3001 18.1 17.0001 18 16.8001 17.9C16.1001 17.4 15.9001 16.5 16.4001 15.8C17.4001 14.2 18.8001 12.8 20.5001 11.6C21.2001 11.1 22.1001 11.3 22.6001 12C23.1001 12.7 22.9001 13.6 22.2001 14.1C20.8001 15.1 19.7001 16.2 18.9001 17.5C18.6001 17.8 18.1001 18.1 17.6001 18.1Z" fill="#FFC600"/>
<path d="M50.2999 46.5C43.7999 46.5 27.1 48 16.2 53.9C20 74.5 21.2 84.5 21.2 84.5C21.2 84.5 27.6 82 50.4 82C73.2 82 79.5999 84.5 79.5999 84.5C79.5999 84.5 79.6 74.4 83.4 53.9C72.5 48 57.6999 46.5 50.2999 46.5Z" fill="black" stroke="black" stroke-width="0.5" stroke-miterlimit="10"/>
<path d="M19.6 125L14.1 122.7V69.5H15.4L19.1 90.7L19.6 125Z" fill="black" stroke="black" stroke-width="0.5" stroke-miterlimit="10"/>
<path d="M19.6 128.2L14.1 126.7V169.5L19.6 157.5V128.2Z" fill="black" stroke="black" stroke-width="0.5" stroke-miterlimit="10"/>
<path d="M50.9 187.8C66 187.5 79.1999 183.1 79.1999 183.1C79.1999 183.1 76.7999 177.3 74.6999 172.1C68.7999 174.7 57.9 175.6 50.2 175.6C41.1 175.6 32.4 174.5 25.6 171.9C24.3 174.7 21.2 183 21.2 183C21.2 183 34.4 187.4 49.5 187.7C49.7 187.7 49.9 187.7 50.2 187.7C50.4 187.8 50.7 187.8 50.9 187.8Z" fill="black" stroke="black" stroke-width="0.5" stroke-miterlimit="10"/>
<path d="M80.7999 125L86.2999 122.7V69.5H84.9999L81.2999 90.7L80.7999 125Z" fill="black" stroke="black" stroke-width="0.5" stroke-miterlimit="10"/>
<path d="M80.7999 128.2L86.2999 126.7V169.5L80.7999 157.5V128.2Z" fill="black" stroke="black" stroke-width="0.5" stroke-miterlimit="10"/>
<path d="M14.6 185.5C14.6 185.5 20.2 176.3 24.5 169.4C28 171 35.4 173.5 47.8 173.8C47.8 173.8 52.1 173.8 53 173.8C65.3 173.4 72.7 170.9 76.1 169.3C81.8 179.8 86 186.1 86 186.1" stroke="black" stroke-width="0.5" stroke-miterlimit="10"/>
<path d="M29.1 190.4C21.9 189.2 18.4 187.5 16.6 186.1C17 184.8 17.8 183.2 17.8 183.2C17.8 183.2 17.8 183.2 17.7 183.1C17.7 183.1 19.4 185.7 29.5 187.4L29.1 190.4Z" fill="url(#paint0_radial_1_440)"/>
<path d="M62.6 190C59 190.4 55.4 190.6 50.4 190.8H48.8C43.7 190.7 40.2 190.5 36.6 190.2" stroke="black" stroke-width="3" stroke-miterlimit="10"/>
<path d="M70.7 190.2L70.2 187.2C80 185.4 81.9 182.9 81.9 182.8C81.9 182.8 82.9 184.4 83.3 185.5C81.7 187 78.2 188.8 70.7 190.2Z" fill="url(#paint1_radial_1_440)"/>
<path d="M31.3001 6.3002L30.7001 3.4002C36.3001 2.3002 43.0001 1.7002 51.1001 1.7002C58.2001 1.7002 64.1001 2.2002 69.2001 3.1002L68.6001 6.0002C63.7001 5.1002 58.0001 4.6002 51.1001 4.6002C43.1001 4.7002 36.6001 5.2002 31.3001 6.3002Z" fill="black"/>
<path d="M31.5 15.5L30.5 27C30.5 27 27.5 39 22 42.5" stroke="black" stroke-miterlimit="10" stroke-linecap="round"/>
<path d="M67.9 15.5L68.9 27C68.9 27 71.9 39 77.4 42.5" stroke="black" stroke-miterlimit="10" stroke-linecap="round"/>
<path d="M14.1 67.2L13.9 64.5C13.9 64.5 12.1 61.5 7.90002 61.5C3.70002 61.5 1.70002 65 1.40002 67C2.60002 67.2 9.90002 66.5 9.90002 66.5C9.90002 66.5 10.1 63.5 11.4 65C12.7 66.5 14.1 67.2 14.1 67.2Z" fill="#E4856E" stroke="black" stroke-width="0.5" stroke-miterlimit="10"/>
<path d="M86.1 67.2004L86.3 64.4004C86.3 64.4004 88.1 61.4004 92.3 61.4004C96.5 61.4004 98.5 64.9004 98.8 66.9004C97.6 67.1004 90.3 66.4004 90.3 66.4004C90.3 66.4004 90.1 63.4004 88.8 64.9004C87.5 66.4004 86.1 67.2004 86.1 67.2004Z" fill="#E4856E" stroke="black" stroke-width="0.5" stroke-miterlimit="10"/>
<path d="M69.5 8.5C74.2 9.5 77.7 11 80.1 12.7Z" fill="#888888"/>
<path d="M80.1 14.2001C79.8 14.2001 79.5 14.1001 79.2 13.9001C76.7 12.2001 73.4 10.9001 69.1 10.0001C69.2 9.5001 69.6 7.7001 69.7 7.1001C74.3 8.1001 78.1 9.6001 80.8 11.5001C81.5 12.0001 81.7 12.9001 81.2 13.6001C81 14.0001 80.6 14.2001 80.1 14.2001Z" fill="white"/>
<path d="M21.4 12.8003C23.9 11.0003 27.2 9.70029 31.5 8.80029Z" fill="#888888"/>
<path d="M21.4 14.3003C20.9 14.3003 20.5 14.1003 20.2 13.7003C19.7 13.0003 19.9 12.1003 20.6 11.6003C23.3 9.80029 26.7 8.40029 31.2 7.30029C31.4 8.00029 31.7 9.50029 31.9 10.2003C27.8 11.1003 24.7 12.4003 22.3 14.0003C21.9 14.2003 21.6 14.3003 21.4 14.3003Z" fill="white"/>
<defs>
<radialGradient id="paint0_radial_1_440" cx="0" cy="0" r="1" gradientUnits="userSpaceOnUse" gradientTransform="translate(23.1677 186.808) scale(5.2557 5.25569)">
<stop stop-color="#FF0A30"/>
<stop offset="1" stop-color="#C70200"/>
</radialGradient>
<radialGradient id="paint1_radial_1_440" cx="0" cy="0" r="1" gradientUnits="userSpaceOnUse" gradientTransform="translate(76.7401 186.527) rotate(179.295) scale(5.30407 5.30407)">
<stop stop-color="#FF0A30"/>
<stop offset="1" stop-color="#C70200"/>
</radialGradient>
</defs>
</svg>
