<svg width="101" height="195" viewBox="0 0 101 195" fill="none" xmlns="http://www.w3.org/2000/svg">
<path d="M51.4 1.5C69.9 1.5 92 4.7 92 25.7C92 47.6 92 156.7 92 167.9C92 179.1 86.9 191.2 72 191.2C49.2 191.2 45 191.2 30.5 191.2C16 191.2 8.90002 180.9 8.90002 168.4C8.90002 149.8 8.90002 43 8.90002 26.2C8.90002 5.7 28.5 1.5 51.4 1.5Z" fill="#7D7D7D" stroke="black" stroke-miterlimit="10"/>
<path d="M80.2999 12.2C81.5999 13.1 82.5999 14 83.3999 15.1Z" fill="#888888"/>
<path d="M83.3999 16.5C82.9999 16.5 82.4999 16.3 82.1999 15.9C81.3999 15 80.4999 14.1 79.3999 13.3C78.6999 12.8 78.4999 11.9 78.9999 11.2C79.4999 10.5 80.3999 10.3 81.0999 10.8C82.3999 11.7 83.5999 12.8 84.4999 13.9C84.9999 14.5 84.8999 15.5 84.2999 16C84.0999 16.4 83.7999 16.5 83.3999 16.5Z" fill="#FFE700"/>
<path d="M17.8 16.1C18.7 14.7 20 13.4 21.5 12.3Z" fill="#888888"/>
<path d="M17.8 17.6C17.5 17.6 17.2 17.5 17 17.4C16.3 16.9 16.1 16 16.6 15.3C17.6 13.7 19 12.3 20.7 11.1C21.4 10.6 22.3 10.8 22.8 11.5C23.3 12.2 23.1 13.1 22.4 13.6C21 14.6 19.9 15.7 19.1 17C18.8 17.3 18.3 17.6 17.8 17.6Z" fill="#FFE700"/>
<path d="M50.5999 46C44.0999 46 27.2999 47.5 16.4999 53.5C20.1999 74 21.3999 84.1 21.3999 84.1C21.3999 84.1 27.7999 81.6 50.5999 81.6C73.3999 81.6 79.8999 84.1 79.8999 84.1C79.8999 84.1 79.8999 74 83.6999 53.5C72.7999 47.5 57.8999 46 50.5999 46Z" fill="black" stroke="black" stroke-width="0.5" stroke-miterlimit="10"/>
<path d="M19.7999 124.5L14.2999 122.2V69H15.5999L19.2999 90.2L19.7999 124.5Z" fill="black" stroke="black" stroke-width="0.5" stroke-miterlimit="10"/>
<path d="M19.7999 127.7L14.2999 126.2V169L19.7999 157V127.7Z" fill="black" stroke="black" stroke-width="0.5" stroke-miterlimit="10"/>
<path d="M51.0999 187.3C66.1999 187 79.3999 182.6 79.3999 182.6C79.3999 182.6 76.9999 176.8 74.8999 171.6C68.9999 174.2 58.0999 175.1 50.3999 175.1C41.2999 175.1 32.5999 174 25.7999 171.4C24.4999 174.2 21.3999 182.5 21.3999 182.5C21.3999 182.5 34.5999 186.9 49.6999 187.2C49.8999 187.2 50.0999 187.2 50.3999 187.2C50.5999 187.3 50.8999 187.3 51.0999 187.3Z" fill="black" stroke="black" stroke-width="0.5" stroke-miterlimit="10"/>
<path d="M80.9999 124.5L86.4999 122.2V69H85.2999L81.4999 90.2L80.9999 124.5Z" fill="black" stroke="black" stroke-width="0.5" stroke-miterlimit="10"/>
<path d="M80.9999 127.7L86.4999 126.2V169L80.9999 157V127.7Z" fill="black" stroke="black" stroke-width="0.5" stroke-miterlimit="10"/>
<path d="M14.7999 185C14.7999 185 20.3999 175.8 24.6999 168.9C28.1999 170.5 35.5999 173 47.9999 173.3C47.9999 173.3 52.2999 173.3 53.1999 173.3C65.4999 172.9 72.8999 170.4 76.2999 168.8C81.9999 179.3 86.1999 185.6 86.1999 185.6" stroke="black" stroke-width="0.5" stroke-miterlimit="10"/>
<path d="M29.4 189.9C22.2 188.7 18.7 187 16.9 185.6C17.3 184.3 18.1 182.7 18.1 182.7C18.1 182.7 18.1 182.7 18 182.6C18 182.6 19.7 185.2 29.8 186.9L29.4 189.9Z" fill="url(#paint0_radial_1_538)"/>
<path d="M62.8 189.5C59.2 189.9 55.6 190.1 50.6 190.3H49C43.9 190.2 40.4 190 36.8 189.7" stroke="black" stroke-width="3" stroke-miterlimit="10"/>
<path d="M71 189.7L70.5 186.7C80.3 184.9 82.2 182.4 82.2 182.3C82.2 182.3 83.2 183.9 83.6 185C81.9 186.5 78.4 188.3 71 189.7Z" fill="url(#paint1_radial_1_538)"/>
<path d="M31.5 5.79995L30.9 2.89995C36.5 1.79995 43.2 1.19995 51.3 1.19995C58.4 1.19995 64.3 1.69995 69.4 2.59995L68.8 5.49995C63.9 4.59995 58.2 4.09995 51.3 4.09995C43.4 4.19995 36.9 4.69995 31.5 5.79995Z" fill="black"/>
<path d="M31.7 15L30.7 26.5C30.7 26.5 27.7 38.5 22.2 42" stroke="black" stroke-miterlimit="10"/>
<path d="M68.2 15L69.2 26.5C69.2 26.5 72.2 38.5 77.7 42" stroke="black" stroke-miterlimit="10"/>
<path d="M14.4 66.6999L14.2 63.8999C14.2 63.8999 12.4 60.8999 8.19998 60.8999C3.99998 60.8999 1.89998 64.4999 1.59998 66.4999C2.79998 66.6999 10.1 65.9999 10.1 65.9999C10.1 65.9999 10.3 62.9999 11.6 64.4999C12.9 65.9999 14.4 66.6999 14.4 66.6999Z" fill="#7D7D7D" stroke="black" stroke-miterlimit="10"/>
<path d="M86.4 66.6999L86.6 63.8999C86.6 63.8999 88.4 60.8999 92.6 60.8999C96.8 60.8999 98.8 64.3999 99.1 66.3999C97.9 66.5999 90.6 65.8999 90.6 65.8999C90.6 65.8999 90.4 62.8999 89.1 64.3999C87.8 65.8999 86.4 66.6999 86.4 66.6999Z" fill="#7D7D7D" stroke="black" stroke-miterlimit="10"/>
<path d="M69.7 7.99976C74.4 8.99976 77.9 10.4998 80.3 12.1998Z" fill="#888888"/>
<path d="M80.2999 13.6999C79.9999 13.6999 79.6999 13.5999 79.3999 13.3999C76.8999 11.6999 73.5999 10.3999 69.2999 9.49985C69.3999 8.99985 69.7999 7.19985 69.8999 6.59985C74.4999 7.59985 78.2999 9.09985 80.9999 10.9999C81.6999 11.4999 81.8999 12.3999 81.3999 13.0999C81.1999 13.4999 80.7999 13.6999 80.2999 13.6999Z" fill="white"/>
<path d="M21.6 12.3C24.1 10.5 27.4 9.20005 31.7 8.30005Z" fill="#888888"/>
<path d="M21.5999 13.8C21.0999 13.8 20.6999 13.6 20.3999 13.2C19.8999 12.5 20.0999 11.6 20.7999 11.1C23.4999 9.30005 26.8999 7.90005 31.3999 6.80005C31.4999 7.50005 31.7999 9.00005 31.9999 9.70005C27.8999 10.6 24.7999 11.9 22.3999 13.5C22.1999 13.7 21.8999 13.8 21.5999 13.8Z" fill="white"/>
<defs>
<radialGradient id="paint0_radial_1_538" cx="0" cy="0" r="1" gradientUnits="userSpaceOnUse" gradientTransform="translate(23.3826 186.308) scale(5.2557 5.25569)">
<stop stop-color="#FF0A30"/>
<stop offset="1" stop-color="#C70200"/>
</radialGradient>
<radialGradient id="paint1_radial_1_538" cx="0" cy="0" r="1" gradientUnits="userSpaceOnUse" gradientTransform="translate(76.9489 186.026) rotate(179.295) scale(5.30407 5.30407)">
<stop stop-color="#FF0A30"/>
<stop offset="1" stop-color="#C70200"/>
</radialGradient>
</defs>
</svg>
