<svg width="101" height="195" viewBox="0 0 101 195" fill="none" xmlns="http://www.w3.org/2000/svg">
<path d="M51.7001 2C70.2001 2 92.3 5.2 92.3 26.2C92.3 48.1 92.3 157.2 92.3 168.4C92.3 179.6 87.2001 191.7 72.3001 191.7C49.5001 191.7 45.3 191.7 30.8 191.7C16.3 191.7 9.30005 181.4 9.30005 168.9C9.30005 150.3 9.30005 43.5 9.30005 26.7C9.30005 6.2 28.9001 2 51.7001 2Z" fill="#489355" stroke="black" stroke-miterlimit="10"/>
<path d="M80.6001 12.7C81.9001 13.6 82.9001 14.5 83.7001 15.6Z" fill="#888888"/>
<path d="M83.8001 17C83.4001 17 82.9001 16.8 82.6001 16.4C81.8001 15.5 80.9001 14.6 79.8001 13.8C79.1001 13.3 78.9001 12.4 79.4001 11.7C79.9001 11 80.8001 10.8 81.5001 11.3C82.8001 12.2 84.0001 13.3 84.9001 14.4C85.4001 15 85.3001 16 84.7001 16.5C84.4001 16.9 84.1001 17 83.8001 17Z" fill="#FFC600"/>
<path d="M18.2001 16.6C19.1001 15.2 20.4001 13.9 21.9001 12.8Z" fill="#888888"/>
<path d="M18.2 18.1C17.9 18.1 17.6 18 17.4 17.9C16.7 17.4 16.5 16.5 17 15.8C18 14.2 19.4 12.8 21.1 11.6C21.8 11.1 22.7 11.3 23.2 12C23.7 12.7 23.5 13.6 22.8 14.1C21.4 15.1 20.3 16.2 19.5 17.5C19.1 17.8 18.7 18.1 18.2 18.1Z" fill="#FFC600"/>
<path d="M50.8999 46.5C44.3999 46.5 27.6999 48 16.7999 53.9C20.5999 74.5 21.7999 84.5 21.7999 84.5C21.7999 84.5 28.1999 82 50.9999 82C73.7999 82 80.1999 84.5 80.1999 84.5C80.1999 84.5 80.1999 74.4 83.9999 53.9C73.0999 48 58.2999 46.5 50.8999 46.5Z" fill="black" stroke="black" stroke-width="0.5" stroke-miterlimit="10"/>
<path d="M20.2 125L14.7 122.7V69.5H16L19.7 90.7L20.2 125Z" fill="black" stroke="black" stroke-width="0.5" stroke-miterlimit="10"/>
<path d="M20.2 128.2L14.7 126.7V169.5L20.2 157.5V128.2Z" fill="black" stroke="black" stroke-width="0.5" stroke-miterlimit="10"/>
<path d="M51.4999 187.8C66.5999 187.5 79.7999 183.1 79.7999 183.1C79.7999 183.1 77.3999 177.3 75.2999 172.1C69.3999 174.7 58.4999 175.6 50.7999 175.6C41.6999 175.6 32.9999 174.5 26.1999 171.9C24.8999 174.7 21.7999 183 21.7999 183C21.7999 183 34.9999 187.4 50.0999 187.7C50.2999 187.7 50.4999 187.7 50.7999 187.7C50.9999 187.8 51.1999 187.8 51.4999 187.8Z" fill="black" stroke="black" stroke-width="0.5" stroke-miterlimit="10"/>
<path d="M81.3999 125L86.8999 122.7V69.5H85.5999L81.8999 90.7L81.3999 125Z" fill="black" stroke="black" stroke-width="0.5" stroke-miterlimit="10"/>
<path d="M81.3999 128.2L86.8999 126.7V169.5L81.3999 157.5V128.2Z" fill="black" stroke="black" stroke-width="0.5" stroke-miterlimit="10"/>
<path d="M15.1 185.5C15.1 185.5 20.7 176.3 25 169.4C28.5 171 35.9 173.5 48.3 173.8C48.3 173.8 52.6 173.8 53.5 173.8C65.8 173.4 73.2 170.9 76.6 169.3C82.3 179.8 86.5 186.1 86.5 186.1" stroke="black" stroke-width="0.5" stroke-miterlimit="10"/>
<path d="M29.7 190.4C22.5 189.2 19 187.5 17.2 186.1C17.6 184.8 18.4 183.2 18.4 183.2C18.4 183.2 18.3999 183.2 18.2999 183.1C18.2999 183.1 20 185.7 30.1 187.4L29.7 190.4Z" fill="url(#paint0_radial_1_342)"/>
<path d="M63.1 190C59.5 190.4 55.9 190.6 50.9 190.8H49.3C44.2 190.7 40.7 190.5 37.1 190.2" stroke="black" stroke-width="3" stroke-miterlimit="10"/>
<path d="M71.2999 190.2L70.7999 187.2C80.5999 185.4 82.4999 182.9 82.4999 182.8C82.4999 182.8 83.4999 184.4 83.8999 185.5C82.2999 187 78.7999 188.8 71.2999 190.2Z" fill="url(#paint1_radial_1_342)"/>
<path d="M31.9 6.29995L31.3 3.39995C36.8 2.29995 43.5001 1.69995 51.7001 1.69995C58.8001 1.69995 64.7001 2.19995 69.8001 3.09995L69.2 5.99995C64.3 5.09995 58.6001 4.59995 51.7001 4.59995C43.7001 4.69995 37.2 5.19995 31.9 6.29995Z" fill="black"/>
<path d="M32.1 15.5L31.1 27C31.1 27 28.1 39 22.6 42.5" stroke="black" stroke-miterlimit="10"/>
<path d="M68.5 15.5L69.5 27C69.5 27 72.5 39 78 42.5" stroke="black" stroke-miterlimit="10"/>
<path d="M14.7 67.2L14.5 64.5C14.5 64.5 12.7 61.5 8.5 61.5C4.3 61.5 2.3 65 2 67C3.2 67.2 10.5 66.5 10.5 66.5C10.5 66.5 10.7 63.5 12 65C13.3 66.5 14.7 67.2 14.7 67.2Z" fill="#489355" stroke="black" stroke-width="0.5" stroke-miterlimit="10"/>
<path d="M86.7 67.1999L86.9 64.3999C86.9 64.3999 88.7 61.3999 92.9 61.3999C97.1 61.3999 99.1 64.8999 99.4 66.8999C98.2 67.0999 90.9 66.3999 90.9 66.3999C90.9 66.3999 90.7 63.3999 89.4 64.8999C88.1 66.3999 86.7 67.1999 86.7 67.1999Z" fill="#489355" stroke="black" stroke-width="0.5" stroke-miterlimit="10"/>
<path d="M70 8.49976C74.7 9.49976 78.2 10.9998 80.6 12.6998Z" fill="#888888"/>
<path d="M80.6 14.1999C80.3 14.1999 80 14.0999 79.7 13.8999C77.2 12.1999 73.9 10.8999 69.6 9.99985C69.7 9.49985 70.1 7.69985 70.2 7.09985C74.8 8.09985 78.6 9.59985 81.3 11.4999C82 11.9999 82.2 12.8999 81.7 13.5999C81.6 13.9999 81.1 14.1999 80.6 14.1999Z" fill="white"/>
<path d="M21.9 12.8C24.4 11 27.7 9.70005 32 8.80005Z" fill="#888888"/>
<path d="M21.9 14.3C21.4 14.3 21 14.1 20.7 13.7C20.2 13 20.4 12.1 21.1 11.6C23.8 9.80005 27.2 8.40005 31.7 7.30005C31.9 8.00005 32.2 9.50005 32.4 10.2C28.3 11.1 25.2 12.4 22.8 14C22.5 14.2 22.2 14.3 21.9 14.3Z" fill="white"/>
<defs>
<radialGradient id="paint0_radial_1_342" cx="0" cy="0" r="1" gradientUnits="userSpaceOnUse" gradientTransform="translate(23.7386 186.808) scale(5.2557 5.25569)">
<stop stop-color="#FF0A30"/>
<stop offset="1" stop-color="#C70200"/>
</radialGradient>
<radialGradient id="paint1_radial_1_342" cx="0" cy="0" r="1" gradientUnits="userSpaceOnUse" gradientTransform="translate(77.2791 186.526) rotate(179.295) scale(5.30407 5.30407)">
<stop stop-color="#FF0A30"/>
<stop offset="1" stop-color="#C70200"/>
</radialGradient>
</defs>
</svg>
