<svg width="101" height="195" viewBox="0 0 101 195" fill="none" xmlns="http://www.w3.org/2000/svg">
<g clip-path="url(#clip0_1_501)">
<path d="M52.3 2C70.8 2 92.9 5.2 92.9 26.2C92.9 48.1 92.9 157.2 92.9 168.4C92.9 179.6 87.8 191.7 72.9 191.7C50.1 191.7 45.9 191.7 31.4 191.7C16.9 191.7 9.90002 181.4 9.90002 168.9C9.90002 150.3 9.90002 43.5 9.90002 26.7C9.90002 6.2 29.5 2 52.3 2Z" fill="#BD55A7" stroke="black" stroke-width="0.2646"/>
<path d="M81.2 12.7002C82.5 13.6002 83.5 14.5002 84.3 15.6002Z" fill="#888888"/>
<path d="M84.3999 17.0002C83.9999 17.0002 83.4999 16.8002 83.1999 16.4002C82.3999 15.5002 81.4999 14.6002 80.3999 13.8002C79.6999 13.3002 79.4999 12.4002 79.9999 11.7002C80.4999 11.0002 81.3999 10.8002 82.0999 11.3002C83.3999 12.2002 84.5999 13.3002 85.4999 14.4002C85.9999 15.0002 85.8999 16.0002 85.2999 16.5002C84.9999 16.9002 84.6999 17.0002 84.3999 17.0002Z" fill="#FFC600"/>
<path d="M18.8 16.5998C19.7 15.1998 21 13.8998 22.5 12.7998Z" fill="#888888"/>
<path d="M18.8 18.1C18.5 18.1 18.2 18 18 17.9C17.3 17.4 17.1 16.5 17.6 15.8C18.6 14.2 20 12.8 21.7 11.6C22.4 11.1 23.3 11.3 23.8 12C24.3 12.7 24.1 13.6 23.4 14.1C22 15.1 20.9 16.2 20.1 17.5C19.7 17.8 19.3 18.1 18.8 18.1Z" fill="#FFC600"/>
<path d="M51.4999 46.5C44.9999 46.5 28.2999 48 17.3999 53.9C21.1999 74.5 22.3999 84.5 22.3999 84.5C22.3999 84.5 28.7999 82 51.5999 82C74.3999 82 80.7999 84.5 80.7999 84.5C80.7999 84.5 80.7999 74.4 84.5999 53.9C73.6999 48 58.8999 46.5 51.4999 46.5Z" fill="black" stroke="black" stroke-width="0.5" stroke-miterlimit="10"/>
<path d="M20.7999 125L15.2999 122.7V69.5H16.4999L20.2999 90.7L20.7999 125Z" fill="black" stroke="black" stroke-width="0.5" stroke-miterlimit="10"/>
<path d="M20.7999 128.2L15.2999 126.7V169.5L20.7999 157.5V128.2Z" fill="black" stroke="black" stroke-width="0.5" stroke-miterlimit="10"/>
<path d="M51.9999 187.8C67.0999 187.5 80.2999 183.1 80.2999 183.1C80.2999 183.1 77.8999 177.3 75.7999 172.1C69.8999 174.7 58.9999 175.6 51.2999 175.6C42.1999 175.6 33.4999 174.5 26.6999 171.9C25.3999 174.7 22.2999 183 22.2999 183C22.2999 183 35.4999 187.4 50.5999 187.7C50.7999 187.7 50.9999 187.7 51.2999 187.7C51.5999 187.8 51.7999 187.8 51.9999 187.8Z" fill="black" stroke="black" stroke-width="0.5" stroke-miterlimit="10"/>
<path d="M81.9999 125L87.4999 122.7V69.5H86.1999L82.4999 90.7L81.9999 125Z" fill="black" stroke="black" stroke-width="0.5" stroke-miterlimit="10"/>
<path d="M81.9999 128.2L87.4999 126.7V169.5L81.9999 157.5V128.2Z" fill="black" stroke="black" stroke-width="0.5" stroke-miterlimit="10"/>
<path d="M15.7 185.5C15.7 185.5 21.3 176.3 25.6 169.4C29.1 171 36.5 173.5 48.9 173.8C48.9 173.8 53.1999 173.8 54.0999 173.8C66.3999 173.4 73.7999 170.9 77.1999 169.3C82.8999 179.8 87.1 186.1 87.1 186.1" stroke="black" stroke-width="0.5" stroke-miterlimit="10"/>
<path d="M30.2999 190.4C23.0999 189.2 19.5999 187.5 17.7999 186.1C18.1999 184.8 18.9999 183.2 18.9999 183.2C18.9999 183.2 18.9999 183.2 18.8999 183.1C18.8999 183.1 20.5999 185.7 30.6999 187.4L30.2999 190.4Z" fill="url(#paint0_radial_1_501)"/>
<path d="M63.7 190C60.1 190.4 56.5 190.6 51.5 190.8H49.9C44.8 190.7 41.3 190.5 37.7 190.2" stroke="black" stroke-width="3" stroke-miterlimit="10"/>
<path d="M71.8999 190.2L71.3999 187.2C81.1999 185.4 83.0999 182.9 83.0999 182.8C83.0999 182.8 84.0999 184.4 84.4999 185.5C82.8999 187 79.3999 188.8 71.8999 190.2Z" fill="url(#paint1_radial_1_501)"/>
<path d="M32.3999 6.3002L31.7999 3.4002C37.3999 2.3002 44.0999 1.7002 52.1999 1.7002C59.2999 1.7002 65.1999 2.2002 70.2999 3.1002L69.6999 6.0002C64.7999 5.1002 59.0999 4.6002 52.1999 4.6002C44.2999 4.7002 37.7999 5.2002 32.3999 6.3002Z" fill="black"/>
<path d="M32.6 15.5L31.6 27C31.6 27 28.6 39 23.1 42.5" stroke="black" stroke-miterlimit="10" stroke-linecap="round"/>
<path d="M69.1 15.5L70.1 27C70.1 27 73.1 39 78.6 42.5" stroke="black" stroke-miterlimit="10" stroke-linecap="round"/>
<path d="M15.3 67.2L15.1 64.5C15.1 64.5 13.3 61.5 9.09998 61.5C4.89998 61.5 2.79998 65 2.59998 67C3.79998 67.2 11.1 66.5 11.1 66.5C11.1 66.5 11.3 63.5 12.6 65C13.9 66.5 15.3 67.2 15.3 67.2Z" fill="#BD55A7" stroke="black" stroke-width="0.2646"/>
<path d="M87.2999 67.2004L87.4999 64.4004C87.4999 64.4004 89.2999 61.4004 93.4999 61.4004C97.6999 61.4004 99.6999 64.9004 99.9999 66.9004C98.7999 67.1004 91.4999 66.4004 91.4999 66.4004C91.4999 66.4004 91.2999 63.4004 89.9999 64.9004C88.6999 66.4004 87.2999 67.2004 87.2999 67.2004Z" fill="#BD55A7" stroke="black" stroke-width="0.2646"/>
<path d="M70.6 8.5C75.3 9.5 78.8 11 81.2 12.7Z" fill="#888888"/>
<path d="M81.2 14.2001C80.9 14.2001 80.6 14.1001 80.3 13.9001C77.8 12.2001 74.5 10.9001 70.2 10.0001C70.3 9.5001 70.7 7.7001 70.8 7.1001C75.4 8.1001 79.2 9.6001 81.9 11.5001C82.6 12.0001 82.8 12.9001 82.3 13.6001C82.2 14.0001 81.7 14.2001 81.2 14.2001Z" fill="white"/>
<path d="M22.5 12.8003C25 11.0003 28.3 9.70029 32.6 8.80029Z" fill="#888888"/>
<path d="M22.5 14.3003C22 14.3003 21.6 14.1003 21.3 13.7003C20.8 13.0003 21 12.1003 21.7 11.6003C24.4 9.80029 27.8 8.40029 32.3 7.30029C32.5 8.00029 32.8 9.50029 33 10.2003C28.9 11.1003 25.8 12.4003 23.4 14.0003C23.1 14.2003 22.8 14.3003 22.5 14.3003Z" fill="white"/>
</g>
<defs>
<radialGradient id="paint0_radial_1_501" cx="0" cy="0" r="1" gradientUnits="userSpaceOnUse" gradientTransform="translate(24.3291 186.808) scale(5.2557 5.25569)">
<stop stop-color="#FF0A30"/>
<stop offset="1" stop-color="#C70200"/>
</radialGradient>
<radialGradient id="paint1_radial_1_501" cx="0" cy="0" r="1" gradientUnits="userSpaceOnUse" gradientTransform="translate(77.915 186.527) rotate(179.295) scale(5.30407 5.30407)">
<stop stop-color="#FF0A30"/>
<stop offset="1" stop-color="#C70200"/>
</radialGradient>
<clipPath id="clip0_1_501">
<rect width="100.4" height="193.7" fill="white" transform="translate(0.5 0.5)"/>
</clipPath>
</defs>
</svg>
