<svg width="93" height="304" viewBox="0 0 93 304" fill="none" xmlns="http://www.w3.org/2000/svg">
<path d="M64.9 3.5C79.2 3.5 82 19.6 82 19.6L81.5 69.8L78.1 74.4H50.6H43.5H16.2L10.9 70.1V19.6C10.9 19.6 15.1 3.5 29.3 3.5C43.5 3.5 50.6 3.5 64.9 3.5Z" fill="#8660D3" stroke="black" stroke-miterlimit="10"/>
<path d="M47.6 22.5C47.2 22.5 45.5 22.5 45.1 22.5C26.4 22.5 15.9 27.5 15.9 27.5L17.1 41.7C27.9 38.7 45.1 38.7 45.1 38.7H47.6C47.6 38.7 64.9 38.7 75.6 41.7L76.9 27.5C76.9 27.5 66.4 22.5 47.6 22.5Z" fill="black"/>
<path d="M63.6 5.2V3.5H30.6V5.2H24.6V6.2H34.9V8.2H58.4V6.2H68.6V5.2H63.6Z" fill="black"/>
<path d="M15.5 42.0999L14.6 32.7L12.6 34.2V43.2L15.5 42.0999Z" fill="black"/>
<path d="M12.7 45.4V68.1999L14.9 69.6999L15.6 44.2L12.7 45.4Z" fill="black"/>
<path d="M12.6 32.2999L12.4 25.2L10.4 28.1L3.19997 30.5C3.19997 30.5 1.19997 30.9 2.09997 33C4.19997 32.2 10.6 30.5 10.6 30.5L12.6 32.2999Z" fill="#8660D3" stroke="black" stroke-width="0.5" stroke-miterlimit="10"/>
<path d="M76.8999 42.0999L77.7999 32.7L79.7999 34.2V43.2L76.8999 42.0999Z" fill="black"/>
<path d="M79.7999 45.4L79.6999 68.1999L77.4999 69.6999L76.7999 44.2L79.7999 45.4Z" fill="black"/>
<path d="M79.7999 32.2999L79.9999 25.2L81.9999 28.1L89.0999 30.5C89.0999 30.5 91.0999 30.9 90.1999 33C88.0999 32.2 81.6999 30.5 81.6999 30.5L79.7999 32.2999Z" fill="#8660D3" stroke="black" stroke-width="0.5" stroke-miterlimit="10"/>
<path d="M77.9999 74.5H17.2999V84.5H77.9999V74.5Z" fill="#8660D3" stroke="black" stroke-miterlimit="10"/>
<path d="M82.9 292.7C82.9 296 80.2 298.7 76.9 298.7H16.5C13.2 298.7 10.5 296 10.5 292.7V83.2C10.5 79.9 13.2 77.2 16.5 77.2H76.9C80.2 77.2 82.9 79.9 82.9 83.2V292.7Z" fill="#8660D3" stroke="black" stroke-miterlimit="10"/>
<path d="M17.6 77.7V298.5" stroke="black" stroke-width="0.5" stroke-miterlimit="10"/>
<path d="M27.5 77.7V298.5" stroke="black" stroke-width="0.5" stroke-miterlimit="10"/>
<path d="M37.4 77.7V298.5" stroke="black" stroke-width="0.5" stroke-miterlimit="10"/>
<path d="M47.2999 77.7V298.5" stroke="black" stroke-width="0.5" stroke-miterlimit="10"/>
<path d="M57.2 77.7V298.5" stroke="black" stroke-width="0.5" stroke-miterlimit="10"/>
<path d="M67.1 77.7V298.5" stroke="black" stroke-width="0.5" stroke-miterlimit="10"/>
<path d="M76.8999 77.7V298.5" stroke="black" stroke-width="0.5" stroke-miterlimit="10"/>
<path d="M27.3 296.9H17.9V298.5H27.3V296.9Z" fill="url(#paint0_linear_1_318)"/>
<path d="M76.6 296.9H67.2V298.5H76.6V296.9Z" fill="url(#paint1_linear_1_318)"/>
<defs>
<linearGradient id="paint0_linear_1_318" x1="17.871" y1="297.673" x2="27.2441" y2="297.673" gradientUnits="userSpaceOnUse">
<stop stop-color="#FFAFAE"/>
<stop offset="1" stop-color="#FF0A30"/>
</linearGradient>
<linearGradient id="paint1_linear_1_318" x1="67.246" y1="297.673" x2="76.6191" y2="297.673" gradientUnits="userSpaceOnUse">
<stop stop-color="#FFAFAE"/>
<stop offset="1" stop-color="#FF0A30"/>
</linearGradient>
</defs>
</svg>
