<svg width="93" height="304" viewBox="0 0 93 304" fill="none" xmlns="http://www.w3.org/2000/svg">
<path d="M65.2001 3.8999C79.5001 3.8999 82.3001 19.9999 82.3001 19.9999L81.7001 70.1999L78.3001 74.7999H51.0001H43.9001H16.5001L11.2001 70.4999V19.9999C11.2001 19.9999 15.4001 3.8999 29.6001 3.8999C43.8001 3.8999 51.0001 3.8999 65.2001 3.8999Z" fill="#6DA0BC" stroke="black" stroke-miterlimit="10"/>
<path d="M47.9001 22.8999C47.5001 22.8999 45.8001 22.8999 45.4001 22.8999C26.6001 22.8999 16.2001 27.8999 16.2001 27.8999L17.5001 42.1999C28.3001 39.1999 45.5001 39.1999 45.5001 39.1999H48.0001C48.0001 39.1999 65.2001 39.1999 76.0001 42.1999L77.2001 27.8999C77.2001 27.8999 66.7001 22.8999 47.9001 22.8999Z" fill="black"/>
<path d="M63.9 5.5999V3.8999H30.9V5.5999H24.9V6.5999H35.2V8.5999H58.7V6.5999H68.9V5.5999H63.9Z" fill="black"/>
<path d="M15.8 42.4999L14.9 33.0999L12.9 34.5999L13 43.6999L15.8 42.4999Z" fill="black"/>
<path d="M13 45.7999V68.5999L15.2 70.0999L15.9 44.5999L13 45.7999Z" fill="black"/>
<path d="M12.9 32.7999L12.7 25.7L10.7 28.6L3.50001 30.9C3.50001 30.9 1.50001 31.3 2.40001 33.4C4.50001 32.6 10.9 30.9 10.9 30.9L12.9 32.7999Z" fill="#4D8BAD" stroke="black" stroke-width="0.5" stroke-miterlimit="10"/>
<path d="M77.2 42.4999L78.1 33.0999L80.1 34.5999V43.6999L77.2 42.4999Z" fill="black"/>
<path d="M80.1 45.7999L80 68.5999L77.9 70.0999L77.1 44.5999L80.1 45.7999Z" fill="black"/>
<path d="M80.1 32.7999L80.3 25.7L82.3 28.6L89.4 31C89.4 31 91.4 31.4 90.5 33.5C88.4 32.7 82 31 82 31L80.1 32.7999Z" fill="#4D8BAD" stroke="black" stroke-width="0.5" stroke-miterlimit="10"/>
<path d="M78.3 74.8999H17.6V84.8999H78.3V74.8999Z" fill="#6DA0BC" stroke="black" stroke-miterlimit="10"/>
<path d="M83.2 293.1C83.2 296.4 80.5 299.1 77.2 299.1H16.8C13.5 299.1 10.8 296.4 10.8 293.1V83.5999C10.8 80.2999 13.5 77.5999 16.8 77.5999H77.2C80.5 77.5999 83.2 80.2999 83.2 83.5999V293.1Z" fill="#6DA0BC" stroke="black" stroke-miterlimit="10"/>
<path d="M17.9 78.0999V298.9" stroke="black" stroke-width="0.5" stroke-miterlimit="10"/>
<path d="M27.8 78.0999V298.9" stroke="black" stroke-width="0.5" stroke-miterlimit="10"/>
<path d="M37.7001 78.0999V298.9" stroke="black" stroke-width="0.5" stroke-miterlimit="10"/>
<path d="M47.6 78.0999V298.9" stroke="black" stroke-width="0.5" stroke-miterlimit="10"/>
<path d="M57.5 78.0999V298.9" stroke="black" stroke-width="0.5" stroke-miterlimit="10"/>
<path d="M67.4 78.0999V298.9" stroke="black" stroke-width="0.5" stroke-miterlimit="10"/>
<path d="M77.3 78.0999V298.9" stroke="black" stroke-width="0.5" stroke-miterlimit="10"/>
<path d="M27.6001 297.3H18.2001V298.9H27.6001V297.3Z" fill="url(#paint0_linear_1_477)"/>
<path d="M77 297.3H67.6V298.9H77V297.3Z" fill="url(#paint1_linear_1_477)"/>
<defs>
<linearGradient id="paint0_linear_1_477" x1="18.1801" y1="298.103" x2="27.5532" y2="298.103" gradientUnits="userSpaceOnUse">
<stop stop-color="#FFAFAE"/>
<stop offset="1" stop-color="#FF0A30"/>
</linearGradient>
<linearGradient id="paint1_linear_1_477" x1="67.555" y1="298.103" x2="76.9281" y2="298.103" gradientUnits="userSpaceOnUse">
<stop stop-color="#FFAFAE"/>
<stop offset="1" stop-color="#FF0A30"/>
</linearGradient>
</defs>
</svg>
