<svg width="99" height="192" viewBox="0 0 99 192" fill="none" xmlns="http://www.w3.org/2000/svg">
<path d="M50.4 1C68.9 1 91 4.2 91 25.2C91 47.1 91 156.2 91 167.4C91 178.6 85.9 190.7 71 190.7C48.2 190.7 44 190.7 29.5 190.7C15 190.7 8 180.4 8 167.9C8 149.3 8 42.5 8 25.7C8 5.2 27.6 1 50.4 1Z" fill="#C4DB63" stroke="black" stroke-miterlimit="10"/>
<path d="M79.3 11.7C80.6 12.6 81.6 13.5 82.4 14.6Z" fill="#888888"/>
<path d="M82.5 16.0001C82.1 16.0001 81.6 15.8001 81.3 15.4001C80.5 14.5001 79.6 13.7001 78.5 12.9001C77.8 12.4001 77.6 11.5001 78.1 10.8001C78.6 10.1001 79.5 9.90006 80.2 10.4001C81.5 11.3001 82.7 12.4001 83.6 13.5001C84.1 14.1001 84 15.1001 83.4 15.6001C83.1 15.9001 82.8 16.0001 82.5 16.0001Z" fill="#FFC600"/>
<path d="M16.9 15.6C17.8 14.2 19.1 12.9 20.6 11.8Z" fill="#888888"/>
<path d="M16.9 17.1C16.6 17.1 16.3 17 16.1 16.9C15.4 16.4 15.2 15.5 15.7 14.8C16.7 13.2 18.1 11.8 19.8 10.6C20.5 10.1 21.4 10.3 21.9 11C22.4 11.7 22.2 12.6 21.5 13.1C20.1 14.1 19 15.2 18.2 16.5C17.8 16.8 17.4 17.1 16.9 17.1Z" fill="#FFC600"/>
<path d="M49.5999 45.5C43.0999 45.5 26.3999 47 15.4999 52.9C19.2999 73.5 20.4999 83.5 20.4999 83.5C20.4999 83.5 26.8999 81 49.6999 81C72.4999 81 78.8999 83.5 78.8999 83.5C78.8999 83.5 78.8999 73.4 82.6999 52.9C71.7999 47 56.9999 45.5 49.5999 45.5Z" fill="black" stroke="black" stroke-width="0.5" stroke-miterlimit="10"/>
<path d="M18.8999 124L13.3999 121.7V68.5H14.5999L18.3999 89.7L18.8999 124Z" fill="black" stroke="black" stroke-width="0.5" stroke-miterlimit="10"/>
<path d="M18.8999 127.2L13.3999 125.7V168.5L18.8999 156.5V127.2Z" fill="black" stroke="black" stroke-width="0.5" stroke-miterlimit="10"/>
<path d="M50.0999 186.8C65.1999 186.5 78.3999 182.1 78.3999 182.1C78.3999 182.1 75.9999 176.3 73.8999 171.1C67.9999 173.7 57.0999 174.6 49.3999 174.6C40.2999 174.6 31.5999 173.5 24.7999 170.9C23.4999 173.7 20.3999 182 20.3999 182C20.3999 182 33.5999 186.4 48.6999 186.7C48.8999 186.7 49.0999 186.7 49.3999 186.7C49.6999 186.8 49.8999 186.8 50.0999 186.8Z" fill="black" stroke="black" stroke-width="0.5" stroke-miterlimit="10"/>
<path d="M80.0999 124L85.5999 121.7V68.5H84.2999L80.5999 89.7L80.0999 124Z" fill="black" stroke="black" stroke-width="0.5" stroke-miterlimit="10"/>
<path d="M80.0999 127.2L85.5999 125.7V168.5L80.0999 156.5V127.2Z" fill="black" stroke="black" stroke-width="0.5" stroke-miterlimit="10"/>
<path d="M13.7999 184.5C13.7999 184.5 19.3999 175.3 23.6999 168.4C27.1999 170 34.5999 172.5 46.9999 172.8C46.9999 172.8 51.2999 172.8 52.1999 172.8C64.4999 172.4 71.8999 169.9 75.2999 168.3C80.9999 178.8 85.1999 185.1 85.1999 185.1" stroke="black" stroke-width="0.5" stroke-miterlimit="10"/>
<path d="M28.3999 189.4C21.1999 188.2 17.6999 186.5 15.8999 185.1C16.2999 183.8 17.0999 182.2 17.0999 182.2C17.0999 182.2 17.0999 182.2 16.9999 182.1C16.9999 182.1 18.6999 184.7 28.7999 186.4L28.3999 189.4Z" fill="url(#paint0_radial_1_404)"/>
<path d="M61.7999 189C58.1999 189.4 54.5999 189.6 49.5999 189.8H47.9999C42.8999 189.7 39.3999 189.5 35.7999 189.2" stroke="black" stroke-width="3" stroke-miterlimit="10"/>
<path d="M69.9999 189.2L69.4999 186.2C79.2999 184.4 81.1999 181.9 81.1999 181.8C81.1999 181.8 82.1999 183.4 82.5999 184.5C80.9999 186 77.4999 187.8 69.9999 189.2Z" fill="url(#paint1_radial_1_404)"/>
<path d="M30.4999 5.29995L29.8999 2.39995C35.4999 1.29995 42.1999 0.699951 50.3999 0.699951C57.4999 0.699951 63.3999 1.19995 68.4999 2.09995L67.8999 4.99995C62.9999 4.09995 57.2999 3.59995 50.3999 3.59995C42.3999 3.69995 35.8999 4.19995 30.4999 5.29995Z" fill="black"/>
<path d="M30.7 14.5L29.7 26C29.7 26 26.7 38 21.2 41.5" stroke="black" stroke-miterlimit="10"/>
<path d="M67.2 14.5L68.2 26C68.2 26 71.2 38 76.7 41.5" stroke="black" stroke-miterlimit="10"/>
<path d="M13.4 66.2L13.2 63.5C13.2 63.5 11.4 60.5 7.19995 60.5C2.99995 60.5 0.999951 64 0.699951 66C1.89995 66.2 9.19995 65.5 9.19995 65.5C9.19995 65.5 9.39995 62.5 10.7 64C12 65.5 13.4 66.2 13.4 66.2Z" fill="#C4DB63" stroke="black" stroke-width="0.5" stroke-miterlimit="10"/>
<path d="M85.3999 66.1999L85.5999 63.3999C85.5999 63.3999 87.3999 60.3999 91.5999 60.3999C95.7999 60.3999 97.7999 63.8999 98.0999 65.8999C96.8999 66.0999 89.5999 65.3999 89.5999 65.3999C89.5999 65.3999 89.3999 62.3999 88.0999 63.8999C86.7999 65.3999 85.3999 66.1999 85.3999 66.1999Z" fill="#C4DB63" stroke="black" stroke-width="0.5" stroke-miterlimit="10"/>
<path d="M68.7 7.49976C73.4 8.49976 76.9 9.99976 79.3 11.6998Z" fill="#888888"/>
<path d="M79.2999 13.1999C78.9999 13.1999 78.6999 13.0999 78.3999 12.8999C75.8999 11.1999 72.5999 9.89985 68.2999 8.99985C68.4999 8.49985 68.8999 6.69985 68.9999 6.09985C73.5999 7.09985 77.3999 8.59985 80.0999 10.4999C80.7999 10.9999 80.9999 11.8999 80.4999 12.5999C80.2999 12.9999 79.7999 13.1999 79.2999 13.1999Z" fill="white"/>
<path d="M20.6 11.8C23.1 10 26.4 8.70005 30.7 7.80005Z" fill="#888888"/>
<path d="M20.5999 13.3C20.0999 13.3 19.6999 13.1 19.3999 12.7C18.8999 12 19.0999 11.1 19.7999 10.6C22.4999 8.80005 25.8999 7.40005 30.3999 6.30005C30.4999 7.00005 30.8999 8.50005 30.9999 9.20005C26.8999 10.1 23.7999 11.4 21.3999 13C21.1999 13.2 20.8999 13.3 20.5999 13.3Z" fill="white"/>
<defs>
<radialGradient id="paint0_radial_1_404" cx="0" cy="0" r="1" gradientUnits="userSpaceOnUse" gradientTransform="translate(22.422 185.808) scale(5.2557 5.25569)">
<stop stop-color="#FF0A30"/>
<stop offset="1" stop-color="#C70200"/>
</radialGradient>
<radialGradient id="paint1_radial_1_404" cx="0" cy="0" r="1" gradientUnits="userSpaceOnUse" gradientTransform="translate(75.9693 185.526) rotate(179.295) scale(5.30407 5.30407)">
<stop stop-color="#FF0A30"/>
<stop offset="1" stop-color="#C70200"/>
</radialGradient>
</defs>
</svg>
