<svg width="93" height="303" viewBox="0 0 93 303" fill="none" xmlns="http://www.w3.org/2000/svg">
<path d="M64.7999 3.2001C79.0999 3.2001 81.8999 19.3001 81.8999 19.3001L81.2999 69.5001L77.8999 74.0001H50.4999H43.3999H16.0999L10.7999 69.7001V19.2001C10.7999 19.2001 14.9999 3.1001 29.1999 3.1001C43.3999 3.1001 50.4999 3.2001 64.7999 3.2001Z" fill="#545DAF" stroke="black" stroke-width="0.5" stroke-miterlimit="10"/>
<path d="M47.4999 22.2002C47.0999 22.2002 45.3999 22.2002 44.9999 22.2002C26.2999 22.2002 15.7999 27.2002 15.7999 27.2002L16.9999 41.4002C27.7999 38.4002 44.9999 38.4002 44.9999 38.4002H47.4999C47.4999 38.4002 64.7999 38.4002 75.4999 41.4002L76.6999 27.1002C76.7999 27.2002 66.2999 22.2002 47.4999 22.2002Z" fill="black"/>
<path d="M63.5 4.9002V3.2002H30.5V4.9002H24.5V5.9002H34.8V7.9002H58.3V5.9002H68.5V4.9002H63.5Z" fill="black"/>
<path d="M15.4 41.8001L14.5 32.4001L12.5 33.9001V42.9001L15.4 41.8001Z" fill="black"/>
<path d="M12.5 45.1001L12.6 67.9001L14.8 69.4001L15.5 43.9001L12.5 45.1001Z" fill="black"/>
<path d="M12.5 32.0001L12.3 24.9001L10.3 27.8001L3.19997 30.2001C3.19997 30.2001 1.19997 30.6001 2.09997 32.7001C4.19997 31.9001 10.6 30.2001 10.6 30.2001L12.5 32.0001Z" fill="#545DAF" stroke="black" stroke-width="0.5" stroke-miterlimit="10"/>
<path d="M76.7999 41.8001L77.6999 32.4001L79.6999 33.9001V42.9001L76.7999 41.8001Z" fill="black"/>
<path d="M79.6 45.1001V67.9001L77.4 69.4001L76.7 43.9001L79.6 45.1001Z" fill="black"/>
<path d="M79.7 32.0001L79.9 24.9001L81.9 27.8001L89 30.2001C89 30.2001 91 30.6001 90.1 32.7001C88 31.9001 81.6 30.2001 81.6 30.2001L79.7 32.0001Z" fill="#545DAF" stroke="black" stroke-width="0.5" stroke-miterlimit="10"/>
<path d="M77.9 74.2002H17.2V84.2002H77.9V74.2002Z" fill="#545DAF" stroke="black" stroke-width="0.5" stroke-miterlimit="10"/>
<path d="M82.8 292.4C82.8 295.7 80.1 298.4 76.8 298.4H16.4C13.1 298.4 10.4 295.7 10.4 292.4V82.9001C10.4 79.6001 13.1 76.9001 16.4 76.9001H76.8C80.1 76.9001 82.8 79.6001 82.8 82.9001V292.4Z" fill="#545DAF" stroke="black" stroke-width="0.5" stroke-miterlimit="10"/>
<path d="M17.5 77.3V298.2" stroke="black" stroke-width="0.5" stroke-miterlimit="10"/>
<path d="M27.4 77.3V298.2" stroke="black" stroke-width="0.5" stroke-miterlimit="10"/>
<path d="M37.2999 77.3V298.2" stroke="black" stroke-width="0.5" stroke-miterlimit="10"/>
<path d="M47.2 77.3V298.2" stroke="black" stroke-width="0.5" stroke-miterlimit="10"/>
<path d="M57.1 77.3V298.2" stroke="black" stroke-width="0.5" stroke-miterlimit="10"/>
<path d="M66.8999 77.3V298.2" stroke="black" stroke-width="0.5" stroke-miterlimit="10"/>
<path d="M76.7999 77.3V298.2" stroke="black" stroke-width="0.5" stroke-miterlimit="10"/>
<path d="M27.1999 296.6H17.7999V298.2H27.1999V296.6Z" fill="url(#paint0_linear_1_808)"/>
<path d="M76.5 296.6H67.1V298.2H76.5V296.6Z" fill="url(#paint1_linear_1_808)"/>
<defs>
<linearGradient id="paint0_linear_1_808" x1="17.7619" y1="297.364" x2="27.1351" y2="297.364" gradientUnits="userSpaceOnUse">
<stop stop-color="#FFAFAE"/>
<stop offset="1" stop-color="#FF0A30"/>
</linearGradient>
<linearGradient id="paint1_linear_1_808" x1="67.137" y1="297.364" x2="76.5102" y2="297.364" gradientUnits="userSpaceOnUse">
<stop stop-color="#FFAFAE"/>
<stop offset="1" stop-color="#FF0A30"/>
</linearGradient>
</defs>
</svg>
