<svg width="101" height="194" viewBox="0 0 101 194" fill="none" xmlns="http://www.w3.org/2000/svg">
<path d="M51.1 1.19971C69.6 1.19971 91.7 4.39971 91.7 25.3997C91.7 47.2997 91.7 156.4 91.7 167.6C91.7 178.8 86.6 190.9 71.7 190.9C48.9 190.9 44.7 190.9 30.2 190.9C15.7 190.9 8.59998 180.6 8.59998 168C8.59998 149.4 8.59998 42.5997 8.59998 25.7997C8.59998 5.39971 28.2 1.19971 51.1 1.19971Z" fill="#59876C" stroke="black" stroke-width="0.5" stroke-miterlimit="10"/>
<path d="M80 11.8999C81.3 12.7999 82.3 13.6999 83.1 14.7999Z" fill="#888888"/>
<path d="M83.1 16.1999C82.7 16.1999 82.2 15.9999 81.9 15.5999C81.1 14.6999 80.2 13.7999 79.1 12.9999C78.4 12.4999 78.2 11.5999 78.7 10.8999C79.2 10.1999 80.1 9.99991 80.8 10.4999C82.1 11.3999 83.3 12.4999 84.2 13.5999C84.7 14.1999 84.6 15.1999 84 15.6999C83.8 16.0999 83.4 16.1999 83.1 16.1999Z" fill="#FFE700"/>
<path d="M17.5 15.6999C18.4 14.2999 19.7 12.9999 21.2 11.8999Z" fill="#888888"/>
<path d="M17.5 17.2001C17.2 17.2001 16.9 17.1001 16.7 17.0001C16 16.5001 15.8 15.6001 16.3 14.9001C17.3 13.3001 18.7 11.9001 20.4 10.7001C21.1 10.2001 22 10.4001 22.5 11.1001C23 11.8001 22.8 12.7001 22.1 13.2001C20.7 14.2001 19.6 15.3001 18.8 16.6001C18.5 17.0001 18 17.2001 17.5 17.2001Z" fill="#FFE700"/>
<path d="M50.2999 45.6997C43.7999 45.6997 27.1 47.1997 16.2 53.0997C19.9 73.5997 21.1 83.6997 21.1 83.6997C21.1 83.6997 27.5 81.1997 50.2999 81.1997C73.0999 81.1997 79.5999 83.6997 79.5999 83.6997C79.5999 83.6997 79.5999 73.5997 83.3999 53.0997C72.3999 47.1997 57.5999 45.6997 50.2999 45.6997Z" fill="black" stroke="black" stroke-width="0.5" stroke-miterlimit="10"/>
<path d="M19.5 124.2L14 121.9V68.6997H15.3L19 89.8997L19.5 124.2Z" fill="black" stroke="black" stroke-width="0.5" stroke-miterlimit="10"/>
<path d="M19.5 127.4L14 125.9V168.7L19.5 156.7V127.4Z" fill="black" stroke="black" stroke-width="0.5" stroke-miterlimit="10"/>
<path d="M50.8 187C65.9 186.7 79.1 182.3 79.1 182.3C79.1 182.3 76.7 176.5 74.6 171.3C68.7 173.9 57.8 174.8 50.1 174.8C41 174.8 32.3 173.7 25.5 171.1C24.2 173.9 21.1 182.2 21.1 182.2C21.1 182.2 34.3 186.6 49.4 186.9C49.6 186.9 49.8 186.9 50.1 186.9C50.3 187 50.6 187 50.8 187Z" fill="black" stroke="black" stroke-width="0.5" stroke-miterlimit="10"/>
<path d="M80.7 124.2L86.2 121.9V68.6997H85L81.2 89.8997L80.7 124.2Z" fill="black" stroke="black" stroke-width="0.5" stroke-miterlimit="10"/>
<path d="M80.7 127.4L86.2 125.9V168.7L80.7 156.7V127.4Z" fill="black" stroke="black" stroke-width="0.5" stroke-miterlimit="10"/>
<path d="M14.5 184.7C14.5 184.7 20.1 175.5 24.4 168.6C27.9 170.2 35.3 172.7 47.7 173C47.7 173 52 173 52.9 173C65.2 172.6 72.6 170.1 76 168.5C81.7 179 85.9 185.3 85.9 185.3" stroke="black" stroke-width="0.5" stroke-miterlimit="10"/>
<path d="M29.1 189.6C21.9 188.4 18.4 186.7 16.6 185.3C17 184 17.8 182.4 17.8 182.4C17.8 182.4 17.8 182.4 17.7 182.3C17.7 182.3 19.4 184.9 29.5 186.6L29.1 189.6Z" fill="url(#paint0_radial_1_612)"/>
<path d="M62.5 189.2C58.9 189.6 55.3 189.8 50.3 190H48.7C43.6 189.9 40.1 189.7 36.5 189.4" stroke="black" stroke-width="3" stroke-miterlimit="10"/>
<path d="M70.6 189.4L70.1 186.4C79.9 184.6 81.8 182.1 81.8 182C81.8 182 82.8 183.6 83.2 184.7C81.6 186.1 78.1 188 70.6 189.4Z" fill="url(#paint1_radial_1_612)"/>
<path d="M31.2 5.4999L30.6 2.5999C36.2 1.4999 42.8 0.899902 51 0.899902C58.1 0.899902 64 1.3999 69.1 2.2999L68.5 5.1999C63.7 4.3999 58 3.8999 51 3.8999C43 3.8999 36.6 4.3999 31.2 5.4999Z" fill="black"/>
<path d="M31.4 14.6997L30.4 26.1997C30.4 26.1997 27.4 38.1997 21.9 41.6997" stroke="black" stroke-miterlimit="10"/>
<path d="M67.8 14.6997L68.8 26.1997C68.8 26.1997 71.8 38.1997 77.3 41.6997" stroke="black" stroke-miterlimit="10"/>
<path d="M14.1 66.3997L13.9 63.6997C13.9 63.6997 12.1 60.6997 7.90002 60.6997C3.70002 60.6997 1.70002 64.1997 1.40002 66.1997C2.60002 66.3997 9.90002 65.6997 9.90002 65.6997C9.90002 65.6997 10.1 62.6997 11.4 64.1997C12.6 65.6997 14.1 66.3997 14.1 66.3997Z" fill="#59876C" stroke="black" stroke-width="0.5" stroke-miterlimit="10"/>
<path d="M86.1 66.3997L86.3 63.6997C86.3 63.6997 88.1 60.6997 92.3 60.6997C96.5 60.6997 98.5 64.1997 98.8 66.1997C97.6 66.3997 90.3 65.6997 90.3 65.6997C90.3 65.6997 90.1 62.6997 88.8 64.1997C87.6 65.6997 86.1 66.3997 86.1 66.3997Z" fill="#59876C" stroke="black" stroke-width="0.5" stroke-miterlimit="10"/>
<path d="M69.4 7.69971C74.1 8.69971 77.6 10.1997 80 11.8997Z" fill="#888888"/>
<path d="M80 13.3998C79.7 13.3998 79.4 13.2998 79.1 13.0998C76.6 11.3998 73.3 10.0998 69 9.1998C69.1 8.6998 69.5 6.8998 69.6 6.2998C74.2 7.2998 78 8.7998 80.7 10.6998C81.4 11.1998 81.6 12.0998 81.1 12.7998C80.9 13.0998 80.5 13.3998 80 13.3998Z" fill="white"/>
<path d="M21.3 12C23.8 10.2 27.1 8.9 31.4 8Z" fill="#888888"/>
<path d="M21.3 13.5C20.8 13.5 20.4 13.3 20.1 12.9C19.6 12.2 19.8 11.3 20.5 10.8C23.2 9 26.6 7.6 31.1 6.5C31.3 7.2 31.6 8.7 31.8 9.4C27.7 10.3 24.6 11.6 22.2 13.2C21.9 13.4 21.6 13.5 21.3 13.5Z" fill="white"/>
<defs>
<radialGradient id="paint0_radial_1_612" cx="0" cy="0" r="1" gradientUnits="userSpaceOnUse" gradientTransform="translate(23.0744 185.999) scale(5.2557 5.2557)">
<stop stop-color="#FF0A30"/>
<stop offset="1" stop-color="#C70200"/>
</radialGradient>
<radialGradient id="paint1_radial_1_612" cx="0" cy="0" r="1" gradientUnits="userSpaceOnUse" gradientTransform="translate(76.6493 185.718) rotate(179.295) scale(5.30407 5.30407)">
<stop stop-color="#FF0A30"/>
<stop offset="1" stop-color="#C70200"/>
</radialGradient>
</defs>
</svg>
