<svg width="101" height="194" viewBox="0 0 101 194" fill="none" xmlns="http://www.w3.org/2000/svg">
<path d="M51.3 1.69995C69.8 1.69995 91.9 4.89995 91.9 25.9C91.9 47.7999 91.9 156.9 91.9 168.1C91.9 179.3 86.8 191.4 71.9 191.4C49.1 191.4 44.9 191.4 30.4 191.4C15.9 191.4 8.90002 181.1 8.90002 168.5C8.90002 149.9 8.90002 43.0999 8.90002 26.2999C8.90002 5.89995 28.5 1.69995 51.3 1.69995Z" fill="#A5E0EE" stroke="black" stroke-width="0.5" stroke-miterlimit="10"/>
<path d="M80.2999 12.3999C81.5999 13.2999 82.5999 14.1999 83.3999 15.2999Z" fill="#888888"/>
<path d="M83.3999 16.6999C82.9999 16.6999 82.4999 16.4999 82.1999 16.0999C81.3999 15.1999 80.4999 14.2999 79.3999 13.4999C78.6999 12.9999 78.4999 12.0999 78.9999 11.3999C79.4999 10.6999 80.3999 10.4999 81.0999 10.9999C82.3999 11.8999 83.5999 12.9999 84.4999 14.0999C84.9999 14.6999 84.8999 15.6999 84.2999 16.1999C84.0999 16.5999 83.6999 16.6999 83.3999 16.6999Z" fill="#FFC600"/>
<path d="M17.8 16.1999C18.7 14.7999 20 13.4999 21.5 12.3999Z" fill="#888888"/>
<path d="M17.8 17.6999C17.5 17.6999 17.2 17.5999 17 17.4999C16.3 16.9999 16.1 16.0999 16.6 15.3999C17.6 13.7999 19 12.3999 20.7 11.1999C21.4 10.6999 22.3 10.8999 22.8 11.5999C23.3 12.2999 23.1 13.1999 22.4 13.6999C21 14.6999 19.9 15.7999 19.1 17.0999C18.8 17.4999 18.3 17.6999 17.8 17.6999Z" fill="#FFC600"/>
<path d="M50.4999 46.2C43.9999 46.2 27.2999 47.6999 16.3999 53.5999C20.0999 74.0999 21.2999 84.1999 21.2999 84.1999C21.2999 84.1999 27.6999 81.6999 50.4999 81.6999C73.2999 81.6999 79.7999 84.1999 79.7999 84.1999C79.7999 84.1999 79.7999 74.0999 83.5999 53.5999C72.6999 47.6999 57.8999 46.2 50.4999 46.2Z" fill="black" stroke="black" stroke-width="0.5" stroke-miterlimit="10"/>
<path d="M19.7999 124.7L14.2999 122.4V69.2H15.5999L19.2999 90.4L19.7999 124.7Z" fill="black" stroke="black" stroke-width="0.5" stroke-miterlimit="10"/>
<path d="M19.7999 127.9L14.2999 126.4V169.2L19.7999 157.2V127.9Z" fill="black" stroke="black" stroke-width="0.5" stroke-miterlimit="10"/>
<path d="M51.0999 187.5C66.1999 187.2 79.3999 182.8 79.3999 182.8C79.3999 182.8 76.9999 177 74.8999 171.8C68.9999 174.4 58.0999 175.3 50.3999 175.3C41.2999 175.3 32.5999 174.2 25.7999 171.6C24.4999 174.4 21.3999 182.7 21.3999 182.7C21.3999 182.7 34.5999 187.1 49.6999 187.4C49.8999 187.4 50.0999 187.4 50.3999 187.4C50.5999 187.5 50.7999 187.5 51.0999 187.5Z" fill="black" stroke="black" stroke-width="0.5" stroke-miterlimit="10"/>
<path d="M80.9999 124.7L86.4999 122.4V69.2H85.1999L81.4999 90.4L80.9999 124.7Z" fill="black" stroke="black" stroke-width="0.5" stroke-miterlimit="10"/>
<path d="M80.9999 127.9L86.4999 126.4V169.2L80.9999 157.2V127.9Z" fill="black" stroke="black" stroke-width="0.5" stroke-miterlimit="10"/>
<path d="M14.7999 185.2C14.7999 185.2 20.3999 176 24.6999 169.1C28.1999 170.7 35.5999 173.2 47.9999 173.5C47.9999 173.5 52.2999 173.5 53.1999 173.5C65.4999 173.1 72.8999 170.6 76.2999 169C81.9999 179.5 86.1999 185.8 86.1999 185.8" stroke="black" stroke-width="0.5" stroke-miterlimit="10"/>
<path d="M29.2999 190.1C22.0999 188.9 18.5999 187.2 16.7999 185.8C17.1999 184.5 17.9999 182.9 17.9999 182.9C17.9999 182.9 17.9999 182.9 17.8999 182.8C17.8999 182.8 19.5999 185.4 29.6999 187.1L29.2999 190.1Z" fill="url(#paint0_radial_1_771)"/>
<path d="M62.7 189.7C59.1 190.1 55.5 190.3 50.5 190.5H48.9C43.8 190.4 40.3 190.2 36.7 189.9" stroke="black" stroke-width="3" stroke-miterlimit="10"/>
<path d="M70.8999 189.9L70.3999 186.9C80.1999 185.1 82.0999 182.6 82.0999 182.5C82.0999 182.5 83.0999 184.1 83.4999 185.2C81.8999 186.6 78.3999 188.5 70.8999 189.9Z" fill="url(#paint1_radial_1_771)"/>
<path d="M31.5 5.9999L30.9 3.0999C36.4 1.9999 43.1 1.3999 51.3 1.3999C58.4 1.3999 64.3 1.8999 69.4 2.7999L68.8 5.6999C64 4.8999 58.2 4.3999 51.3 4.3999C43.3 4.3999 36.8 4.8999 31.5 5.9999Z" fill="black"/>
<path d="M31.7 15.2L30.7 26.7C30.7 26.7 27.7 38.7 22.2 42.2" stroke="black" stroke-miterlimit="10"/>
<path d="M68.1 15.2L69.1 26.7C69.1 26.7 72.1 38.7 77.6 42.2" stroke="black" stroke-miterlimit="10"/>
<path d="M14.3 66.8999L14.1 64.0999C14.1 64.0999 12.3 61.0999 8.09998 61.0999C3.89998 61.0999 1.89998 64.5999 1.59998 66.5999C2.89998 66.7999 10.1 66.0999 10.1 66.0999C10.1 66.0999 10.3 63.0999 11.6 64.5999C12.8 66.1999 14.3 66.8999 14.3 66.8999Z" fill="#A5E0EE" stroke="black" stroke-width="0.5" stroke-miterlimit="10"/>
<path d="M86.2999 66.8999L86.4999 64.0999C86.4999 64.0999 88.2999 61.0999 92.4999 61.0999C96.6999 61.0999 98.6999 64.5999 98.9999 66.5999C97.7999 66.7999 90.4999 66.0999 90.4999 66.0999C90.4999 66.0999 90.2999 63.0999 88.9999 64.5999C87.7999 66.1999 86.2999 66.8999 86.2999 66.8999Z" fill="#A5E0EE" stroke="black" stroke-width="0.5" stroke-miterlimit="10"/>
<path d="M69.7 8.19971C74.4 9.19971 77.9 10.6997 80.3 12.3997Z" fill="#888888"/>
<path d="M80.2999 13.8998C79.9999 13.8998 79.6999 13.7998 79.3999 13.5998C76.8999 11.8998 73.5999 10.5998 69.2999 9.6998C69.3999 9.1998 69.7999 7.3998 69.8999 6.7998C74.4999 7.7998 78.2999 9.2998 80.9999 11.1998C81.6999 11.6998 81.8999 12.5998 81.3999 13.2998C81.1999 13.5998 80.6999 13.8998 80.2999 13.8998Z" fill="white"/>
<path d="M21.5 12.5C24 10.7 27.3 9.4 31.6 8.5Z" fill="#888888"/>
<path d="M21.5 14C21 14 20.6 13.8 20.3 13.4C19.8 12.7 20 11.8 20.7 11.3C23.3 9.4 26.8 8 31.3 7C31.5 7.7 31.8 9.2 32 9.9C27.9 10.8 24.8 12.1 22.4 13.7C22.1 13.9 21.8 14 21.5 14Z" fill="white"/>
<defs>
<radialGradient id="paint0_radial_1_771" cx="0" cy="0" r="1" gradientUnits="userSpaceOnUse" gradientTransform="translate(23.3572 186.5) scale(5.2557 5.2557)">
<stop stop-color="#FF0A30"/>
<stop offset="1" stop-color="#C70200"/>
</radialGradient>
<radialGradient id="paint1_radial_1_771" cx="0" cy="0" r="1" gradientUnits="userSpaceOnUse" gradientTransform="translate(76.9024 186.218) rotate(179.295) scale(5.30407 5.30407)">
<stop stop-color="#FF0A30"/>
<stop offset="1" stop-color="#C70200"/>
</radialGradient>
</defs>
</svg>
