<svg width="101" height="194" viewBox="0 0 101 194" fill="none" xmlns="http://www.w3.org/2000/svg">
<path d="M51.0001 1.69971C69.5001 1.69971 91.6001 4.89971 91.6001 25.8997C91.6001 47.7997 91.6001 156.9 91.6001 168.1C91.6001 179.3 86.5001 191.4 71.6001 191.4C48.8001 191.4 44.6001 191.4 30.1001 191.4C15.6001 191.4 8.6001 181.1 8.6001 168.5C8.6001 149.9 8.6001 43.0997 8.6001 26.2997C8.6001 5.89971 28.2001 1.69971 51.0001 1.69971Z" fill="#A7F08C" stroke="black" stroke-width="0.5" stroke-miterlimit="10"/>
<path d="M79.9 12.3999C81.2 13.2999 82.2 14.1999 83 15.2999Z" fill="#888888"/>
<path d="M83.1 16.6999C82.7 16.6999 82.2 16.4999 81.9 16.0999C81.1 15.1999 80.2 14.2999 79.1 13.4999C78.4 12.9999 78.2 12.0999 78.7 11.3999C79.2 10.6999 80.1 10.4999 80.8 10.9999C82.1 11.8999 83.3 12.9999 84.2 14.0999C84.7 14.6999 84.6 15.6999 84 16.1999C83.7 16.5999 83.4 16.6999 83.1 16.6999Z" fill="#FFC600"/>
<path d="M17.5001 16.1999C18.4001 14.7999 19.7001 13.4999 21.2001 12.3999Z" fill="#888888"/>
<path d="M17.5001 17.7001C17.2001 17.7001 16.9001 17.6001 16.7001 17.5001C16.0001 17.0001 15.8001 16.1001 16.3001 15.4001C17.3001 13.8001 18.7001 12.4001 20.4001 11.2001C21.1001 10.7001 22.0001 10.9001 22.5001 11.6001C23.0001 12.3001 22.8001 13.2001 22.1001 13.7001C20.7001 14.7001 19.6001 15.8001 18.8001 17.1001C18.4001 17.5001 17.9001 17.7001 17.5001 17.7001Z" fill="#FFC600"/>
<path d="M50.2 46.1997C43.7 46.1997 27 47.6997 16.1 53.5997C19.8 74.0997 21 84.1997 21 84.1997C21 84.1997 27.4 81.6997 50.2 81.6997C73 81.6997 79.5 84.1997 79.5 84.1997C79.5 84.1997 79.5 74.0997 83.3 53.5997C72.4 47.6997 57.6 46.1997 50.2 46.1997Z" fill="black" stroke="black" stroke-width="0.5" stroke-miterlimit="10"/>
<path d="M19.5 124.7L14 122.4V69.1997H15.2L19 90.3997L19.5 124.7Z" fill="black" stroke="black" stroke-width="0.5" stroke-miterlimit="10"/>
<path d="M19.5 127.9L14 126.4V169.2L19.5 157.2V127.9Z" fill="black" stroke="black" stroke-width="0.5" stroke-miterlimit="10"/>
<path d="M50.7 187.5C65.8 187.2 79 182.8 79 182.8C79 182.8 76.6 177 74.5 171.8C68.6 174.4 57.7 175.3 50 175.3C40.9 175.3 32.2 174.2 25.4 171.6C24.1 174.4 21 182.7 21 182.7C21 182.7 34.2 187.1 49.3 187.4C49.5 187.4 49.7 187.4 50 187.4C50.3 187.5 50.5 187.5 50.7 187.5Z" fill="black" stroke="black" stroke-width="0.5" stroke-miterlimit="10"/>
<path d="M80.6 124.7L86.1 122.4V69.1997H84.9L81.1 90.3997L80.6 124.7Z" fill="black" stroke="black" stroke-width="0.5" stroke-miterlimit="10"/>
<path d="M80.6 127.9L86.1 126.4V169.2L80.6 157.2V127.9Z" fill="black" stroke="black" stroke-width="0.5" stroke-miterlimit="10"/>
<path d="M14.4 185.2C14.4 185.2 20 176 24.3 169.1C27.8 170.7 35.2 173.2 47.6 173.5C47.6 173.5 51.9 173.5 52.8 173.5C65.1 173.1 72.5 170.6 75.9 169C81.6 179.5 85.8 185.8 85.8 185.8" stroke="black" stroke-width="0.5" stroke-miterlimit="10"/>
<path d="M29 190.1C21.8 188.9 18.3 187.2 16.5 185.8C16.9 184.5 17.7 182.9 17.7 182.9C17.7 182.9 17.7 182.9 17.6 182.8C17.6 182.8 19.3 185.4 29.4 187.1L29 190.1Z" fill="url(#paint0_radial_1_649)"/>
<path d="M62.4 189.7C58.8 190.1 55.2 190.3 50.2 190.5H48.6C43.5 190.4 40 190.2 36.4 189.9" stroke="black" stroke-width="3" stroke-miterlimit="10"/>
<path d="M70.6 189.9L70.1 186.9C79.9 185.1 81.8 182.6 81.8 182.5C81.8 182.5 82.8 184.1 83.2 185.2C81.6 186.6 78.1 188.5 70.6 189.9Z" fill="url(#paint1_radial_1_649)"/>
<path d="M31.1 5.9999L30.5 3.0999C36.1 1.9999 42.8 1.3999 51 1.3999C58.1 1.3999 64 1.8999 69.1 2.7999L68.5 5.6999C63.6 4.8999 57.9 4.3999 51 4.3999C43 4.3999 36.5 4.8999 31.1 5.9999Z" fill="black"/>
<path d="M31.3 15.1997L30.3 26.6997C30.3 26.6997 27.3 38.6997 21.8 42.1997" stroke="black" stroke-miterlimit="10" stroke-linecap="round"/>
<path d="M67.8 15.1997L68.8 26.6997C68.8 26.6997 71.8 38.6997 77.3 42.1997" stroke="black" stroke-miterlimit="10" stroke-linecap="round"/>
<path d="M14 66.9001L13.8 64.1001C13.8 64.1001 12 61.1001 7.80005 61.1001C3.60005 61.1001 1.60005 64.6001 1.30005 66.6001C2.50005 66.8001 9.80005 66.1001 9.80005 66.1001C9.80005 66.1001 10 63.1001 11.3 64.6001C12.5 66.2001 14 66.9001 14 66.9001Z" fill="#A7F08C" stroke="black" stroke-width="0.5" stroke-miterlimit="10"/>
<path d="M86 66.9001L86.2 64.1001C86.2 64.1001 88 61.1001 92.2 61.1001C96.4 61.1001 98.4 64.6001 98.7 66.6001C97.5 66.8001 90.2 66.1001 90.2 66.1001C90.2 66.1001 90 63.1001 88.7 64.6001C87.5 66.2001 86 66.9001 86 66.9001Z" fill="#A7F08C" stroke="black" stroke-width="0.5" stroke-miterlimit="10"/>
<path d="M69.3 8.19971C74 9.19971 77.5 10.6997 79.9 12.3997Z" fill="#888888"/>
<path d="M79.9 13.8998C79.6 13.8998 79.3 13.7998 79 13.5998C76.5 11.8998 73.2 10.5998 68.9 9.6998C69 9.1998 69.4 7.3998 69.5 6.7998C74.1 7.7998 77.9 9.2998 80.6 11.1998C81.3 11.6998 81.5 12.5998 81 13.2998C80.9 13.5998 80.4 13.8998 79.9 13.8998Z" fill="white"/>
<path d="M21.2001 12.5C23.7001 10.7 27.0001 9.4 31.3001 8.5Z" fill="#888888"/>
<path d="M21.2 14C20.7 14 20.3 13.8 20 13.4C19.5 12.7 19.7 11.8 20.4 11.3C23 9.4 26.5 8 31 7C31.2 7.7 31.5 9.2 31.7 9.9C27.6 10.8 24.5 12.1 22.1 13.7C21.8 13.9 21.5 14 21.2 14Z" fill="white"/>
<defs>
<radialGradient id="paint0_radial_1_649" cx="0" cy="0" r="1" gradientUnits="userSpaceOnUse" gradientTransform="translate(23.017 186.499) scale(5.2557 5.2557)">
<stop stop-color="#FF0A30"/>
<stop offset="1" stop-color="#C70200"/>
</radialGradient>
<radialGradient id="paint1_radial_1_649" cx="0" cy="0" r="1" gradientUnits="userSpaceOnUse" gradientTransform="translate(76.5976 186.218) rotate(179.295) scale(5.30407 5.30407)">
<stop stop-color="#FF0A30"/>
<stop offset="1" stop-color="#C70200"/>
</radialGradient>
</defs>
</svg>
