<svg width="93" height="303" viewBox="0 0 93 303" fill="none" xmlns="http://www.w3.org/2000/svg">
<path d="M64.1999 4.2001C78.4999 4.2001 81.3 20.3001 81.3 20.3001L80.7 70.5001L77.3 75.0001H49.9H42.7999H15.5L10.2 70.7001V20.2001C10.2 20.2001 14.4 4.1001 28.6 4.1001C42.8 4.1001 49.8999 4.2001 64.1999 4.2001Z" fill="#E58E98" stroke="black" stroke-width="0.5" stroke-miterlimit="10"/>
<path d="M46.9 23.2002C46.5 23.2002 44.8 23.2002 44.4 23.2002C25.6 23.2002 15.2 28.2002 15.2 28.2002L16.4 42.5002C27.2 39.5002 44.4 39.5002 44.4 39.5002H46.9C46.9 39.5002 64.1 39.5002 74.9 42.5002L76.0999 28.2002C76.1999 28.2002 65.7 23.2002 46.9 23.2002Z" fill="black"/>
<path d="M62.9 5.9002V4.2002H29.9V5.9002H23.9V6.9002H34.2V8.9002H57.7V6.9002H67.9V5.9002H62.9Z" fill="black"/>
<path d="M14.8 42.8001L13.9 33.4001L11.9 34.9001V43.9001L14.8 42.8001Z" fill="black"/>
<path d="M11.9 46.1001L12 68.9001L14.2 70.4001L14.9 44.9001L11.9 46.1001Z" fill="black"/>
<path d="M11.9 33.0001L11.7 25.9001L9.69999 28.8001L2.59999 31.2001C2.59999 31.2001 0.59999 31.6001 1.49999 33.7001C3.59999 32.9001 9.99999 31.2001 9.99999 31.2001L11.9 33.0001Z" fill="#E58E98" stroke="black" stroke-width="0.5" stroke-miterlimit="10"/>
<path d="M76.2 42.8001L77.1 33.4001L79.1 34.9001V43.9001L76.2 42.8001Z" fill="black"/>
<path d="M79.1 46.1001L79 68.9001L76.8 70.4001L76.1 44.9001L79.1 46.1001Z" fill="black"/>
<path d="M79.1 33.0001L79.3 25.9001L81.3 28.8001L88.4 31.2001C88.4 31.2001 90.4 31.6001 89.5 33.7001C87.4 32.9001 81 31.2001 81 31.2001L79.1 33.0001Z" fill="#E58E98" stroke="black" stroke-width="0.5" stroke-miterlimit="10"/>
<path d="M77.3 75.2002H16.6V85.2002H77.3V75.2002Z" fill="#E58E98" stroke="black" stroke-width="0.5" stroke-miterlimit="10"/>
<path d="M82.2 293.4C82.2 296.7 79.5 299.4 76.2 299.4H15.8C12.5 299.4 9.80005 296.7 9.80005 293.4V83.9001C9.80005 80.6001 12.5 77.9001 15.8 77.9001H76.2C79.5 77.9001 82.2 80.6001 82.2 83.9001V293.4Z" fill="#E58E98" stroke="black" stroke-width="0.5" stroke-miterlimit="10"/>
<path d="M16.9 78.3V299.2" stroke="black" stroke-width="0.5" stroke-miterlimit="10"/>
<path d="M26.8 78.3V299.2" stroke="black" stroke-width="0.5" stroke-miterlimit="10"/>
<path d="M36.7 78.3V299.2" stroke="black" stroke-width="0.5" stroke-miterlimit="10"/>
<path d="M46.6 78.3V299.2" stroke="black" stroke-width="0.5" stroke-miterlimit="10"/>
<path d="M56.5 78.3V299.2" stroke="black" stroke-width="0.5" stroke-miterlimit="10"/>
<path d="M66.4 78.3V299.2" stroke="black" stroke-width="0.5" stroke-miterlimit="10"/>
<path d="M76.2 78.3V299.2" stroke="black" stroke-width="0.5" stroke-miterlimit="10"/>
<path d="M26.6 297.6H17.2V299.2H26.6V297.6Z" fill="url(#paint0_linear_1_832)"/>
<path d="M75.9 297.6H66.5V299.2H75.9V297.6Z" fill="url(#paint1_linear_1_832)"/>
<defs>
<linearGradient id="paint0_linear_1_832" x1="17.1691" y1="298.364" x2="26.5422" y2="298.364" gradientUnits="userSpaceOnUse">
<stop stop-color="#FFAFAE"/>
<stop offset="1" stop-color="#FF0A30"/>
</linearGradient>
<linearGradient id="paint1_linear_1_832" x1="66.5441" y1="298.364" x2="75.9172" y2="298.364" gradientUnits="userSpaceOnUse">
<stop stop-color="#FFAFAE"/>
<stop offset="1" stop-color="#FF0A30"/>
</linearGradient>
</defs>
</svg>
