<svg width="101" height="194" viewBox="0 0 101 194" fill="none" xmlns="http://www.w3.org/2000/svg">
<path d="M51.4 1.69995C69.9 1.69995 92 4.79995 92 25.9C92 47.7999 92 156.9 92 168.1C92 179.3 86.9 191.4 72 191.4C49.2 191.4 45 191.4 30.5 191.4C16 191.4 9 181.1 9 168.5C9 149.9 9 43.1999 9 26.4C9 5.89995 28.6 1.69995 51.4 1.69995Z" fill="#B1001C" stroke="black" stroke-width="0.5" stroke-miterlimit="10"/>
<path d="M80.3 12.3999C81.6 13.2999 82.6 14.1999 83.4 15.2999Z" fill="#888888"/>
<path d="M83.5 16.6999C83.1 16.6999 82.6 16.4999 82.3 16.0999C81.5 15.1999 80.6 14.2999 79.5 13.4999C78.8 12.9999 78.6 12.0999 79.1 11.3999C79.6 10.6999 80.5 10.4999 81.2 10.9999C82.5 11.8999 83.7 12.9999 84.6 14.0999C85.1 14.6999 85 15.6999 84.4 16.1999C84.1 16.5999 83.8 16.6999 83.5 16.6999Z" fill="#FFC600"/>
<path d="M17.9 16.1999C18.8 14.7999 20.1 13.4999 21.6 12.3999Z" fill="#888888"/>
<path d="M17.9 17.6999C17.6 17.6999 17.3 17.5999 17.1 17.4999C16.4 16.9999 16.2 16.0999 16.7 15.3999C17.7 13.7999 19.1 12.3999 20.8 11.1999C21.5 10.6999 22.4 10.8999 22.9 11.5999C23.4 12.2999 23.2 13.1999 22.5 13.6999C21.1 14.6999 20 15.7999 19.2 17.0999C18.8 17.4999 18.4 17.6999 17.9 17.6999Z" fill="#FFC600"/>
<path d="M50.5999 46.2C44.0999 46.2 27.3999 47.6999 16.4999 53.5999C20.1999 74.0999 21.3999 84.1999 21.3999 84.1999C21.3999 84.1999 27.7999 81.6999 50.5999 81.6999C73.3999 81.6999 79.8999 84.1999 79.8999 84.1999C79.8999 84.1999 79.8999 74.0999 83.6999 53.5999C72.7999 47.6999 57.9999 46.2 50.5999 46.2Z" fill="black" stroke="black" stroke-width="0.5" stroke-miterlimit="10"/>
<path d="M19.8999 124.7L14.3999 122.4V69.2H15.5999L19.3999 90.4L19.8999 124.7Z" fill="black" stroke="black" stroke-width="0.5" stroke-miterlimit="10"/>
<path d="M19.8999 127.9L14.3999 126.4V169.2L19.8999 157.2V127.9Z" fill="black" stroke="black" stroke-width="0.5" stroke-miterlimit="10"/>
<path d="M51.0999 187.5C66.1999 187.2 79.3999 182.8 79.3999 182.8C79.3999 182.8 76.9999 177 74.8999 171.8C68.9999 174.4 58.0999 175.3 50.3999 175.3C41.2999 175.3 32.5999 174.2 25.7999 171.6C24.4999 174.4 21.3999 182.7 21.3999 182.7C21.3999 182.7 34.5999 187.1 49.6999 187.4C49.8999 187.4 50.0999 187.4 50.3999 187.4C50.6999 187.5 50.8999 187.5 51.0999 187.5Z" fill="black" stroke="black" stroke-width="0.5" stroke-miterlimit="10"/>
<path d="M81.0999 124.7L86.5999 122.4V69.2H85.2999L81.5999 90.4L81.0999 124.7Z" fill="black" stroke="black" stroke-width="0.5" stroke-miterlimit="10"/>
<path d="M81.0999 127.9L86.5999 126.4V169.2L81.0999 157.2V127.9Z" fill="black" stroke="black" stroke-width="0.5" stroke-miterlimit="10"/>
<path d="M14.7999 185.2C14.7999 185.2 20.3999 176 24.6999 169.1C28.1999 170.7 35.5999 173.2 47.9999 173.5C47.9999 173.5 52.2999 173.5 53.1999 173.5C65.4999 173.1 72.8999 170.6 76.2999 169C81.9999 179.5 86.1999 185.8 86.1999 185.8" stroke="black" stroke-width="0.5" stroke-miterlimit="10"/>
<path d="M29.3999 190.1C22.1999 188.9 18.6999 187.2 16.8999 185.8C17.2999 184.5 18.0999 182.9 18.0999 182.9C18.0999 182.9 18.0999 182.9 17.9999 182.8C17.9999 182.8 19.6999 185.4 29.7999 187.1L29.3999 190.1Z" fill="url(#paint0_radial_1_856)"/>
<path d="M62.7999 189.7C59.1999 190.1 55.5999 190.3 50.5999 190.5H48.9999C43.8999 190.4 40.3999 190.2 36.7999 189.9" stroke="black" stroke-width="3" stroke-miterlimit="10"/>
<path d="M70.9999 189.9L70.4999 186.9C80.2999 185.1 82.1999 182.6 82.1999 182.5C82.1999 182.5 83.1999 184.1 83.5999 185.2C81.9999 186.6 78.4999 188.5 70.9999 189.9Z" fill="url(#paint1_radial_1_856)"/>
<path d="M31.5 5.9999L31 3.0999C36.5 1.9999 43.2 1.3999 51.4 1.3999C58.5 1.3999 64.4 1.8999 69.5 2.7999L68.9 5.6999C64 4.7999 58.3 4.2999 51.4 4.2999C43.4 4.3999 36.9 4.8999 31.5 5.9999Z" fill="black"/>
<path d="M31.7 15.2L30.7 26.7C30.7 26.7 27.7 38.7 22.2 42.2" stroke="black" stroke-miterlimit="10"/>
<path d="M68.2 15.2L69.2 26.7C69.2 26.7 72.2 38.7 77.7 42.2" stroke="black" stroke-miterlimit="10"/>
<path d="M14.4 66.8999L14.2 64.0999C14.2 64.0999 12.4 61.0999 8.19995 61.0999C3.99995 61.0999 1.99995 64.5999 1.69995 66.5999C2.89995 66.7999 10.2 66.0999 10.2 66.0999C10.2 66.0999 10.4 63.0999 11.7 64.5999C12.9 66.1999 14.4 66.8999 14.4 66.8999Z" fill="#B1001C" stroke="black" stroke-width="0.5" stroke-miterlimit="10"/>
<path d="M86.3999 66.8999L86.5999 64.0999C86.5999 64.0999 88.3999 61.0999 92.5999 61.0999C96.7999 61.0999 98.7999 64.5999 99.0999 66.5999C97.8999 66.7999 90.5999 66.0999 90.5999 66.0999C90.5999 66.0999 90.3999 63.0999 89.0999 64.5999C87.8999 66.1999 86.3999 66.8999 86.3999 66.8999Z" fill="#B1001C" stroke="black" stroke-width="0.5" stroke-miterlimit="10"/>
<path d="M69.7 8.19971C74.4 9.19971 77.9 10.6997 80.3 12.3997Z" fill="#888888"/>
<path d="M80.2999 13.8998C79.9999 13.8998 79.6999 13.7998 79.3999 13.5998C76.8999 11.8998 73.5999 10.5998 69.2999 9.6998C69.3999 9.1998 69.7999 7.3998 69.8999 6.7998C74.4999 7.7998 78.2999 9.2998 80.9999 11.1998C81.6999 11.6998 81.8999 12.5998 81.3999 13.2998C81.2999 13.5998 80.7999 13.8998 80.2999 13.8998Z" fill="white"/>
<path d="M21.6 12.5C24.1 10.7 27.4 9.4 31.7 8.5Z" fill="#888888"/>
<path d="M21.5999 14C21.0999 14 20.6999 13.8 20.3999 13.4C19.8999 12.7 20.0999 11.8 20.7999 11.3C23.3999 9.4 26.8999 8 31.3999 7C31.5999 7.7 31.8999 9.2 32.0999 9.9C27.9999 10.8 24.8999 12.1 22.4999 13.7C22.1999 13.9 21.8999 14 21.5999 14Z" fill="white"/>
<defs>
<radialGradient id="paint0_radial_1_856" cx="0" cy="0" r="1" gradientUnits="userSpaceOnUse" gradientTransform="translate(23.4326 186.5) scale(5.2557 5.2557)">
<stop stop-color="#FF0A30"/>
<stop offset="1" stop-color="#C70200"/>
</radialGradient>
<radialGradient id="paint1_radial_1_856" cx="0" cy="0" r="1" gradientUnits="userSpaceOnUse" gradientTransform="translate(76.9673 186.217) rotate(179.295) scale(5.30407 5.30407)">
<stop stop-color="#FF0A30"/>
<stop offset="1" stop-color="#C70200"/>
</radialGradient>
</defs>
</svg>
