<svg width="101" height="194" viewBox="0 0 101 194" fill="none" xmlns="http://www.w3.org/2000/svg">
<path d="M51 1.69971C69.5 1.69971 91.6 4.89971 91.6 25.8997C91.6 47.7997 91.6 156.9 91.6 168.1C91.6 179.3 86.5 191.4 71.6 191.4C48.8 191.4 44.6 191.4 30.1 191.4C15.6 191.4 8.59998 181.1 8.59998 168.5C8.59998 149.9 8.59998 43.0997 8.59998 26.2997C8.59998 5.89971 28.2 1.69971 51 1.69971Z" fill="#CDA891" stroke="black" stroke-width="0.5" stroke-miterlimit="10"/>
<path d="M80 12.3999C81.3 13.2999 82.3 14.1999 83.1 15.2999Z" fill="#888888"/>
<path d="M83.1 16.6999C82.7 16.6999 82.2 16.4999 81.9 16.0999C81.1 15.1999 80.2 14.2999 79.1 13.4999C78.4 12.9999 78.2 12.0999 78.7 11.3999C79.2 10.6999 80.1 10.4999 80.8 10.9999C82.1 11.8999 83.3 12.9999 84.2 14.0999C84.7 14.6999 84.6 15.6999 84 16.1999C83.8 16.5999 83.4 16.6999 83.1 16.6999Z" fill="#FFC600"/>
<path d="M17.5 16.1999C18.4 14.7999 19.7 13.4999 21.2 12.3999Z" fill="#888888"/>
<path d="M17.5 17.6999C17.2 17.6999 16.9 17.5999 16.7 17.4999C16 16.9999 15.8 16.0999 16.3 15.3999C17.3 13.7999 18.7 12.3999 20.4 11.1999C21.1 10.6999 22 10.8999 22.5 11.5999C23 12.2999 22.8 13.1999 22.1 13.6999C20.7 14.6999 19.6 15.7999 18.8 17.0999C18.5 17.4999 18 17.6999 17.5 17.6999Z" fill="#FFC600"/>
<path d="M50.2999 46.2C43.7999 46.2 27.1 47.6999 16.2 53.5999C19.9 74.0999 21.1 84.1999 21.1 84.1999C21.1 84.1999 27.5 81.6999 50.2999 81.6999C73.0999 81.6999 79.5999 84.1999 79.5999 84.1999C79.5999 84.1999 79.5999 74.0999 83.3999 53.5999C72.3999 47.6999 57.5999 46.2 50.2999 46.2Z" fill="black" stroke="black" stroke-width="0.5" stroke-miterlimit="10"/>
<path d="M19.5 124.7L14 122.4V69.2H15.3L19 90.4L19.5 124.7Z" fill="black" stroke="black" stroke-width="0.5" stroke-miterlimit="10"/>
<path d="M19.5 127.9L14 126.4V169.2L19.5 157.2V127.9Z" fill="black" stroke="black" stroke-width="0.5" stroke-miterlimit="10"/>
<path d="M50.8 187.5C65.9 187.2 79.1 182.8 79.1 182.8C79.1 182.8 76.7 177 74.6 171.8C68.7 174.4 57.8 175.3 50.1 175.3C41 175.3 32.3 174.2 25.5 171.6C24.2 174.4 21.1 182.7 21.1 182.7C21.1 182.7 34.3 187.1 49.4 187.4C49.6 187.4 49.8 187.4 50.1 187.4C50.3 187.5 50.6 187.5 50.8 187.5Z" fill="black" stroke="black" stroke-width="0.5" stroke-miterlimit="10"/>
<path d="M80.7 124.7L86.2 122.4V69.2H84.9L81.2 90.4L80.7 124.7Z" fill="black" stroke="black" stroke-width="0.5" stroke-miterlimit="10"/>
<path d="M80.7 127.9L86.2 126.4V169.2L80.7 157.2V127.9Z" fill="black" stroke="black" stroke-width="0.5" stroke-miterlimit="10"/>
<path d="M14.5 185.2C14.5 185.2 20.1 176 24.4 169.1C27.9 170.7 35.3 173.2 47.7 173.5C47.7 173.5 52 173.5 52.9 173.5C65.2 173.1 72.6 170.6 76 169C81.7 179.5 85.9 185.8 85.9 185.8" stroke="black" stroke-width="0.5" stroke-miterlimit="10"/>
<path d="M29 190.1C21.8 188.9 18.3 187.2 16.5 185.8C16.9 184.5 17.7 182.9 17.7 182.9C17.7 182.9 17.7 182.9 17.6 182.8C17.6 182.8 19.3 185.4 29.4 187.1L29 190.1Z" fill="url(#paint0_radial_1_734)"/>
<path d="M62.5 189.7C58.9 190.1 55.3 190.3 50.3 190.5H48.7C43.6 190.4 40.1 190.2 36.5 189.9" stroke="black" stroke-width="3" stroke-miterlimit="10"/>
<path d="M70.6 189.9L70.1 186.9C79.9 185.1 81.8 182.6 81.8 182.5C81.8 182.5 82.8 184.1 83.2 185.2C81.6 186.6 78.1 188.5 70.6 189.9Z" fill="url(#paint1_radial_1_734)"/>
<path d="M31.2 5.9999L30.6 3.0999C36.2 1.9999 42.8 1.3999 51 1.3999C58.1 1.3999 64 1.8999 69.1 2.7999L68.5 5.6999C63.7 4.8999 58 4.3999 51 4.3999C43 4.3999 36.6 4.8999 31.2 5.9999Z" fill="black"/>
<path d="M31.4 15.2L30.4 26.7C30.4 26.7 27.4 38.7 21.9 42.2" stroke="black" stroke-miterlimit="10"/>
<path d="M67.8 15.2L68.8 26.7C68.8 26.7 71.8 38.7 77.3 42.2" stroke="black" stroke-miterlimit="10"/>
<path d="M14.1 66.8999L13.9 64.0999C13.9 64.0999 12.1 61.0999 7.90002 61.0999C3.70002 61.0999 1.70002 64.5999 1.40002 66.5999C2.60002 66.7999 9.90002 66.0999 9.90002 66.0999C9.90002 66.0999 10.1 63.0999 11.4 64.5999C12.6 66.1999 14.1 66.8999 14.1 66.8999Z" fill="#CDA891" stroke="black" stroke-width="0.5" stroke-miterlimit="10"/>
<path d="M86.1 66.8999L86.3 64.0999C86.3 64.0999 88.1 61.0999 92.3 61.0999C96.5 61.0999 98.5 64.5999 98.8 66.5999C97.6 66.7999 90.3 66.0999 90.3 66.0999C90.3 66.0999 90.1 63.0999 88.8 64.5999C87.6 66.1999 86.1 66.8999 86.1 66.8999Z" fill="#CDA891" stroke="black" stroke-width="0.5" stroke-miterlimit="10"/>
<path d="M69.4 8.19971C74.1 9.19971 77.6 10.6997 80 12.3997Z" fill="#888888"/>
<path d="M80 13.8998C79.7 13.8998 79.4 13.7998 79.1 13.5998C76.6 11.8998 73.3 10.5998 69 9.6998C69.1 9.1998 69.5 7.3998 69.6 6.7998C74.2 7.7998 78 9.2998 80.7 11.1998C81.4 11.6998 81.6 12.5998 81.1 13.2998C80.9 13.5998 80.5 13.8998 80 13.8998Z" fill="white"/>
<path d="M21.3 12.5C23.8 10.7 27.1 9.4 31.4 8.5Z" fill="#888888"/>
<path d="M21.3 14C20.8 14 20.4 13.8 20.1 13.4C19.6 12.7 19.8 11.8 20.5 11.3C23.1 9.4 26.5 8 31 7C31.2 7.7 31.5 9.2 31.7 9.9C27.6 10.8 24.5 12.1 22.1 13.7C21.9 13.9 21.6 14 21.3 14Z" fill="white"/>
<defs>
<radialGradient id="paint0_radial_1_734" cx="0" cy="0" r="1" gradientUnits="userSpaceOnUse" gradientTransform="translate(23.0716 186.5) scale(5.2557 5.2557)">
<stop stop-color="#FF0A30"/>
<stop offset="1" stop-color="#C70200"/>
</radialGradient>
<radialGradient id="paint1_radial_1_734" cx="0" cy="0" r="1" gradientUnits="userSpaceOnUse" gradientTransform="translate(76.6368 186.218) rotate(179.295) scale(5.30407 5.30407)">
<stop stop-color="#FF0A30"/>
<stop offset="1" stop-color="#C70200"/>
</radialGradient>
</defs>
</svg>
