<svg version="1.1" id="Layer_1" 
	 xmlns="http://www.w3.org/2000/svg" xmlnsXlink="http://www.w3.org/1999/xlink"
	 x="0px" y="0px" width="672px" height="672px" viewBox="0 0 672 672" style="enable-background:new 0 0 672 672;"
	 xml:space="preserve">
<style type="text/css">
	.st0{fill:none;}
	.st1{fill:none;stroke:#7B7B7B;stroke-miterlimit:10;}
	.st2{fill:url(#New_Pattern_Swatch_2);}
</style>
<pattern  x="-267" y="672" width="373.2" height="326.5" patternUnits="userSpaceOnUse" id="New_Pattern_Swatch_2" viewBox="36.7 -354.3 373.2 326.5" style="overflow:visible;">
	<g>
		<polygon class="st0" points="36.7,-354.3 409.8,-354.3 409.8,-27.8 36.7,-27.8 		"/>
		<g>
			<g>
				<polygon class="st1" points="11,-345.3 0.6,-363.4 11,-381.6 31.7,-381.6 42.1,-363.4 31.7,-345.3 				"/>
			</g>
		</g>
		<g>
			<g>
				<polygon class="st1" points="72.8,-345.3 62.4,-363.4 72.8,-381.6 93.6,-381.6 103.9,-363.4 93.6,-345.3 				"/>
				<polygon class="st1" points="135.1,-345.3 124.7,-363.4 135.1,-381.6 155.8,-381.6 166.2,-363.4 155.8,-345.3 				"/>
				<polygon class="st1" points="197.3,-345.3 187,-363.4 197.3,-381.6 218.1,-381.6 228.5,-363.4 218.1,-345.3 				"/>
				<polygon class="st1" points="259.6,-345.3 249.2,-363.4 259.6,-381.6 280.4,-381.6 290.7,-363.4 280.4,-345.3 				"/>
				<polygon class="st1" points="321.9,-345.3 311.5,-363.4 321.9,-381.6 342.6,-381.6 353,-363.4 342.6,-345.3 				"/>
				<polygon class="st1" points="384.1,-345.3 373.8,-363.4 384.1,-381.6 404.9,-381.6 415.3,-363.4 404.9,-345.3 				"/>
			</g>
		</g>
		<g>
			<g>
				<polygon class="st1" points="11,-308.9 0.6,-327 11,-345.1 31.7,-345.1 42.1,-327 31.7,-308.9 				"/>
				<polygon class="st1" points="11,-272.6 0.6,-290.7 11,-308.9 31.7,-308.9 42.1,-290.7 31.7,-272.6 				"/>
				<polygon class="st1" points="11,-236.3 0.6,-254.5 11,-272.6 31.7,-272.6 42.1,-254.5 31.7,-236.3 				"/>
				<polygon class="st1" points="11,-200.1 0.6,-218.2 11,-236.3 31.7,-236.3 42.1,-218.2 31.7,-200.1 				"/>
				<polygon class="st1" points="11,-163.8 0.6,-181.9 11,-200.1 31.7,-200.1 42.1,-181.9 31.7,-163.8 				"/>
				<polygon class="st1" points="11,-127.6 0.6,-145.7 11,-163.8 31.7,-163.8 42.1,-145.7 31.7,-127.6 				"/>
				<polygon class="st1" points="11,-91.3 0.6,-109.4 11,-127.6 31.7,-127.6 42.1,-109.4 31.7,-91.3 				"/>
				<polygon class="st1" points="11,-55 0.6,-73.2 11,-91.3 31.7,-91.3 42.1,-73.2 31.7,-55 				"/>
				<polygon class="st1" points="11,-18.8 0.6,-36.9 11,-55 31.7,-55 42.1,-36.9 31.7,-18.8 				"/>
			</g>
		</g>
		<g>
			<g>
				<polygon class="st1" points="41.6,-327 31.2,-345.2 41.6,-363.3 62.4,-363.3 72.7,-345.2 62.4,-327 				"/>
				<polygon class="st1" points="41.6,-290.8 31.2,-308.9 41.6,-327 62.4,-327 72.7,-308.9 62.4,-290.8 				"/>
				<polygon class="st1" points="41.6,-254.5 31.2,-272.6 41.6,-290.8 62.4,-290.8 72.7,-272.6 62.4,-254.5 				"/>
				<polygon class="st1" points="41.6,-218.2 31.2,-236.4 41.6,-254.5 62.4,-254.5 72.7,-236.4 62.4,-218.2 				"/>
				<polygon class="st1" points="41.6,-182 31.2,-200.1 41.6,-218.2 62.4,-218.2 72.7,-200.1 62.4,-182 				"/>
				<polygon class="st1" points="41.6,-145.7 31.2,-163.8 41.6,-182 62.4,-182 72.7,-163.8 62.4,-145.7 				"/>
				<polygon class="st1" points="41.6,-109.4 31.2,-127.6 41.6,-145.7 62.4,-145.7 72.7,-127.6 62.4,-109.4 				"/>
				<polygon class="st1" points="41.6,-73.2 31.2,-91.3 41.6,-109.4 62.4,-109.4 72.7,-91.3 62.4,-73.2 				"/>
				<polygon class="st1" points="41.6,-36.9 31.2,-55 41.6,-73.2 62.4,-73.2 72.7,-55 62.4,-36.9 				"/>
				<polygon class="st1" points="72.8,-308.9 62.4,-327 72.8,-345.1 93.6,-345.1 103.9,-327 93.6,-308.9 				"/>
				<polygon class="st1" points="72.8,-272.6 62.4,-290.7 72.8,-308.9 93.6,-308.9 103.9,-290.7 93.6,-272.6 				"/>
				<polygon class="st1" points="72.8,-236.3 62.4,-254.5 72.8,-272.6 93.6,-272.6 103.9,-254.5 93.6,-236.3 				"/>
				<polygon class="st1" points="72.8,-200.1 62.4,-218.2 72.8,-236.3 93.6,-236.3 103.9,-218.2 93.6,-200.1 				"/>
				<polygon class="st1" points="72.8,-163.8 62.4,-181.9 72.8,-200.1 93.6,-200.1 103.9,-181.9 93.6,-163.8 				"/>
				<polygon class="st1" points="72.8,-127.6 62.4,-145.7 72.8,-163.8 93.6,-163.8 103.9,-145.7 93.6,-127.6 				"/>
				<polygon class="st1" points="72.8,-91.3 62.4,-109.4 72.8,-127.6 93.6,-127.6 103.9,-109.4 93.6,-91.3 				"/>
				<polygon class="st1" points="72.8,-55 62.4,-73.2 72.8,-91.3 93.6,-91.3 103.9,-73.2 93.6,-55 				"/>
				<polygon class="st1" points="72.8,-18.8 62.4,-36.9 72.8,-55 93.6,-55 103.9,-36.9 93.6,-18.8 				"/>
				<polygon class="st1" points="103.9,-327 93.5,-345.2 103.9,-363.3 124.6,-363.3 135,-345.2 124.6,-327 				"/>
				<polygon class="st1" points="103.9,-290.8 93.5,-308.9 103.9,-327 124.6,-327 135,-308.9 124.6,-290.8 				"/>
				<polygon class="st1" points="103.9,-254.5 93.5,-272.6 103.9,-290.8 124.6,-290.8 135,-272.6 124.6,-254.5 				"/>
				<polygon class="st1" points="103.9,-218.2 93.5,-236.4 103.9,-254.5 124.6,-254.5 135,-236.4 124.6,-218.2 				"/>
				<polygon class="st1" points="103.9,-182 93.5,-200.1 103.9,-218.2 124.6,-218.2 135,-200.1 124.6,-182 				"/>
				<polygon class="st1" points="103.9,-145.7 93.5,-163.8 103.9,-182 124.6,-182 135,-163.8 124.6,-145.7 				"/>
				<polygon class="st1" points="103.9,-109.4 93.5,-127.6 103.9,-145.7 124.6,-145.7 135,-127.6 124.6,-109.4 				"/>
				<polygon class="st1" points="103.9,-73.2 93.5,-91.3 103.9,-109.4 124.6,-109.4 135,-91.3 124.6,-73.2 				"/>
				<polygon class="st1" points="103.9,-36.9 93.5,-55 103.9,-73.2 124.6,-73.2 135,-55 124.6,-36.9 				"/>
				<polygon class="st1" points="135.1,-308.9 124.7,-327 135.1,-345.1 155.8,-345.1 166.2,-327 155.8,-308.9 				"/>
				<polygon class="st1" points="135.1,-272.6 124.7,-290.7 135.1,-308.9 155.8,-308.9 166.2,-290.7 155.8,-272.6 				"/>
				<polygon class="st1" points="135.1,-236.3 124.7,-254.5 135.1,-272.6 155.8,-272.6 166.2,-254.5 155.8,-236.3 				"/>
				<polygon class="st1" points="135.1,-200.1 124.7,-218.2 135.1,-236.3 155.8,-236.3 166.2,-218.2 155.8,-200.1 				"/>
				<polygon class="st1" points="135.1,-163.8 124.7,-181.9 135.1,-200.1 155.8,-200.1 166.2,-181.9 155.8,-163.8 				"/>
				<polygon class="st1" points="135.1,-127.6 124.7,-145.7 135.1,-163.8 155.8,-163.8 166.2,-145.7 155.8,-127.6 				"/>
				<polygon class="st1" points="135.1,-91.3 124.7,-109.4 135.1,-127.6 155.8,-127.6 166.2,-109.4 155.8,-91.3 				"/>
				<polygon class="st1" points="135.1,-55 124.7,-73.2 135.1,-91.3 155.8,-91.3 166.2,-73.2 155.8,-55 				"/>
				<polygon class="st1" points="135.1,-18.8 124.7,-36.9 135.1,-55 155.8,-55 166.2,-36.9 155.8,-18.8 				"/>
				<polygon class="st1" points="166.1,-327 155.8,-345.2 166.1,-363.3 186.9,-363.3 197.3,-345.2 186.9,-327 				"/>
				<polygon class="st1" points="166.1,-290.8 155.8,-308.9 166.1,-327 186.9,-327 197.3,-308.9 186.9,-290.8 				"/>
				<polygon class="st1" points="166.1,-254.5 155.8,-272.6 166.1,-290.8 186.9,-290.8 197.3,-272.6 186.9,-254.5 				"/>
				<polygon class="st1" points="166.1,-218.2 155.8,-236.4 166.1,-254.5 186.9,-254.5 197.3,-236.4 186.9,-218.2 				"/>
				<polygon class="st1" points="166.1,-182 155.8,-200.1 166.1,-218.2 186.9,-218.2 197.3,-200.1 186.9,-182 				"/>
				<polygon class="st1" points="166.1,-145.7 155.8,-163.8 166.1,-182 186.9,-182 197.3,-163.8 186.9,-145.7 				"/>
				<polygon class="st1" points="166.1,-109.4 155.8,-127.6 166.1,-145.7 186.9,-145.7 197.3,-127.6 186.9,-109.4 				"/>
				<polygon class="st1" points="166.1,-73.2 155.8,-91.3 166.1,-109.4 186.9,-109.4 197.3,-91.3 186.9,-73.2 				"/>
				<polygon class="st1" points="166.1,-36.9 155.8,-55 166.1,-73.2 186.9,-73.2 197.3,-55 186.9,-36.9 				"/>
				<polygon class="st1" points="197.3,-308.9 187,-327 197.3,-345.1 218.1,-345.1 228.5,-327 218.1,-308.9 				"/>
				<polygon class="st1" points="197.3,-272.6 187,-290.7 197.3,-308.9 218.1,-308.9 228.5,-290.7 218.1,-272.6 				"/>
				<polygon class="st1" points="197.3,-236.3 187,-254.5 197.3,-272.6 218.1,-272.6 228.5,-254.5 218.1,-236.3 				"/>
				<polygon class="st1" points="197.3,-200.1 187,-218.2 197.3,-236.3 218.1,-236.3 228.5,-218.2 218.1,-200.1 				"/>
				<polygon class="st1" points="197.3,-163.8 187,-181.9 197.3,-200.1 218.1,-200.1 228.5,-181.9 218.1,-163.8 				"/>
				<polygon class="st1" points="197.3,-127.6 187,-145.7 197.3,-163.8 218.1,-163.8 228.5,-145.7 218.1,-127.6 				"/>
				<polygon class="st1" points="197.3,-91.3 187,-109.4 197.3,-127.6 218.1,-127.6 228.5,-109.4 218.1,-91.3 				"/>
				<polygon class="st1" points="197.3,-55 187,-73.2 197.3,-91.3 218.1,-91.3 228.5,-73.2 218.1,-55 				"/>
				<polygon class="st1" points="197.3,-18.8 187,-36.9 197.3,-55 218.1,-55 228.5,-36.9 218.1,-18.8 				"/>
				<polygon class="st1" points="228.4,-327 218,-345.2 228.4,-363.3 249.2,-363.3 259.5,-345.2 249.2,-327 				"/>
				<polygon class="st1" points="228.4,-290.8 218,-308.9 228.4,-327 249.2,-327 259.5,-308.9 249.2,-290.8 				"/>
				<polygon class="st1" points="228.4,-254.5 218,-272.6 228.4,-290.8 249.2,-290.8 259.5,-272.6 249.2,-254.5 				"/>
				<polygon class="st1" points="228.4,-218.2 218,-236.4 228.4,-254.5 249.2,-254.5 259.5,-236.4 249.2,-218.2 				"/>
				<polygon class="st1" points="228.4,-182 218,-200.1 228.4,-218.2 249.2,-218.2 259.5,-200.1 249.2,-182 				"/>
				<polygon class="st1" points="228.4,-145.7 218,-163.8 228.4,-182 249.2,-182 259.5,-163.8 249.2,-145.7 				"/>
				<polygon class="st1" points="228.4,-109.4 218,-127.6 228.4,-145.7 249.2,-145.7 259.5,-127.6 249.2,-109.4 				"/>
				<polygon class="st1" points="228.4,-73.2 218,-91.3 228.4,-109.4 249.2,-109.4 259.5,-91.3 249.2,-73.2 				"/>
				<polygon class="st1" points="228.4,-36.9 218,-55 228.4,-73.2 249.2,-73.2 259.5,-55 249.2,-36.9 				"/>
				<polygon class="st1" points="259.6,-308.9 249.2,-327 259.6,-345.1 280.4,-345.1 290.7,-327 280.4,-308.9 				"/>
				<polygon class="st1" points="259.6,-272.6 249.2,-290.7 259.6,-308.9 280.4,-308.9 290.7,-290.7 280.4,-272.6 				"/>
				<polygon class="st1" points="259.6,-236.3 249.2,-254.5 259.6,-272.6 280.4,-272.6 290.7,-254.5 280.4,-236.3 				"/>
				<polygon class="st1" points="259.6,-200.1 249.2,-218.2 259.6,-236.3 280.4,-236.3 290.7,-218.2 280.4,-200.1 				"/>
				<polygon class="st1" points="259.6,-163.8 249.2,-181.9 259.6,-200.1 280.4,-200.1 290.7,-181.9 280.4,-163.8 				"/>
				<polygon class="st1" points="259.6,-127.6 249.2,-145.7 259.6,-163.8 280.4,-163.8 290.7,-145.7 280.4,-127.6 				"/>
				<polygon class="st1" points="259.6,-91.3 249.2,-109.4 259.6,-127.6 280.4,-127.6 290.7,-109.4 280.4,-91.3 				"/>
				<polygon class="st1" points="259.6,-55 249.2,-73.2 259.6,-91.3 280.4,-91.3 290.7,-73.2 280.4,-55 				"/>
				<polygon class="st1" points="259.6,-18.8 249.2,-36.9 259.6,-55 280.4,-55 290.7,-36.9 280.4,-18.8 				"/>
				<polygon class="st1" points="290.7,-327 280.3,-345.2 290.7,-363.3 311.4,-363.3 321.8,-345.2 311.4,-327 				"/>
				<polygon class="st1" points="290.7,-290.8 280.3,-308.9 290.7,-327 311.4,-327 321.8,-308.9 311.4,-290.8 				"/>
				<polygon class="st1" points="290.7,-254.5 280.3,-272.6 290.7,-290.8 311.4,-290.8 321.8,-272.6 311.4,-254.5 				"/>
				<polygon class="st1" points="290.7,-218.2 280.3,-236.4 290.7,-254.5 311.4,-254.5 321.8,-236.4 311.4,-218.2 				"/>
				<polygon class="st1" points="290.7,-182 280.3,-200.1 290.7,-218.2 311.4,-218.2 321.8,-200.1 311.4,-182 				"/>
				<polygon class="st1" points="290.7,-145.7 280.3,-163.8 290.7,-182 311.4,-182 321.8,-163.8 311.4,-145.7 				"/>
				<polygon class="st1" points="290.7,-109.4 280.3,-127.6 290.7,-145.7 311.4,-145.7 321.8,-127.6 311.4,-109.4 				"/>
				<polygon class="st1" points="290.7,-73.2 280.3,-91.3 290.7,-109.4 311.4,-109.4 321.8,-91.3 311.4,-73.2 				"/>
				<polygon class="st1" points="290.7,-36.9 280.3,-55 290.7,-73.2 311.4,-73.2 321.8,-55 311.4,-36.9 				"/>
				<polygon class="st1" points="321.9,-308.9 311.5,-327 321.9,-345.1 342.6,-345.1 353,-327 342.6,-308.9 				"/>
				<polygon class="st1" points="321.9,-272.6 311.5,-290.7 321.9,-308.9 342.6,-308.9 353,-290.7 342.6,-272.6 				"/>
				<polygon class="st1" points="321.9,-236.3 311.5,-254.5 321.9,-272.6 342.6,-272.6 353,-254.5 342.6,-236.3 				"/>
				<polygon class="st1" points="321.9,-200.1 311.5,-218.2 321.9,-236.3 342.6,-236.3 353,-218.2 342.6,-200.1 				"/>
				<polygon class="st1" points="321.9,-163.8 311.5,-181.9 321.9,-200.1 342.6,-200.1 353,-181.9 342.6,-163.8 				"/>
				<polygon class="st1" points="321.9,-127.6 311.5,-145.7 321.9,-163.8 342.6,-163.8 353,-145.7 342.6,-127.6 				"/>
				<polygon class="st1" points="321.9,-91.3 311.5,-109.4 321.9,-127.6 342.6,-127.6 353,-109.4 342.6,-91.3 				"/>
				<polygon class="st1" points="321.9,-55 311.5,-73.2 321.9,-91.3 342.6,-91.3 353,-73.2 342.6,-55 				"/>
				<polygon class="st1" points="321.9,-18.8 311.5,-36.9 321.9,-55 342.6,-55 353,-36.9 342.6,-18.8 				"/>
				<polygon class="st1" points="352.9,-327 342.6,-345.2 352.9,-363.3 373.7,-363.3 384.1,-345.2 373.7,-327 				"/>
				<polygon class="st1" points="352.9,-290.8 342.6,-308.9 352.9,-327 373.7,-327 384.1,-308.9 373.7,-290.8 				"/>
				<polygon class="st1" points="352.9,-254.5 342.6,-272.6 352.9,-290.8 373.7,-290.8 384.1,-272.6 373.7,-254.5 				"/>
				<polygon class="st1" points="352.9,-218.2 342.6,-236.4 352.9,-254.5 373.7,-254.5 384.1,-236.4 373.7,-218.2 				"/>
				<polygon class="st1" points="352.9,-182 342.6,-200.1 352.9,-218.2 373.7,-218.2 384.1,-200.1 373.7,-182 				"/>
				<polygon class="st1" points="352.9,-145.7 342.6,-163.8 352.9,-182 373.7,-182 384.1,-163.8 373.7,-145.7 				"/>
				<polygon class="st1" points="352.9,-109.4 342.6,-127.6 352.9,-145.7 373.7,-145.7 384.1,-127.6 373.7,-109.4 				"/>
				<polygon class="st1" points="352.9,-73.2 342.6,-91.3 352.9,-109.4 373.7,-109.4 384.1,-91.3 373.7,-73.2 				"/>
				<polygon class="st1" points="352.9,-36.9 342.6,-55 352.9,-73.2 373.7,-73.2 384.1,-55 373.7,-36.9 				"/>
				<polygon class="st1" points="384.1,-308.9 373.8,-327 384.1,-345.1 404.9,-345.1 415.3,-327 404.9,-308.9 				"/>
				<polygon class="st1" points="384.1,-272.6 373.8,-290.7 384.1,-308.9 404.9,-308.9 415.3,-290.7 404.9,-272.6 				"/>
				<polygon class="st1" points="384.1,-236.3 373.8,-254.5 384.1,-272.6 404.9,-272.6 415.3,-254.5 404.9,-236.3 				"/>
				<polygon class="st1" points="384.1,-200.1 373.8,-218.2 384.1,-236.3 404.9,-236.3 415.3,-218.2 404.9,-200.1 				"/>
				<polygon class="st1" points="384.1,-163.8 373.8,-181.9 384.1,-200.1 404.9,-200.1 415.3,-181.9 404.9,-163.8 				"/>
				<polygon class="st1" points="384.1,-127.6 373.8,-145.7 384.1,-163.8 404.9,-163.8 415.3,-145.7 404.9,-127.6 				"/>
				<polygon class="st1" points="384.1,-91.3 373.8,-109.4 384.1,-127.6 404.9,-127.6 415.3,-109.4 404.9,-91.3 				"/>
				<polygon class="st1" points="384.1,-55 373.8,-73.2 384.1,-91.3 404.9,-91.3 415.3,-73.2 404.9,-55 				"/>
				<polygon class="st1" points="384.1,-18.8 373.8,-36.9 384.1,-55 404.9,-55 415.3,-36.9 404.9,-18.8 				"/>
			</g>
			<polygon class="st0" points="352.7,-36.9 62.5,-36.9 62.5,-327.2 352.7,-327.2 			"/>
		</g>
		<g>
			<g>
				<polygon class="st1" points="414.8,-327 404.4,-345.2 414.8,-363.3 435.6,-363.3 445.9,-345.2 435.6,-327 				"/>
				<polygon class="st1" points="414.8,-290.8 404.4,-308.9 414.8,-327 435.6,-327 445.9,-308.9 435.6,-290.8 				"/>
				<polygon class="st1" points="414.8,-254.5 404.4,-272.6 414.8,-290.8 435.6,-290.8 445.9,-272.6 435.6,-254.5 				"/>
				<polygon class="st1" points="414.8,-218.2 404.4,-236.4 414.8,-254.5 435.6,-254.5 445.9,-236.4 435.6,-218.2 				"/>
				<polygon class="st1" points="414.8,-182 404.4,-200.1 414.8,-218.2 435.6,-218.2 445.9,-200.1 435.6,-182 				"/>
				<polygon class="st1" points="414.8,-145.7 404.4,-163.8 414.8,-182 435.6,-182 445.9,-163.8 435.6,-145.7 				"/>
				<polygon class="st1" points="414.8,-109.4 404.4,-127.6 414.8,-145.7 435.6,-145.7 445.9,-127.6 435.6,-109.4 				"/>
				<polygon class="st1" points="414.8,-73.2 404.4,-91.3 414.8,-109.4 435.6,-109.4 445.9,-91.3 435.6,-73.2 				"/>
				<polygon class="st1" points="414.8,-36.9 404.4,-55 414.8,-73.2 435.6,-73.2 445.9,-55 435.6,-36.9 				"/>
			</g>
		</g>
		<g>
			<g>
				<polygon class="st1" points="41.6,-0.5 31.2,-18.6 41.6,-36.8 62.4,-36.8 72.7,-18.6 62.4,-0.5 				"/>
				<polygon class="st1" points="103.9,-0.5 93.5,-18.6 103.9,-36.8 124.6,-36.8 135,-18.6 124.6,-0.5 				"/>
				<polygon class="st1" points="166.1,-0.5 155.8,-18.6 166.1,-36.8 186.9,-36.8 197.3,-18.6 186.9,-0.5 				"/>
				<polygon class="st1" points="228.4,-0.5 218,-18.6 228.4,-36.8 249.2,-36.8 259.5,-18.6 249.2,-0.5 				"/>
				<polygon class="st1" points="290.7,-0.5 280.3,-18.6 290.7,-36.8 311.4,-36.8 321.8,-18.6 311.4,-0.5 				"/>
				<polygon class="st1" points="352.9,-0.5 342.6,-18.6 352.9,-36.8 373.7,-36.8 384.1,-18.6 373.7,-0.5 				"/>
			</g>
		</g>
		<g>
			<g>
				<polygon class="st1" points="414.8,-0.5 404.4,-18.6 414.8,-36.8 435.6,-36.8 445.9,-18.6 435.6,-0.5 				"/>
			</g>
		</g>
	</g>
</pattern>
<rect x="130.1" y="104.7" class="st0" width="290.3" height="290.3"/>
<rect class="st2" width="672" height="672"/>
</svg>
