<!-- <?xml version="1.0" encoding="UTF-8"?> -->
<svg version="1.1" xmlns="http://www.w3.org/2000/svg" width="107" height="194">
<path d="M0 0 C1.25619141 -0.02900391 2.51238281 -0.05800781 3.80664062 -0.08789062 C15.85263215 -0.16873621 27.07354486 1.81609035 36.0625 10.3125 C36.90941406 11.08207031 36.90941406 11.08207031 37.7734375 11.8671875 C46.37971934 20.64139679 45.43592137 33.30585591 45.375 44.75 C45.365896 45.47372803 45.35679199 46.19745605 45.34741211 46.94311523 C45.32672912 49.06585569 45.34266104 51.18590961 45.36328125 53.30859375 C45.35466064 54.55825928 45.34604004 55.8079248 45.3371582 57.09545898 C45.75360296 60.60113744 45.75360296 60.60113744 49.10620117 62.50024414 C50.08177979 63.09828857 51.0573584 63.69633301 52.0625 64.3125 C52.0625 65.6325 52.0625 66.9525 52.0625 68.3125 C49.4225 67.9825 46.7825 67.6525 44.0625 67.3125 C44.06694122 68.51360413 44.07138245 69.71470825 44.07595825 70.95220947 C44.1166221 82.30932376 44.14654075 93.66642315 44.16612434 105.0235939 C44.17653112 110.86146343 44.19063329 116.69927385 44.21337891 122.53710938 C44.23521841 128.17812424 44.24709195 133.81908251 44.25225449 139.46013641 C44.25593038 141.60494629 44.26310813 143.74975331 44.27396011 145.89453888 C44.3757737 166.86392901 44.3757737 166.86392901 42.0625 177.3125 C41.96655548 178.01038635 41.87061096 178.70827271 41.77175903 179.42730713 C41.31450665 182.00617218 40.6414267 183.84326467 38.578125 185.515625 C36.45296311 186.69236753 34.35738967 187.51540585 32.0625 188.3125 C31.27488281 188.59996094 30.48726563 188.88742188 29.67578125 189.18359375 C11.35374457 194.773821 -13.8891718 194.44480862 -31.84375 187.5078125 C-36.96447403 184.58441408 -38.9672425 180.75416358 -40.9375 175.3125 C-42.10747532 169.97075329 -42.1092293 164.70906892 -42.14282227 159.26806641 C-42.15272186 158.27232605 -42.16262146 157.27658569 -42.17282104 156.25067139 C-42.20431289 152.97182563 -42.22914468 149.69296541 -42.25390625 146.4140625 C-42.27448641 144.13576896 -42.29548316 141.85747914 -42.31687927 139.57919312 C-42.3719902 133.59188868 -42.42144781 127.60455041 -42.46972656 121.6171875 C-42.52002186 115.50387573 -42.57566597 109.39061291 -42.63085938 103.27734375 C-42.73830662 91.28910434 -42.8397813 79.30082238 -42.9375 67.3125 C-46.4025 67.8075 -46.4025 67.8075 -49.9375 68.3125 C-49.9375 66.6625 -49.9375 65.0125 -49.9375 63.3125 C-47.9575 62.3225 -45.9775 61.3325 -43.9375 60.3125 C-43.94797363 59.58772461 -43.95844727 58.86294922 -43.96923828 58.11621094 C-44.01135486 54.76501065 -44.03700047 51.41386636 -44.0625 48.0625 C-44.07925781 46.92296875 -44.09601562 45.7834375 -44.11328125 44.609375 C-44.18124835 32.6471662 -43.78088012 19.35874712 -34.9609375 10.27734375 C-24.32182467 1.42394774 -13.34794232 0.09995963 0 0 Z " fill="#C6040D" transform="translate(52.9375,1.6875)"/>
<path d="M0 0 C2 2 2 2 2.23046875 5.33984375 C2.22857344 6.87246159 2.21294503 8.40509223 2.1875 9.9375 C2.1774292 10.78127197 2.1673584 11.62504395 2.15698242 12.49438477 C2.12902522 14.47420076 2.09540155 16.45394092 2.05761719 18.43359375 C2.01528246 21.05404153 1.98707101 23.67237593 1.97363281 26.29296875 C1.95336244 30.21574273 1.90640455 34.13751742 1.84439087 38.05984497 C1.82318714 39.64070953 1.81010194 41.2217045 1.80526733 42.80270386 C1.79594805 45.05569237 1.75498883 47.30613843 1.70703125 49.55859375 C1.68346558 51.52783813 1.68346558 51.52783813 1.65942383 53.53686523 C0.83797949 57.85089262 -0.62030622 59.28214875 -4 62 C-11.2039589 65.76682977 -18.37648447 65.48211647 -26.375 65.4375 C-27.63828125 65.45748047 -28.9015625 65.47746094 -30.203125 65.49804688 C-38.25795715 65.49386037 -46.58193176 65.1911659 -52.73510742 59.35400391 C-54.52946303 56.01465306 -54.47954213 52.81617926 -54.51171875 49.11328125 C-54.53864555 47.95036812 -54.53864555 47.95036812 -54.56611633 46.76396179 C-54.62014059 44.28019846 -54.65393414 41.79661512 -54.6875 39.3125 C-54.72071631 37.69203036 -54.75520988 36.07158637 -54.79101562 34.45117188 C-54.87528341 30.43501502 -54.92634607 26.41921112 -54.96722412 22.40240479 C-55.00041169 19.96982418 -55.06022397 17.53889955 -55.12353516 15.10693359 C-55.15190449 13.56478844 -55.17975862 12.02263369 -55.20703125 10.48046875 C-55.23101486 9.76941483 -55.25499847 9.0583609 -55.27970886 8.32575989 C-55.33876774 3.47122418 -55.33876774 3.47122418 -53.62817383 1.09179688 C-40.8339192 -7.48758635 -13.76646032 -4.92789549 0 0 Z " fill="#FE5B6E" transform="translate(81,88)"/>
<path d="M0 0 C1.00214318 3.48733136 0.89952435 4.83295692 -0.6875 8.125 C-3.97902764 15.74024165 -5.34285655 23.90820378 -7 32 C-6.33613281 31.79503906 -5.67226563 31.59007813 -4.98828125 31.37890625 C-4.10527344 31.10949219 -3.22226562 30.84007813 -2.3125 30.5625 C-1.44238281 30.29566406 -0.57226562 30.02882813 0.32421875 29.75390625 C7.26571186 27.7981279 13.88559614 27.78105204 21.0625 27.75 C22.22716797 27.729375 23.39183594 27.70875 24.59179688 27.6875 C31.62913163 27.65613583 37.80525183 28.391886 44.57202148 30.35253906 C47.06431344 31.12883133 47.06431344 31.12883133 50 31 C49.79503906 30.01 49.59007812 29.02 49.37890625 28 C48.01770919 21.3554414 46.68925026 14.75465252 46 8 C48.1925202 11.2887803 49.13101908 14.42134502 50.125 18.1875 C50.30385742 18.85789307 50.48271484 19.52828613 50.66699219 20.21899414 C51.87978746 24.98643459 52.39860983 29.11702964 52 34 C53.65 34.66 55.3 35.32 57 36 C56.5488507 39.33434596 56.08775875 42.66724706 55.625 46 C55.43550781 47.40185547 55.43550781 47.40185547 55.2421875 48.83203125 C54.47210623 54.33811231 53.45555432 59.6334345 52 65 C51.43152344 64.86722656 50.86304688 64.73445313 50.27734375 64.59765625 C49.50519531 64.42105469 48.73304687 64.24445313 47.9375 64.0625 C47.18339844 63.88847656 46.42929688 63.71445313 45.65234375 63.53515625 C28.56766744 60.08802716 8.79626432 60.12647253 -8 65 C-9.56910428 59.82877807 -10.70344529 54.69744863 -11.625 49.375 C-11.7590625 48.63765625 -11.893125 47.9003125 -12.03125 47.140625 C-13.42039258 39.23101725 -13.42039258 39.23101725 -13 36 C-12.01 35.34 -11.02 34.68 -10 34 C-9.09570487 31.66851548 -9.09570487 31.66851548 -8.53515625 28.90625 C-8.29216797 27.875 -8.04917969 26.84375 -7.79882812 25.78125 C-7.55583984 24.6984375 -7.31285156 23.615625 -7.0625 22.5 C-5.2859944 14.68529071 -3.22646386 7.3501372 0 0 Z " fill="#050000" transform="translate(32,21)"/>
<path d="M0 0 C3.23875148 0.51820024 4.70791085 1.18641098 6.84765625 3.66796875 C12.04809569 11.126703 14.88296579 19.31479789 17.5 27.9375 C17.76288818 28.80189697 18.02577637 29.66629395 18.29663086 30.55688477 C19.47531189 34.61397059 20.49343773 38.2278768 20.125 42.5 C19.11493896 42.34152588 18.10487793 42.18305176 17.06420898 42.01977539 C13.38080436 41.53375317 9.80894679 41.29905612 6.09765625 41.18359375 C4.81181641 41.14169922 3.52597656 41.09980469 2.20117188 41.05664062 C0.86328375 41.016843 -0.47460691 40.97713049 -1.8125 40.9375 C-3.17774562 40.89423346 -4.54298018 40.85061679 -5.90820312 40.80664062 C-9.23037652 40.70098847 -12.55261946 40.59888605 -15.875 40.5 C-16.16532489 32.83791569 -16.20424861 26.27151459 -13.125 19.1875 C-12.85131592 18.51307861 -12.57763184 17.83865723 -12.2956543 17.14379883 C-5.64431892 0.98162068 -5.64431892 0.98162068 0 0 Z " fill="#FC5C6E" transform="translate(53.875,8.5)"/>
<path d="M0 0 C10.72728295 -0.73418667 18.06920365 1.23154757 26.375 8.1875 C31.31428393 12.5234512 34.54465427 17.35168495 35.19586182 23.99942017 C35.5343575 30.64406305 35.42824386 37.30700894 35.33984375 43.95727539 C35.31323132 46.50993006 35.32274421 49.06056808 35.3359375 51.61328125 C35.31429535 52.39560623 35.2926532 53.17793121 35.27035522 53.98396301 C35.22858058 56.48146654 35.22858058 56.48146654 36 60 C38.91383718 62.43912831 38.91383718 62.43912831 42 64 C42 64.66 42 65.32 42 66 C38.7 65.34 35.4 64.68 32 64 C32 62.35 32 60.7 32 59 C31.505 58.505 31.505 58.505 31 58 C31 60.97 31 63.94 31 67 C29.515 67.495 29.515 67.495 28 68 C27.01 73.61 26.02 79.22 25 85 C23.515 84.01 23.515 84.01 22 83 C22.77081539 76.65386942 23.65050155 70.32726195 24.5625 64 C24.70107422 63.03449219 24.83964844 62.06898437 24.98242188 61.07421875 C25.3209705 58.71605249 25.66017682 56.35798287 26 54 C25.35724121 53.73316406 24.71448242 53.46632812 24.05224609 53.19140625 C22 52 22 52 21.1640625 48.9375 C20.98617187 47.638125 20.80828125 46.33875 20.625 45 C18.27562036 30.19738378 13.33657459 16.50486188 5 4 C7.64 4.66 10.28 5.32 13 6 C12.67 5.34 12.34 4.68 12 4 C9.19521805 3.08514427 9.19521805 3.08514427 5.9375 2.375 C4.83277344 2.11460938 3.72804688 1.85421875 2.58984375 1.5859375 C1.30787109 1.29589844 1.30787109 1.29589844 0 1 C0 0.67 0 0.34 0 0 Z " fill="#CA040B" transform="translate(62,3)"/>
<path d="M0 0 C12.21445156 11.17492377 16.22073756 30.24829425 18 46 C11.25 45.125 11.25 45.125 9 44 C8.14565588 41.0862369 7.39252194 38.20008584 6.6875 35.25 C4.08477092 24.89446089 1.37635783 14.73797184 -5 6 C-5 5.34 -5 4.68 -5 4 C-6.40986438 3.6957344 -7.82868811 3.43279092 -9.25 3.1875 C-10.03890625 3.03667969 -10.8278125 2.88585937 -11.640625 2.73046875 C-14.16499121 2.78493145 -14.16499121 2.78493145 -16.03515625 4.86328125 C-18.66195587 9.05676057 -20.43944627 13.38102218 -22.1875 18 C-22.54263672 18.93030029 -22.89777344 19.86060059 -23.26367188 20.8190918 C-25.87032408 27.95461673 -27.22701852 34.35231357 -27 42 C-26.34 42.33 -25.68 42.66 -25 43 C-26.9363704 43.50435694 -28.87414146 44.00333874 -30.8125 44.5 C-31.89144531 44.7784375 -32.97039063 45.056875 -34.08203125 45.34375 C-37 46 -37 46 -40 46 C-38.95205969 31.06685056 -34.16100395 10.71927556 -23 0 C-16.77452772 -3.4746822 -6.26704449 -3.35214008 0 0 Z " fill="#E5071D" transform="translate(65,7)"/>
<path d="M0 0 C18.48 0 36.96 0 56 0 C56 3.96 56 7.92 56 12 C50.83300174 17.16699826 41.6747024 16.24407182 34.80249023 16.27575684 C33.2980068 16.27419906 31.79352328 16.26914339 30.2890625 16.26074219 C28.00493829 16.25002317 25.72160033 16.26068264 23.4375 16.2734375 C16.08568694 16.28104973 9.08266104 16.2055655 2 14 C1.34 13.34 0.68 12.68 0 12 C0 8.04 0 4.08 0 0 Z " fill="#030000" transform="translate(26,158)"/>
<path d="M0 0 C0.66 0.33 1.32 0.66 2 1 C2.4140625 3.50390625 2.4140625 3.50390625 2.625 6.5625 C2.69976562 7.57441406 2.77453125 8.58632812 2.8515625 9.62890625 C2.90054688 10.41136719 2.94953125 11.19382813 3 12 C-14.48817741 20.74408871 -36.78893793 17.96986573 -55 13 C-55.66 12.67 -56.32 12.34 -57 12 C-56.85950482 10.52031676 -56.71245174 9.04125484 -56.5625 7.5625 C-56.48128906 6.73878906 -56.40007813 5.91507813 -56.31640625 5.06640625 C-56 3 -56 3 -55 2 C-53.49861167 2.09039167 -52.00117542 2.24632435 -50.5078125 2.42578125 C-43.3856147 3.14030223 -36.28755477 3.186079 -29.13818359 3.18530273 C-26.87188291 3.18750303 -24.60605977 3.2057691 -22.33984375 3.22460938 C-14.99826525 3.25287639 -8.09488955 3.12530656 -1 1 C-0.67 0.67 -0.34 0.34 0 0 Z " fill="#FA5B6C" transform="translate(81,170)"/>
<path d="M0 0 C0.33 0 0.66 0 1 0 C1 12.21 1 24.42 1 37 C1.99 37.33 2.98 37.66 4 38 C4 40.64 4 43.28 4 46 C3.34 45.67 2.68 45.34 2 45 C1.93022247 57.7965554 1.87704845 70.59306488 1.84456348 83.38977242 C1.82896553 89.33299649 1.80783531 95.27608957 1.77368164 101.21923828 C1.74087785 106.9640111 1.72310294 112.70865859 1.71536827 118.45351791 C1.70986228 120.63576096 1.69911138 122.81799782 1.68280983 125.00018692 C1.59869479 136.73616161 1.7298946 147.63276664 5 159 C5.79664063 159.1340625 6.59328125 159.268125 7.4140625 159.40625 C10 160 10 160 11.375 161.5 C13.9319331 163.86024594 16.59809313 163.66538621 20 164 C21.14339844 164.17015625 22.28679688 164.3403125 23.46484375 164.515625 C29.08996693 165.22192431 34.71394367 165.14859808 40.375 165.125 C42.08743896 165.12101196 42.08743896 165.12101196 43.83447266 165.11694336 C50.69013072 165.07892588 57.52912856 164.93538763 64.375 164.5625 C65.09864746 164.52334473 65.82229492 164.48418945 66.56787109 164.44384766 C71.37113325 164.18200875 71.37113325 164.18200875 76 163 C76.6837045 161.67532254 77.34964186 160.34136367 78 159 C80.125 157.75 80.125 157.75 82 157 C82 158.65 82 160.3 82 162 C62.93577541 172.6319714 36.30772991 172.32693248 15.453125 167.11328125 C9.15337421 165.00503132 5.36587785 162.7317557 2.3125 156.625 C-0.0576805 150.0787872 -0.16284931 143.83484752 -0.20532227 136.95556641 C-0.21522186 135.95982605 -0.22512146 134.96408569 -0.23532104 133.93817139 C-0.26681289 130.65932563 -0.29164468 127.38046541 -0.31640625 124.1015625 C-0.33698641 121.82326896 -0.35798316 119.54497914 -0.37937927 117.26669312 C-0.4344902 111.27938868 -0.48394781 105.29205041 -0.53222656 99.3046875 C-0.58252186 93.19137573 -0.63816597 87.07811291 -0.69335938 80.96484375 C-0.80080662 68.97660434 -0.9022813 56.98832238 -1 45 C-4.465 45.495 -4.465 45.495 -8 46 C-8 44.35 -8 42.7 -8 41 C-6.02 40.01 -4.04 39.02 -2 38 C-2.01047363 37.27522461 -2.02094727 36.55044922 -2.03173828 35.80371094 C-2.07385486 32.45251065 -2.09950047 29.10136636 -2.125 25.75 C-2.14175781 24.61046875 -2.15851562 23.4709375 -2.17578125 22.296875 C-2.21917947 14.65878746 -1.5140841 7.48677886 0 0 Z " fill="#0D0000" transform="translate(11,24)"/>
<path d="M0 0 C16.54305267 3.43040724 31.71087046 4.82730441 48.31958008 1.11499023 C50.08374975 0.73385711 51.87219402 0.46912768 53.66015625 0.22265625 C54.65015625 0.88265625 55.64015625 1.54265625 56.66015625 2.22265625 C56.66015625 3.21265625 56.66015625 4.20265625 56.66015625 5.22265625 C53.64487566 6.73029655 50.47644334 6.60977915 47.16015625 6.78515625 C46.38494629 6.82688965 45.60973633 6.86862305 44.81103516 6.91162109 C37.55396817 7.25639158 30.29959048 7.33071685 23.03515625 7.34765625 C21.93365234 7.35224854 20.83214844 7.35684082 19.69726562 7.36157227 C13.91742037 7.35055212 8.37533454 7.0850818 2.66015625 6.22265625 C1.38140625 6.05765625 0.10265625 5.89265625 -1.21484375 5.72265625 C-4.33984375 5.22265625 -4.33984375 5.22265625 -6.33984375 4.22265625 C-6.33984375 2.90265625 -6.33984375 1.58265625 -6.33984375 0.22265625 C-3.772536 -1.06099763 -2.77825925 -0.60754063 0 0 Z " fill="#E5172F" transform="translate(28.33984375,182.77734375)"/>
<path d="M0 0 C0 12.21 0 24.42 0 37 C-5.55388562 30.05764298 -7.4793584 26.86728176 -7.25 18.1875 C-7.24484375 17.41857422 -7.2396875 16.64964844 -7.234375 15.85742188 C-7.16658947 10.83705641 -6.70274302 5.97020667 -6 1 C-1.125 0 -1.125 0 0 0 Z " fill="#0C0000" transform="translate(91,117)"/>
<path d="M0 0 C0.33 0 0.66 0 1 0 C1 15.84 1 31.68 1 48 C-1.97 48.495 -1.97 48.495 -5 49 C-5.44265057 32.3268285 -3.33323151 16.31061285 0 0 Z " fill="#140000" transform="translate(90,67)"/>
<path d="M0 0 C0.33 0 0.66 0 1 0 C4.73131708 16.47443119 5.50269385 32.13655476 5 49 C3.35 48.67 1.7 48.34 0 48 C0 32.16 0 16.32 0 0 Z " fill="#090000" transform="translate(17,67)"/>
<path d="M0 0 C1.98 0.66 3.96 1.32 6 2 C6.14628834 6.16629205 6.23440421 10.33191597 6.3125 14.5 C6.35439453 15.67304688 6.39628906 16.84609375 6.43945312 18.0546875 C6.5404879 25.24836376 6.04205412 30.55228734 1 36 C0.67 36 0.34 36 0 36 C0 24.12 0 12.24 0 0 Z " fill="#020000" transform="translate(17,117)"/>
<path d="M0 0 C1.92875977 0.00966797 1.92875977 0.00966797 3.89648438 0.01953125 C5.23437779 0.03623649 6.57226842 0.05316631 7.91015625 0.0703125 C9.27538408 0.08035928 10.64061905 0.08948214 12.00585938 0.09765625 C15.32830824 0.12113645 18.65038946 0.15397891 21.97265625 0.1953125 C21.64265625 0.8553125 21.31265625 1.5153125 20.97265625 2.1953125 C23.61265625 3.1853125 26.25265625 4.1753125 28.97265625 5.1953125 C28.97265625 5.8553125 28.97265625 6.5153125 28.97265625 7.1953125 C26.66265625 6.8653125 24.35265625 6.5353125 21.97265625 6.1953125 C22.359375 6.74058594 22.74609375 7.28585938 23.14453125 7.84765625 C26.66245053 12.94167303 30.22519391 18.19368321 31.97265625 24.1953125 C31.47765625 25.6803125 31.47765625 25.6803125 30.97265625 27.1953125 C30.45316406 26.10992188 29.93367188 25.02453125 29.3984375 23.90625 C28.69444777 22.46072442 27.989996 21.0154238 27.28515625 19.5703125 C26.7756543 18.50103516 26.7756543 18.50103516 26.25585938 17.41015625 C22.45859412 9.31695854 22.45859412 9.31695854 15.49609375 4.33203125 C14.66335937 4.28691406 13.830625 4.24179688 12.97265625 4.1953125 C12.09867188 4.13988281 11.2246875 4.08445312 10.32421875 4.02734375 C4.78188808 3.98764224 0.29152569 4.48926004 -5.02734375 6.1953125 C-7.69089194 6.62506939 -10.34251535 6.91269898 -13.02734375 7.1953125 C-12.69734375 6.2053125 -12.36734375 5.2153125 -12.02734375 4.1953125 C-12.68734375 3.5353125 -13.34734375 2.8753125 -14.02734375 2.1953125 C-9.17568282 0.62956151 -5.14930654 -0.04577161 0 0 Z " fill="#1F0004" transform="translate(46.02734375,1.8046875)"/>
<path d="M0 0 C0.33 0 0.66 0 1 0 C1 12.21 1 24.42 1 37 C1.99 37.33 2.98 37.66 4 38 C4 40.64 4 43.28 4 46 C3.34 45.67 2.68 45.34 2 45 C1.67 51.93 1.34 58.86 1 66 C0.67 66 0.34 66 0 66 C-0.33 59.07 -0.66 52.14 -1 45 C-4.465 45.495 -4.465 45.495 -8 46 C-8 44.35 -8 42.7 -8 41 C-6.02 40.01 -4.04 39.02 -2 38 C-2.01047363 37.27522461 -2.02094727 36.55044922 -2.03173828 35.80371094 C-2.07385486 32.45251065 -2.09950047 29.10136636 -2.125 25.75 C-2.14175781 24.61046875 -2.15851562 23.4709375 -2.17578125 22.296875 C-2.21917947 14.65878746 -1.5140841 7.48677886 0 0 Z " fill="#340001" transform="translate(11,24)"/>
<path d="M0 0 C-0.25043116 3.38082062 -1.2814127 4.2814127 -3.75 6.75 C-7.01629806 9.01128327 -8.1690781 9.56337087 -12 9 C-11.875 6.75 -11.875 6.75 -11 4 C-7.34972742 0.93045261 -4.80536311 -0.56533684 0 0 Z " fill="#FDF179" transform="translate(32,9)"/>
<path d="M0 0 C5.20479932 0.40821955 8.35686861 1.13607277 12 5 C12 6.32 12 7.64 12 9 C7.67403972 8.74553175 5.47997699 8.3880665 2.0625 5.625 C0 3 0 3 0 0 Z " fill="#FDF37A" transform="translate(76,9)"/>
<path d="M0 0 C7.68939051 -0.52627007 14.26265171 -0.03982762 21 4 C23.125 6.75 23.125 6.75 24 9 C22.18504338 8.55149342 20.37306866 8.09090429 18.5625 7.625 C17.55316406 7.36976562 16.54382813 7.11453125 15.50390625 6.8515625 C13 6 13 6 12 4 C9.19521805 3.08514427 9.19521805 3.08514427 5.9375 2.375 C4.83277344 2.11460938 3.72804688 1.85421875 2.58984375 1.5859375 C1.30787109 1.29589844 1.30787109 1.29589844 0 1 C0 0.67 0 0.34 0 0 Z " fill="#920A12" transform="translate(62,3)"/>
<path d="M0 0 C1.29550781 0.00322266 2.59101562 0.00644531 3.92578125 0.00976562 C5.28906317 0.01812027 6.65234442 0.02658521 8.015625 0.03515625 C9.39452965 0.04017457 10.77343604 0.0447369 12.15234375 0.04882812 C15.52348159 0.06061532 18.89453128 0.0770699 22.265625 0.09765625 C22.265625 0.42765625 22.265625 0.75765625 22.265625 1.09765625 C16.2642433 2.03904946 10.48654453 2.15278302 4.4140625 2.03515625 C1.26157743 2.0977366 -1.63265342 2.55985775 -4.734375 3.09765625 C-6.35832248 3.15973375 -7.98442797 3.18477666 -9.609375 3.16015625 C-10.39054687 3.15113281 -11.17171875 3.14210938 -11.9765625 3.1328125 C-12.55664062 3.12121094 -13.13671875 3.10960937 -13.734375 3.09765625 C-9.07651561 -0.00758334 -5.55925849 -0.02438271 0 0 Z " fill="#53020C" transform="translate(45.734375,1.90234375)"/>
<path d="M0 0 C0 1.32 0 2.64 0 4 C-2.97 4.66 -5.94 5.32 -9 6 C-9 5.01 -9 4.02 -9 3 C-3.375 0 -3.375 0 0 0 Z " fill="#E2061C" transform="translate(13,63)"/>
<path d="M0 0 C0.33 0 0.66 0 1 0 C1 3.96 1 7.92 1 12 C1.66 12.33 2.32 12.66 3 13 C1.35 13 -0.3 13 -2 13 C-1.85769192 11.58297487 -1.71099254 10.1663904 -1.5625 8.75 C-1.48128906 7.96109375 -1.40007813 7.1721875 -1.31640625 6.359375 C-1.02365007 4.17635361 -0.57935581 2.1226818 0 0 Z " fill="#F51234" transform="translate(37,37)"/>
<path d="M0 0 C0.99 0.33 1.98 0.66 3 1 C3 3.64 3 6.28 3 9 C2.34 8.67 1.68 8.34 1 8 C0.34 8.99 -0.32 9.98 -1 11 C-1.33 9.35 -1.66 7.7 -2 6 C-1.01 6 -0.02 6 1 6 C1 4.68 1 3.36 1 2 C0.34 1.67 -0.32 1.34 -1 1 C-0.67 0.67 -0.34 0.34 0 0 Z " fill="#840204" transform="translate(12,61)"/>
<path d="M0 0 C2.875 -0.1875 2.875 -0.1875 6 0 C6.66 0.99 7.32 1.98 8 3 C4.71303767 3.79953138 3.28976808 4.09658936 0 3 C0 2.01 0 1.02 0 0 Z " fill="#D35D70" transform="translate(24,185)"/>
<path d="M0 0 C-1.32 0.33 -2.64 0.66 -4 1 C-4 1.66 -4 2.32 -4 3 C-5.11375 3.309375 -6.2275 3.61875 -7.375 3.9375 C-10.7945155 4.82326483 -10.7945155 4.82326483 -13 6 C-12 3 -12 3 -10.29296875 1.796875 C-9.59816406 1.45140625 -8.90335938 1.1059375 -8.1875 0.75 C-7.50042969 0.39421875 -6.81335938 0.0384375 -6.10546875 -0.328125 C-3.64922558 -1.11193544 -2.39957614 -0.84119973 0 0 Z " fill="#D11018" transform="translate(36,6)"/>
<path d="M0 0 C0.33 0.66 0.66 1.32 1 2 C1.66 2 2.32 2 3 2 C2.67 4.64 2.34 7.28 2 10 C1.01 9.34 0.02 8.68 -1 8 C-0.67 5.36 -0.34 2.72 0 0 Z " fill="#B1030A" transform="translate(85,78)"/>
<path d="M0 0 C2.375 0.25 2.375 0.25 5 1 C6.3125 3.0625 6.3125 3.0625 7 5 C4.69 4.34 2.38 3.68 0 3 C0 2.01 0 1.02 0 0 Z " fill="#E3071E" transform="translate(97,64)"/>
<path d="M0 0 C0.33 0 0.66 0 1 0 C1.66 2.64 2.32 5.28 3 8 C2.01 8 1.02 8 0 8 C-0.33 8.66 -0.66 9.32 -1 10 C-1.33 7.69 -1.66 5.38 -2 3 C-1.34 3 -0.68 3 0 3 C0 2.01 0 1.02 0 0 Z " fill="#BA030B" transform="translate(22,79)"/>
</svg>
