<svg xmlns="http://www.w3.org/2000/svg" width="100" height="213" viewBox="0 0 100 212">
<g transform-origin="50% 50%" transform="scale(0.92)">
   <path
      style="fill-rule:nonzero;fill:#F0E68C;fill-opacity:1;stroke-width:.264583;stroke-linecap:butt;stroke-linejoin:miter;stroke:#000;stroke-opacity:1;stroke-miterlimit:4"
      d="M43.278.5 36.189.455l-2.887.248-1.649.226-1.652.271-1.936.467L26.659 2l-2.07.47-1.936.666-2.005.734-1.67.738-2.206 1.068-1.605.868-1.628 1.153-1.779 1.387-1.471 1.537-1.002 1.404-1.201 1.87-.537 1.202-.534 1.603v137.476L9.64 177.89l.318 1.212.602.916.968 1.229.9.707.992.662 1.04.614 1.037.426 1.372.566 1.324.474 1.31.436 1.382.367 1.228.343 1.56.316 1.533.178 1.395.107h32.75l2.962-.374 3.035-.488 2.706-.7 2.24-.67 2.07-.867 1.215-.725.992-.744 1.02-1.184.65-.903.584-1.07.633-4.693 1.622-12.513.451-4.276V18.245l-.202-1.254-.451-1.441-.54-1.157-.688-1.204-1.037-1.679-.982-1.194-.978-.92-.712-.686-.838-.673-.78-.556-1.074-.697-1.115-.758-1.12-.6-1.21-.577-1.546-.66-1.577-.651-1.52-.584-1.474-.532-1.4-.436-1.487-.419-1.936-.418-2.457-.433L50.294.5Zm0 0"
      transform="matrix(1.14184 0 0 1.13815 .61 -.366)" />
   <path
      style="fill-rule:nonzero;fill:#585d59;fill-opacity:1;stroke-width:0.7;stroke-linecap:butt;stroke-linejoin:miter;stroke:#000;stroke-opacity:1;stroke-miterlimit:4"
      d="m24.291 61.825-3.315.357-3.674.398-2.538.395-1.31.384-.425.223-.321.206-.26.2-.27.212-.23.258-.277.418-.168.47-.023.615.023 2.032.404 1.276 5.987 14.01.38.79.414.624.886.735.554.237 1.724.024 3.093-.522 3.804-.47 5.432-.402 5.122-.195 7.936-.014 8.587.467 4.358.336 4.803.631.852.169 1.276-.357.52-.47.8-.828.747-1.561.838-1.888 4.748-11.552.308-.804-.024-2.457-.048-.542-.356-.755-.328-.285-.376-.47-.736-.357-1.344-.47-2.833-.498-3.568-.415-4.776-.36-8.22-.3-11.906.035-11.61.172Zm-1.074 77.827-.68.676-.569.851-.694 1.36-.9 2.1-.67 1.973-.616 1.795-.424 1.277-.332 1.18-.376 1.325-.476 2.41-.328 2.502-.144 7.416.072.57.4.59.38.33.636.59.404.168.81.31 1.403.367 1.204.267 1.136.2 1.953.384 1.752.26 1.639.258 1.703.233 1.94.217 1.652.168 1.249.123h15.637l2.542-.106 2.173-.2 1.802-.202 1.889-.284 1.755-.333 1.67-.385 2.004-.436 1.803-.532 1.54-.5.7-.636.4-.367.367-.57-.065-7.883-.301-3.14-.469-2.173-.3-1.3-.634-2.208-.636-1.77-.482-1.452-.452-1.12-.537-1.204-.5-.95-.834-1.521-.602-.7-.582-.22-.948-.024-.848.058-2.634.203-2.385.213-1.915.14-2.009.19-2.432.236-4.276.213-5.812.068-5.477-.305-4.208-.402-1.82-.26-2.549-.258-1.94.028Zm-13.17-63.124 4.836 11.357.377 1.016-.045 19.584-5.271-2.434Zm-.083 32.966 5.262 2.368v21.368l-5.286 3.051Zm66.573-32.966-4.838 11.357-.376 1.016.045 19.584 5.268-2.434Zm.082 32.966-5.262 2.368v21.368l5.286 3.051Zm0 0"
      transform="matrix(1.14184 0 0 1.13815 .61 -.366)" />
   <path
      style="fill-rule:nonzero;fill:#deffff;fill-opacity:1;stroke-width:.264583;stroke-linecap:butt;stroke-linejoin:miter;stroke:#000;stroke-opacity:1;stroke-miterlimit:4"
      d="m24.705 4.79.544.059.428.157.468.378.264.244.25.466-.018 1.185-.284.535-.95.484-.818.336-.623.35-.746.412-.886.402-.694.401-.756.46-.838.426-.968.6-.863.639-.615.38-.698.519-.602.426-.828.683-.814.652-.708.779c-.26.267-.524.237-2.659.223l-1.47-.028.027-.895.215-.944.236-.567.5-.768.622-.776.555-.59.533-.512.934-.73.862-.65.849-.603.958-.58.896-.519 1.252-.707 1.026-.532.996-.412.817-.34.856-.325 1.248-.426.886-.2.414-.081Zm0 0"
      transform="matrix(1.14184 0 0 1.13815 .61 -.366)" />
   <path
      style="fill-rule:nonzero;fill:#f4a70d;fill-opacity:1;stroke-width:.264583;stroke-linecap:butt;stroke-linejoin:miter;stroke:#000;stroke-opacity:1;stroke-miterlimit:4"
      d="m12.51 10.906 2.148 4.078" transform="matrix(1.14184 0 0 1.13815 .61 -.366)" />
   <path
      style="fill-rule:nonzero;fill:#f4a70d;fill-opacity:1;stroke-width:.714286;stroke-linecap:round;stroke-linejoin:miter;stroke:#000;stroke-opacity:1;stroke-miterlimit:4"
      d="m39.276 59.771-1.474-.078v-1.375c.013-2.698 1.073-6.045 2.677-8.458 1.577-2.335 6.413-7.912 6.646-7.653.194.22 7.46 14.152 7.46 14.295 0 .26-2.301 2.724-2.832 3.035-.387.221-1.409.273-5.74.273-2.897.013-5.935-.013-6.737-.039Zm0 0"
      transform="matrix(.3021 0 0 .30113 .61 -.366)" />
   <path
      style="fill-rule:evenodd;fill:#595959;fill-opacity:1;stroke-width:.401088;stroke-linecap:butt;stroke-linejoin:miter;stroke:#000;stroke-opacity:1;stroke-miterlimit:4"
      d="M29.019 8.068a129.052 129.052 0 0 1 28.473-.175v-3.68a154.716 154.716 0 0 0-28.473 0Zm0 0"
      transform="matrix(1.14184 0 0 1.13815 .61 -.366)" />
   <path
      style="fill-rule:nonzero;fill:#deffff;fill-opacity:1;stroke-width:.264583;stroke-linecap:butt;stroke-linejoin:miter;stroke:#000;stroke-opacity:1;stroke-miterlimit:4"
      d="m24.706 4.79.543.062.425.158.472.374.263.243.25.467-.017 1.188-.284.532-.951.484-.818.336-.622.35-.746.412-.886.401-.695.402-.756.46-.838.425-.971.604-.863.635-.612.381-.698.519-.602.425-.828.687-.814.648-.708.78c-.263.267-.523.236-2.658.222l-1.471-.027.027-.892.216-.948.232-.566.503-.769.623-.775.55-.59.538-.512.934-.731.858-.649.852-.604.958-.576.896-.522 1.252-.707 1.027-.532.995-.412.814-.34.856-.326 1.252-.425.882-.2.418-.082Zm0 0"
      transform="matrix(-1.14184 0 0 1.13815 99.538 -.405)" />
   <path
      style="fill-rule:nonzero;fill:#f4a70d;fill-opacity:1;stroke-width:.264583;stroke-linecap:butt;stroke-linejoin:miter;stroke:#000;stroke-opacity:1;stroke-miterlimit:4"
      d="m12.51 10.906 2.148 4.077" transform="matrix(-1.14184 0 0 1.13815 99.538 -.405)" />
   <path
      style="fill-rule:nonzero;fill:#f4a70d;fill-opacity:1;stroke-width:.714286;stroke-linecap:round;stroke-linejoin:miter;stroke:#000;stroke-opacity:1;stroke-miterlimit:4"
      d="m39.278 59.77-1.474-.078v-1.375c0-2.698 1.06-6.045 2.676-8.445 1.578-2.348 6.413-7.926 6.646-7.666.194.22 7.46 14.152 7.46 14.295 0 .272-2.314 2.737-2.83 3.035-.389.22-1.41.273-5.742.286-2.896 0-5.935-.026-6.736-.052Zm0 0"
      transform="matrix(-.3021 0 0 .30113 99.538 -.405)" />
   <path
      style="fill-rule:nonzero;fill:#fff;fill-opacity:1;stroke-width:.265;stroke-linecap:butt;stroke-linejoin:miter;stroke:#080000;stroke-opacity:1;stroke-miterlimit:4"
      d="m11.6 20.91-.025 37.586-.52-.093-.26-4.678-.095-1.582.024-28.49.236-1.349Zm0 0"
      transform="matrix(1.14184 0 0 1.13815 .61 -.366)" />
   <path
      style="fill-rule:nonzero;fill:#000;fill-opacity:1;stroke-width:.264583;stroke-linecap:butt;stroke-linejoin:miter;stroke:#010000;stroke-opacity:1;stroke-miterlimit:4"
      d="m79.332 67.546.944.234 1.3.377 1.396.333 1.676.851 1.06.567.664.968.4.638.192 1.393.068 1.346-.352.803-.688.522-.612.048-1.156-.31-1.42-.638-1.17-.566-.725-.59-.52-.742-1.02-3.686-1.42-.453.014-1.095Zm0 0"
      transform="matrix(1.14184 0 0 1.13815 .61 -.366)" />
   <path
      style="fill-rule:nonzero;fill:#fff;fill-opacity:1;stroke-width:.265;stroke-linecap:butt;stroke-linejoin:miter;stroke:#080000;stroke-opacity:1;stroke-miterlimit:4"
      d="m74.665 20.904.024 37.585.52-.096.26-4.675.093-1.585-.024-28.49-.236-1.346Zm0 0"
      transform="matrix(1.14184 0 0 1.13815 .61 -.366)" />
   <path style="stroke:none;fill-rule:nonzero;fill:#c20000;fill-opacity:1"
      d="m83.238 208.305-1.16-1.614M21.86 207.664h13.82v1.649H21.86Zm42.296 0h13.82v1.649h-13.82Zm0 0" />
   <path
      style="fill-rule:nonzero;fill:#000;fill-opacity:1;stroke-width:.264583;stroke-linecap:butt;stroke-linejoin:miter;stroke:#010000;stroke-opacity:1;stroke-miterlimit:4"
      d="m7.3 67.546-.945.234-1.3.377-1.392.333-1.68.851-1.06.567-.664.968-.4.638-.189 1.393-.072 1.346.356.803.684.522.613.048 1.16-.31 1.416-.638 1.17-.566.728-.59.52-.742 1.016-3.686 1.424-.453-.014-1.095Zm0 0"
      transform="matrix(1.14184 0 0 1.13815 .61 -.366)" />
   <path
      style="fill:none;stroke-width:.264583;stroke-linecap:butt;stroke-linejoin:miter;stroke:#000;stroke-opacity:1;stroke-miterlimit:4"
      d="m16.368 164.524 2.24 18.256h49.147l2.49-17.658m-39.533 19.106h24.94"
      transform="matrix(1.14184 0 0 1.13815 .61 -.366)" />
   <path
      style="fill-rule:nonzero;fill:#f9f9f9;fill-opacity:1;stroke-width:.668132;stroke-linecap:round;stroke-linejoin:round;stroke:#050000;stroke-opacity:1;stroke-miterlimit:4"
      d="M116.196 693.593v-2.205h94.04v4.423h-94.04Zm0 0" transform="matrix(.3021 0 0 .30113 .61 -.366)" />
      </g>
</svg>