<?xml version="1.0" encoding="UTF-8" standalone="no"?>

<svg xmlns="http://www.w3.org/2000/svg" version="1.1"
   width="100" height="300" viewBox="0 0 100 300"
>
<g transform-origin="50% 50%" transform="scale(1.00)">
<rect x="15" y="80" width="70" height="40" style="fill:#555; stroke-width:1; stroke:black; stroke-linejoin:round;"></rect>

<rect x="10" y="100" width="80" height="198" rx="5" ry="5" style="fill:#5488bd; stroke-width:0.7; stroke:#000"></rect>
<path d="M 10 105 A 5 5 0 0 1 15 100 L 18 100 L 18 298 L 15 298 A 5 5 0 0 1 10 293 Z" style="fill:rgba(0,0,0,0.2); stroke:none"></path>
<path d="M 90 105 A 5 5 0 0 0 85 100 L 82 100 L 82 298 L 85 298 A 5 5 0 0 0 90 293 Z" style="fill:rgba(0,0,0,0.2); stroke:none"></path>

<path d="M 10 95 L 10 45 L 15 8 Q 15 5 18 4 Q 50 -3 82 4 Q 85 5 85 8 L 90 45 L 90 95 Z" stroke="black" stroke-width="0.7" stroke-linejoin="round" fill="#5488bd"></path>

<path d="M 18 40 Q 50 30 82 40 L 79 67 Q 50 60 21 67 Z" stroke="black" stroke-width="1" fill="#585d59" stroke-linejoin="round"></path>

<path d="M 12 45 L 12 92 L 15 92 L 15 67 Z" stroke="black" stroke-width="1" fill="#585d59" stroke-linejoin="round"></path>

<path d="M 88 45 L 88 92 L 85 92 L 85 67 Z" stroke="black" stroke-width="1" fill="#585d59" stroke-linejoin="round"></path>


<path d="M 18 95 L 18 69L 15 40 L 18 9" style="fill:none; stroke-width:0.5599999999999999; stroke:black"></path>
<path d="M 82 95 L 82 69L 85 40 L 82 9" style="fill:none; stroke-width:0.5599999999999999; stroke:black"></path>

<ellipse cx="25" cy="05.8" rx="7" ry="2" fill="#deffff" stroke="grey" stroke-width="0.7" transform="rotate(-12 23 11.5)"></ellipse>
<ellipse cx="75.6" cy="11.2" rx="7" ry="2" fill="#deffff" stroke="grey" stroke-width="0.7" transform="rotate(+12 103 11.5)"></ellipse>

<path d="M 32 2 Q 50 -1 68 2 L 68 6 Q 50 4 32 6 Z" stroke="black" stroke-width="0" fill="black" stroke-linejoin="round"></path>

<path d="M 14.7 10 Q 50 0 85.3 10" style="fill:none; stroke-width:0.7; stroke:black"></path>

<path d="M 14 49 L 4 53 A 4 4 0 0 0 1 58.7 L 8 56 L 8 53 L 14 51 Z" style="stroke-linejoin:round; stroke:black; fill:black; stroke-width:1; stroke-linecap:round;"></path>
<path d="M 86 49 L 96 53 A 4 4 0 0 1 99 58.7 L 92 56 L 92 53 L 86 51 Z" style="stroke-linejoin:round; stroke:black; fill:black; stroke-width:1; stroke-linecap:round;"></path>

<rect x="18" y="298" width="7" height="1.85" style="fill:red; stroke-width:0.3; stroke:#555; stroke-linejoin:round;"></rect>
<rect x="75" y="298" width="7" height="1.85" style="fill:red; stroke-width:0.3; stroke:#555; stroke-linejoin:round;"></rect>
</g>
</svg>
